<svg width="500" height="400" viewBox="0 0 500 400" fill="none" xmlns="http://www.w3.org/2000/svg">
<rect width="500" height="400" fill="#F3F5FF"/>
<path d="M372.961 174.551C372.855 173.95 373.257 173.376 373.859 173.269C374.46 173.163 375.034 173.565 375.14 174.166L378.021 190.538L375.843 190.922L372.961 174.551Z" fill="#212121"/>
<path d="M379.849 174.993C379.849 174.382 380.344 173.886 380.955 173.886C381.566 173.886 382.061 174.382 382.061 174.993V191.616H379.849V174.993Z" fill="#212121"/>
<path d="M389.063 174.04C389.272 173.466 389.906 173.17 390.48 173.379C391.054 173.588 391.351 174.224 391.142 174.798L385.467 190.419L383.388 189.661L389.063 174.04Z" fill="#212121"/>
<path d="M371 186.524C371 185.42 371.895 184.524 373 184.524H389.352C390.457 184.524 391.352 185.42 391.352 186.524V205.8H371V186.524Z" fill="#5770F5"/>
<path d="M371.5 186.524C371.5 185.696 372.172 185.024 373 185.024H389.352C390.181 185.024 390.852 185.696 390.852 186.524V205.3H371.5V186.524Z" stroke="black" stroke-opacity="0.25"/>
<path d="M371 195.492H391.425" stroke="black"/>
<mask id="path-8-inside-1" fill="white">
<path fill-rule="evenodd" clip-rule="evenodd" d="M343.449 206.132H289.375C288.063 206.132 287 205.069 287 203.757C287 202.446 288.063 201.382 289.375 201.382H341.462L355.068 162.393C355.5 161.155 356.854 160.501 358.092 160.933C359.331 161.365 359.985 162.72 359.552 163.958L344.685 206.564L343.449 206.132Z"/>
</mask>
<path fill-rule="evenodd" clip-rule="evenodd" d="M343.449 206.132H289.375C288.063 206.132 287 205.069 287 203.757C287 202.446 288.063 201.382 289.375 201.382H341.462L355.068 162.393C355.5 161.155 356.854 160.501 358.092 160.933C359.331 161.365 359.985 162.72 359.552 163.958L344.685 206.564L343.449 206.132Z" fill="#989EBC"/>
<path d="M343.449 206.132L343.779 205.188L343.619 205.132H343.449V206.132ZM341.462 201.382V202.382H342.172L342.406 201.712L341.462 201.382ZM355.068 162.393L354.123 162.064V162.064L355.068 162.393ZM358.092 160.933L358.422 159.989V159.989L358.092 160.933ZM359.552 163.958L358.608 163.629V163.629L359.552 163.958ZM344.685 206.564L344.355 207.508L345.299 207.837L345.629 206.893L344.685 206.564ZM343.449 205.132H289.375V207.132H343.449V205.132ZM289.375 205.132C288.616 205.132 288 204.517 288 203.757H286C286 205.621 287.511 207.132 289.375 207.132V205.132ZM288 203.757C288 202.998 288.616 202.382 289.375 202.382V200.382C287.511 200.382 286 201.894 286 203.757H288ZM289.375 202.382H341.462V200.382H289.375V202.382ZM342.406 201.712L356.012 162.723L354.123 162.064L340.518 201.053L342.406 201.712ZM356.012 162.723C356.262 162.006 357.046 161.627 357.763 161.877L358.422 159.989C356.662 159.375 354.738 160.304 354.123 162.064L356.012 162.723ZM357.763 161.877C358.48 162.128 358.858 162.912 358.608 163.629L360.497 164.288C361.111 162.528 360.182 160.603 358.422 159.989L357.763 161.877ZM358.608 163.629L343.741 206.234L345.629 206.893L360.497 164.288L358.608 163.629ZM345.014 205.619L343.779 205.188L343.12 207.077L344.355 207.508L345.014 205.619Z" fill="black" fill-opacity="0.25" mask="url(#path-8-inside-1)"/>
<path d="M259.5 204.804H411.5V208.482C411.5 211.243 409.261 213.482 406.5 213.482H264.5C261.739 213.482 259.5 211.243 259.5 208.482V204.804Z" fill="#3C3D4E"/>
<path d="M260 205.304H411V208.482C411 210.967 408.985 212.982 406.5 212.982H264.5C262.015 212.982 260 210.967 260 208.482V205.304Z" stroke="black" stroke-opacity="0.25"/>
<path d="M268.367 213.482H287.367L275.967 321.949H268.367V213.482Z" fill="#3C3D4E"/>
<path d="M382.367 213.482H401.367V321.949H394.4L382.367 213.482Z" fill="#3C3D4E"/>
<mask id="path-14-inside-2" fill="white">
<path fill-rule="evenodd" clip-rule="evenodd" d="M217.99 252.041C213.175 254.825 211.528 260.987 214.312 265.802L247.876 323.85H262.411L265.564 322.154L232.009 256.194C229.391 251.046 222.99 249.15 217.99 252.041Z"/>
</mask>
<path fill-rule="evenodd" clip-rule="evenodd" d="M217.99 252.041C213.175 254.825 211.528 260.987 214.312 265.802L247.876 323.85H262.411L265.564 322.154L232.009 256.194C229.391 251.046 222.99 249.15 217.99 252.041Z" fill="#4255B9"/>
<path d="M214.312 265.802L215.178 265.302L214.312 265.802ZM217.99 252.041L217.49 251.175L217.99 252.041ZM247.876 323.85L247.01 324.351L247.299 324.85H247.876V323.85ZM262.411 323.85V324.85H262.663L262.885 324.731L262.411 323.85ZM265.564 322.154L266.038 323.034L266.899 322.571L266.456 321.7L265.564 322.154ZM232.009 256.194L231.118 256.647L232.009 256.194ZM215.178 265.302C212.67 260.964 214.153 255.415 218.491 252.907L217.49 251.175C212.196 254.236 210.386 261.009 213.447 266.303L215.178 265.302ZM248.742 323.349L215.178 265.302L213.447 266.303L247.01 324.351L248.742 323.349ZM247.876 324.85H262.411V322.85H247.876V324.85ZM265.09 321.273L261.937 322.969L262.885 324.731L266.038 323.034L265.09 321.273ZM231.118 256.647L264.673 322.607L266.456 321.7L232.901 255.74L231.118 256.647ZM218.491 252.907C222.994 250.303 228.759 252.011 231.118 256.647L232.901 255.74C230.022 250.082 222.985 247.998 217.49 251.175L218.491 252.907Z" fill="black" fill-opacity="0.25" mask="url(#path-14-inside-2)"/>
<mask id="path-16-inside-3" fill="white">
<path fill-rule="evenodd" clip-rule="evenodd" d="M207.599 242.752L238.92 237.642C245.324 236.597 251.37 240.94 252.424 247.343C252.821 249.751 252.454 252.108 251.502 254.167C251.37 254.921 251.149 255.672 250.834 256.408L222.321 322.9L207.646 322.9L205.19 321.926L226.797 263.427L211.417 265.937L207.599 242.752Z"/>
</mask>
<path fill-rule="evenodd" clip-rule="evenodd" d="M207.599 242.752L238.92 237.642C245.324 236.597 251.37 240.94 252.424 247.343C252.821 249.751 252.454 252.108 251.502 254.167C251.37 254.921 251.149 255.672 250.834 256.408L222.321 322.9L207.646 322.9L205.19 321.926L226.797 263.427L211.417 265.937L207.599 242.752Z" fill="#4255B9"/>
<path d="M238.92 237.642L239.081 238.629L238.92 237.642ZM207.599 242.752L207.438 241.765L206.449 241.927L206.612 242.915L207.599 242.752ZM252.424 247.343L253.411 247.18L252.424 247.343ZM251.502 254.167L250.594 253.747L250.539 253.866L250.517 253.995L251.502 254.167ZM250.834 256.408L251.753 256.802L251.753 256.802L250.834 256.408ZM222.321 322.9L222.321 323.9L222.98 323.9L223.24 323.294L222.321 322.9ZM207.646 322.9L207.277 323.83L207.454 323.9L207.646 323.9L207.646 322.9ZM205.19 321.926L204.252 321.58L203.914 322.496L204.822 322.856L205.19 321.926ZM226.797 263.427L227.735 263.774L228.33 262.164L226.636 262.44L226.797 263.427ZM211.417 265.937L210.431 266.099L210.593 267.084L211.578 266.924L211.417 265.937ZM238.759 236.655L207.438 241.765L207.76 243.739L239.081 238.629L238.759 236.655ZM253.411 247.18C252.267 240.234 245.707 235.522 238.759 236.655L239.081 238.629C244.94 237.673 250.473 241.647 251.437 247.505L253.411 247.18ZM252.409 254.587C253.443 252.352 253.841 249.793 253.411 247.18L251.437 247.505C251.8 249.71 251.465 251.865 250.594 253.747L252.409 254.587ZM251.753 256.802C252.099 255.994 252.342 255.169 252.487 254.34L250.517 253.995C250.398 254.672 250.2 255.349 249.915 256.014L251.753 256.802ZM223.24 323.294L251.753 256.802L249.915 256.014L221.402 322.506L223.24 323.294ZM207.646 323.9L222.321 323.9L222.321 321.9L207.646 321.9L207.646 323.9ZM204.822 322.856L207.277 323.83L208.014 321.97L205.559 320.997L204.822 322.856ZM225.859 263.081L204.252 321.58L206.128 322.273L227.735 263.774L225.859 263.081ZM211.578 266.924L226.958 264.414L226.636 262.44L211.256 264.95L211.578 266.924ZM206.612 242.915L210.431 266.099L212.404 265.774L208.586 242.59L206.612 242.915Z" fill="black" fill-opacity="0.25" mask="url(#path-16-inside-3)"/>
<mask id="path-18-inside-4" fill="white">
<path fill-rule="evenodd" clip-rule="evenodd" d="M241.473 180.056L214.502 149.05L202.317 159.649L234.579 196.738C236.391 198.822 239.549 199.042 241.633 197.229L241.791 197.091C241.997 197.002 242.2 196.898 242.398 196.778L275.681 176.685L276.106 177.598C276.572 178.6 277.761 179.034 278.763 178.568L290.997 172.876L294.811 178.097C295.057 178.432 295.516 178.528 295.876 178.319C296.236 178.109 296.379 177.66 296.205 177.281L293.635 171.648L293.673 171.631L288.476 160.459C288.01 159.457 286.82 159.023 285.819 159.489L277.511 163.354L277.485 163.3L241.473 180.056Z"/>
</mask>
<path fill-rule="evenodd" clip-rule="evenodd" d="M241.473 180.056L214.502 149.05L202.317 159.649L234.579 196.738C236.391 198.822 239.549 199.042 241.633 197.229L241.791 197.091C241.997 197.002 242.2 196.898 242.398 196.778L275.681 176.685L276.106 177.598C276.572 178.6 277.761 179.034 278.763 178.568L290.997 172.876L294.811 178.097C295.057 178.432 295.516 178.528 295.876 178.319C296.236 178.109 296.379 177.66 296.205 177.281L293.635 171.648L293.673 171.631L288.476 160.459C288.01 159.457 286.82 159.023 285.819 159.489L277.511 163.354L277.485 163.3L241.473 180.056Z" fill="#633333" fill-opacity="0.8"/>
<path d="M214.502 149.05L215.257 148.394L214.6 147.639L213.846 148.295L214.502 149.05ZM241.473 180.056L240.718 180.713L241.212 181.28L241.895 180.963L241.473 180.056ZM202.317 159.649L201.661 158.895L200.906 159.551L201.563 160.305L202.317 159.649ZM234.579 196.738L233.824 197.395H233.824L234.579 196.738ZM241.633 197.229L242.289 197.984H242.289L241.633 197.229ZM241.791 197.091L241.394 196.173L241.252 196.235L241.135 196.337L241.791 197.091ZM242.398 196.778L241.881 195.922L242.398 196.778ZM275.681 176.685L276.588 176.264L276.118 175.254L275.164 175.829L275.681 176.685ZM276.106 177.598L277.012 177.176V177.176L276.106 177.598ZM278.763 178.568L279.185 179.474L278.763 178.568ZM290.997 172.876L291.804 172.286L291.32 171.623L290.575 171.969L290.997 172.876ZM294.811 178.097L295.619 177.507V177.507L294.811 178.097ZM295.876 178.319L296.379 179.183L296.379 179.183L295.876 178.319ZM296.205 177.281L295.296 177.696V177.696L296.205 177.281ZM293.635 171.648L293.214 170.742L292.314 171.16L292.726 172.063L293.635 171.648ZM293.673 171.631L294.095 172.537L295.002 172.116L294.58 171.209L293.673 171.631ZM288.476 160.459L287.569 160.88L287.569 160.88L288.476 160.459ZM285.819 159.489L285.397 158.582L285.819 159.489ZM277.511 163.354L276.612 163.792L277.043 164.675L277.933 164.26L277.511 163.354ZM277.485 163.3L278.384 162.862L277.954 161.979L277.063 162.393L277.485 163.3ZM213.748 149.706L240.718 180.713L242.227 179.4L215.257 148.394L213.748 149.706ZM202.973 160.404L215.159 149.805L213.846 148.295L201.661 158.895L202.973 160.404ZM235.333 196.082L203.072 158.993L201.563 160.305L233.824 197.395L235.333 196.082ZM240.976 196.475C239.309 197.925 236.783 197.749 235.333 196.082L233.824 197.395C235.999 199.895 239.789 200.159 242.289 197.984L240.976 196.475ZM241.135 196.337L240.976 196.475L242.289 197.984L242.447 197.846L241.135 196.337ZM241.881 195.922C241.722 196.019 241.559 196.102 241.394 196.173L242.188 198.009C242.435 197.902 242.678 197.777 242.915 197.635L241.881 195.922ZM275.164 175.829L241.881 195.922L242.915 197.635L276.198 177.541L275.164 175.829ZM277.012 177.176L276.588 176.264L274.774 177.107L275.199 178.02L277.012 177.176ZM278.341 177.661C277.84 177.894 277.245 177.677 277.012 177.176L275.199 178.02C275.898 179.522 277.682 180.173 279.185 179.474L278.341 177.661ZM290.575 171.969L278.341 177.661L279.185 179.474L291.419 173.783L290.575 171.969ZM295.619 177.507L291.804 172.286L290.189 173.466L294.004 178.687L295.619 177.507ZM295.372 177.455C295.455 177.406 295.562 177.429 295.619 177.507L294.004 178.687C294.552 179.436 295.577 179.65 296.379 179.183L295.372 177.455ZM295.296 177.696C295.255 177.608 295.289 177.504 295.372 177.455L296.379 179.183C297.183 178.714 297.502 177.712 297.115 176.866L295.296 177.696ZM292.726 172.063L295.296 177.696L297.115 176.866L294.545 171.233L292.726 172.063ZM293.252 170.724L293.214 170.742L294.057 172.555L294.095 172.537L293.252 170.724ZM287.569 160.88L292.767 172.053L294.58 171.209L289.382 160.037L287.569 160.88ZM286.24 160.396C286.741 160.163 287.336 160.38 287.569 160.88L289.382 160.037C288.683 158.535 286.899 157.883 285.397 158.582L286.24 160.396ZM277.933 164.26L286.24 160.396L285.397 158.582L277.09 162.447L277.933 164.26ZM276.586 163.738L276.612 163.792L278.41 162.916L278.384 162.862L276.586 163.738ZM241.895 180.963L277.907 164.207L277.063 162.393L241.051 179.15L241.895 180.963Z" fill="black" fill-opacity="0.25" mask="url(#path-18-inside-4)"/>
<mask id="path-20-inside-5" fill="white">
<path fill-rule="evenodd" clip-rule="evenodd" d="M202.221 126.472C189.91 122.006 176.31 128.366 171.845 140.676L144.55 215.921L189.13 232.092L209.021 177.257L211.292 181.729L234.579 165.047L215.401 138.274C212.79 132.978 208.209 128.644 202.221 126.472Z"/>
</mask>
<path fill-rule="evenodd" clip-rule="evenodd" d="M202.221 126.472C189.91 122.006 176.31 128.366 171.845 140.676L144.55 215.921L189.13 232.092L209.021 177.257L211.292 181.729L234.579 165.047L215.401 138.274C212.79 132.978 208.209 128.644 202.221 126.472Z" fill="#212121"/>
<path d="M171.845 140.676L172.785 141.017L171.845 140.676ZM202.221 126.472L202.562 125.532L202.221 126.472ZM144.55 215.921L143.61 215.58L143.269 216.52L144.209 216.861L144.55 215.921ZM189.13 232.092L188.789 233.032L189.729 233.373L190.07 232.433L189.13 232.092ZM209.021 177.257L209.913 176.804L208.868 174.747L208.081 176.916L209.021 177.257ZM211.292 181.729L210.401 182.181L210.928 183.22L211.875 182.541L211.292 181.729ZM234.579 165.047L235.162 165.859L235.975 165.277L235.392 164.464L234.579 165.047ZM215.401 138.274L214.504 138.716L214.54 138.79L214.588 138.856L215.401 138.274ZM172.785 141.017C177.062 129.226 190.088 123.135 201.88 127.412L202.562 125.532C189.732 120.878 175.559 127.505 170.905 140.335L172.785 141.017ZM145.49 216.262L172.785 141.017L170.905 140.335L143.61 215.58L145.49 216.262ZM189.471 231.152L144.891 214.981L144.209 216.861L188.789 233.032L189.471 231.152ZM208.081 176.916L188.19 231.751L190.07 232.433L209.962 177.598L208.081 176.916ZM212.184 181.276L209.913 176.804L208.13 177.71L210.401 182.181L212.184 181.276ZM233.997 164.234L210.71 180.916L211.875 182.541L235.162 165.859L233.997 164.234ZM214.588 138.856L233.766 165.629L235.392 164.464L216.214 137.692L214.588 138.856ZM201.88 127.412C207.616 129.493 212.002 133.643 214.504 138.716L216.298 137.832C213.577 132.314 208.802 127.796 202.562 125.532L201.88 127.412Z" fill="black" fill-opacity="0.25" mask="url(#path-20-inside-5)"/>
<circle cx="219.417" cy="98.7" r="23.75" fill="#633333" fill-opacity="0.8"/>
<circle cx="219.417" cy="98.7" r="23.25" stroke="black" stroke-opacity="0.25"/>
<mask id="path-24-inside-6" fill="white">
<path fill-rule="evenodd" clip-rule="evenodd" d="M217.274 86.0727L212.022 93.95H196.142C197.961 82.6396 207.766 74 219.59 74C232.665 74 243.273 84.5668 243.339 97.627L237.466 95.1255L217.903 85.8978L217.513 85.7138L217.274 86.0727Z"/>
</mask>
<path fill-rule="evenodd" clip-rule="evenodd" d="M217.274 86.0727L212.022 93.95H196.142C197.961 82.6396 207.766 74 219.59 74C232.665 74 243.273 84.5668 243.339 97.627L237.466 95.1255L217.903 85.8978L217.513 85.7138L217.274 86.0727Z" fill="black" fill-opacity="0.9"/>
<path d="M212.022 93.95V94.95H212.557L212.854 94.5047L212.022 93.95ZM217.274 86.0727L218.106 86.6274L217.274 86.0727ZM196.142 93.95L195.155 93.7912L194.968 94.95H196.142V93.95ZM243.339 97.627L242.947 98.547L244.347 99.143L244.339 97.6219L243.339 97.627ZM237.466 95.1255L237.039 96.0299L237.056 96.038L237.074 96.0455L237.466 95.1255ZM217.903 85.8978L217.476 86.8022H217.476L217.903 85.8978ZM217.513 85.7138L217.939 84.8094L217.159 84.4413L216.681 85.1591L217.513 85.7138ZM212.854 94.5047L218.106 86.6274L216.441 85.518L211.19 93.3953L212.854 94.5047ZM196.142 94.95H212.022V92.95H196.142V94.95ZM219.59 73C207.267 73 197.05 82.0038 195.155 93.7912L197.129 94.1088C198.871 83.2754 208.265 75 219.59 75V73ZM244.339 97.6219C244.27 84.0117 233.216 73 219.59 73V75C232.115 75 242.276 85.1219 242.339 97.632L244.339 97.6219ZM237.074 96.0455L242.947 98.547L243.731 96.7069L237.857 94.2054L237.074 96.0455ZM217.476 86.8022L237.039 96.0299L237.892 94.221L218.329 84.9934L217.476 86.8022ZM217.086 86.6182L217.476 86.8022L218.329 84.9934L217.939 84.8094L217.086 86.6182ZM218.106 86.6274L218.345 86.2685L216.681 85.1591L216.441 85.518L218.106 86.6274Z" fill="black" fill-opacity="0.25" mask="url(#path-24-inside-6)"/>
<path d="M142.65 241.519L152.861 236.45L195.196 321.721L191.452 323.58L142.65 241.519Z" fill="#3C3D4E"/>
<path d="M158.741 250.7L169.423 254.681L136.382 323.75L132.109 322.158L158.741 250.7Z" fill="#3C3D4E"/>
<path d="M113.895 164.713C113.511 162.538 114.964 160.463 117.139 160.08L132.65 157.345C134.825 156.961 136.9 158.414 137.284 160.589L149.127 227.753L125.737 231.877L113.895 164.713Z" fill="#3C3D4E"/>
<path d="M117 210.467C117 207.79 119.578 205.869 122.143 206.633L217.693 235.123C219.388 235.629 220.55 237.187 220.55 238.956V272.35C220.55 274.559 218.759 276.35 216.55 276.35H121C118.791 276.35 117 274.559 117 272.35V210.467Z" fill="#3C3D4E"/>
<path d="M117.5 210.467C117.5 208.125 119.756 206.443 122 207.113L217.55 235.602C219.033 236.045 220.05 237.409 220.05 238.956V272.35C220.05 274.283 218.483 275.85 216.55 275.85H121C119.067 275.85 117.5 274.283 117.5 272.35V210.467Z" stroke="black" stroke-opacity="0.25"/>
<path d="M440 322.9H60" stroke="black" stroke-width="2" stroke-linecap="round"/>
</svg>
