<svg width="500" height="400" viewBox="0 0 500 400" fill="none" xmlns="http://www.w3.org/2000/svg">
<rect width="500" height="400" fill="#F3F5FF"/>
<mask id="path-2-inside-1" fill="white">
<path fill-rule="evenodd" clip-rule="evenodd" d="M220.897 252.272C216.088 255.218 214.38 261.618 217.082 266.568L247.396 322.095H263.194L265.381 320.842L234.759 256.415C232.235 251.103 225.899 249.209 220.897 252.272Z"/>
</mask>
<path fill-rule="evenodd" clip-rule="evenodd" d="M220.897 252.272C216.088 255.218 214.38 261.618 217.082 266.568L247.396 322.095H263.194L265.381 320.842L234.759 256.415C232.235 251.103 225.899 249.209 220.897 252.272Z" fill="#4255B9"/>
<path d="M217.082 266.568L217.96 266.089L217.082 266.568ZM220.897 252.272L220.375 251.42L220.897 252.272ZM247.396 322.095L246.518 322.574L246.802 323.095H247.396V322.095ZM263.194 322.095V323.095H263.46L263.691 322.963L263.194 322.095ZM265.381 320.842L265.878 321.71L266.682 321.25L266.284 320.413L265.381 320.842ZM234.759 256.415L235.663 255.985L234.759 256.415ZM217.96 266.089C215.513 261.606 217.065 255.792 221.42 253.125L220.375 251.42C215.111 254.643 213.247 261.629 216.205 267.047L217.96 266.089ZM248.273 321.616L217.96 266.089L216.205 267.047L246.518 322.574L248.273 321.616ZM247.396 323.095H263.194V321.095H247.396V323.095ZM264.884 319.975L262.697 321.227L263.691 322.963L265.878 321.71L264.884 319.975ZM233.856 256.844L264.478 321.272L266.284 320.413L235.663 255.985L233.856 256.844ZM221.42 253.125C225.912 250.374 231.585 252.066 233.856 256.844L235.663 255.985C232.884 250.14 225.886 248.045 220.375 251.42L221.42 253.125Z" fill="black" fill-opacity="0.25" mask="url(#path-2-inside-1)"/>
<mask id="path-4-inside-2" fill="white">
<path fill-rule="evenodd" clip-rule="evenodd" d="M194.9 241.638L226.434 239.433C230.805 239.127 234.789 241.228 237.088 244.607C237.653 245.22 238.152 245.913 238.565 246.683L279.107 322.052L277.55 322.914V322.054H260.45V322.376L225.006 263.341L196.557 265.33L194.9 241.638Z"/>
</mask>
<path fill-rule="evenodd" clip-rule="evenodd" d="M194.9 241.638L226.434 239.433C230.805 239.127 234.789 241.228 237.088 244.607C237.653 245.22 238.152 245.913 238.565 246.683L279.107 322.052L277.55 322.914V322.054H260.45V322.376L225.006 263.341L196.557 265.33L194.9 241.638Z" fill="#4255B9"/>
<path d="M226.434 239.433L226.503 240.431H226.503L226.434 239.433ZM194.9 241.638L194.83 240.641L193.833 240.71L193.902 241.708L194.9 241.638ZM237.088 244.607L236.261 245.17L236.303 245.231L236.353 245.286L237.088 244.607ZM238.565 246.683L237.685 247.156V247.156L238.565 246.683ZM279.107 322.052L279.591 322.927L280.455 322.448L279.987 321.578L279.107 322.052ZM277.55 322.914H276.55V324.611L278.035 323.789L277.55 322.914ZM277.55 322.054H278.55V321.054H277.55V322.054ZM260.45 322.054V321.054H259.45V322.054H260.45ZM260.45 322.376L259.593 322.891L261.45 325.984V322.376H260.45ZM225.006 263.341L225.863 262.826L225.548 262.301L224.936 262.343L225.006 263.341ZM196.557 265.33L195.559 265.4L195.629 266.398L196.626 266.328L196.557 265.33ZM226.364 238.436L194.83 240.641L194.97 242.636L226.503 240.431L226.364 238.436ZM237.914 244.045C235.423 240.383 231.104 238.104 226.364 238.436L226.503 240.431C230.505 240.151 234.154 242.073 236.261 245.17L237.914 244.045ZM239.446 246.209C238.992 245.365 238.444 244.603 237.823 243.929L236.353 245.286C236.862 245.837 237.311 246.461 237.685 247.156L239.446 246.209ZM279.987 321.578L239.446 246.209L237.685 247.156L278.226 322.526L279.987 321.578ZM278.035 323.789L279.591 322.927L278.622 321.177L277.065 322.039L278.035 323.789ZM276.55 322.054V322.914H278.55V322.054H276.55ZM260.45 323.054H277.55V321.054H260.45V323.054ZM261.45 322.376V322.054H259.45V322.376H261.45ZM224.149 263.856L259.593 322.891L261.307 321.861L225.863 262.826L224.149 263.856ZM196.626 266.328L225.076 264.339L224.936 262.343L196.487 264.333L196.626 266.328ZM193.902 241.708L195.559 265.4L197.554 265.261L195.897 241.568L193.902 241.708Z" fill="black" fill-opacity="0.25" mask="url(#path-4-inside-2)"/>
<mask id="path-6-inside-3" fill="white">
<path fill-rule="evenodd" clip-rule="evenodd" d="M186.828 153.895L228.27 184.089L268.424 187.395L268.428 187.327L284.839 188.394C285.941 188.466 286.777 189.418 286.705 190.52L285.994 201.444L267.588 200.246L267.723 198.164L223.416 199.293C222.046 199.328 220.802 198.812 219.882 197.955C219.83 197.92 219.779 197.884 219.728 197.847L177.317 166.948L186.828 153.895Z"/>
</mask>
<path fill-rule="evenodd" clip-rule="evenodd" d="M186.828 153.895L228.27 184.089L268.424 187.395L268.428 187.327L284.839 188.394C285.941 188.466 286.777 189.418 286.705 190.52L285.994 201.444L267.588 200.246L267.723 198.164L223.416 199.293C222.046 199.328 220.802 198.812 219.882 197.955C219.83 197.92 219.779 197.884 219.728 197.847L177.317 166.948L186.828 153.895Z" fill="#633333" fill-opacity="0.8"/>
<path d="M228.27 184.089L227.681 184.897L227.908 185.062L228.187 185.085L228.27 184.089ZM186.828 153.895L187.416 153.087L186.608 152.498L186.019 153.306L186.828 153.895ZM268.424 187.395L268.342 188.392L269.356 188.475L269.422 187.46L268.424 187.395ZM268.428 187.327L268.493 186.329L267.495 186.264L267.43 187.262L268.428 187.327ZM284.839 188.394L284.774 189.392L284.774 189.392L284.839 188.394ZM286.705 190.52L287.703 190.585L287.703 190.585L286.705 190.52ZM285.994 201.444L285.929 202.442L286.927 202.507L286.992 201.509L285.994 201.444ZM267.588 200.246L266.59 200.182L266.525 201.179L267.523 201.244L267.588 200.246ZM267.723 198.164L268.721 198.229L268.792 197.136L267.698 197.164L267.723 198.164ZM223.416 199.293L223.39 198.293L223.416 199.293ZM219.882 197.955L220.564 197.223L220.506 197.17L220.441 197.126L219.882 197.955ZM219.728 197.847L219.139 198.655L219.139 198.655L219.728 197.847ZM177.317 166.948L176.509 166.359L175.92 167.167L176.729 167.756L177.317 166.948ZM228.858 183.28L187.416 153.087L186.239 154.703L227.681 184.897L228.858 183.28ZM268.506 186.398L228.352 183.092L228.187 185.085L268.342 188.392L268.506 186.398ZM269.422 187.46L269.426 187.392L267.43 187.262L267.426 187.33L269.422 187.46ZM268.363 188.324L284.774 189.392L284.904 187.397L268.493 186.329L268.363 188.324ZM284.774 189.392C285.325 189.428 285.743 189.904 285.707 190.455L287.703 190.585C287.81 188.932 286.557 187.504 284.904 187.397L284.774 189.392ZM285.707 190.455L284.996 201.379L286.992 201.509L287.703 190.585L285.707 190.455ZM286.059 200.446L267.653 199.249L267.523 201.244L285.929 202.442L286.059 200.446ZM268.586 200.311L268.721 198.229L266.725 198.099L266.59 200.182L268.586 200.311ZM223.441 200.293L267.749 199.164L267.698 197.164L223.39 198.293L223.441 200.293ZM219.201 198.687C220.303 199.714 221.798 200.335 223.441 200.293L223.39 198.293C222.294 198.321 221.3 197.91 220.564 197.223L219.201 198.687ZM219.139 198.655C219.2 198.7 219.261 198.743 219.324 198.785L220.441 197.126C220.399 197.098 220.358 197.069 220.316 197.039L219.139 198.655ZM176.729 167.756L219.139 198.655L220.316 197.039L177.906 166.14L176.729 167.756ZM186.019 153.306L176.509 166.359L178.126 167.537L187.636 154.484L186.019 153.306Z" fill="black" fill-opacity="0.25" mask="url(#path-6-inside-3)"/>
<mask id="path-8-inside-4" fill="white">
<path fill-rule="evenodd" clip-rule="evenodd" d="M194.086 160.147L238.749 185.332L279.016 183.961L279.012 183.892L295.436 183.05C296.539 182.993 297.48 183.842 297.536 184.945L298.097 195.878L279.675 196.822L279.569 194.738L235.691 200.997C234.334 201.19 233.039 200.822 232.026 200.078C231.97 200.049 231.915 200.019 231.86 199.988L186.153 174.215L194.086 160.147Z"/>
</mask>
<path fill-rule="evenodd" clip-rule="evenodd" d="M194.086 160.147L238.749 185.332L279.016 183.961L279.012 183.892L295.436 183.05C296.539 182.993 297.48 183.842 297.536 184.945L298.097 195.878L279.675 196.822L279.569 194.738L235.691 200.997C234.334 201.19 233.039 200.822 232.026 200.078C231.97 200.049 231.915 200.019 231.86 199.988L186.153 174.215L194.086 160.147Z" fill="#805A5C"/>
<path d="M238.749 185.332L238.258 186.203L238.502 186.341L238.783 186.332L238.749 185.332ZM194.086 160.147L194.577 159.276L193.706 158.785L193.215 159.656L194.086 160.147ZM279.016 183.961L279.05 184.96L280.067 184.925L280.015 183.909L279.016 183.961ZM279.012 183.892L278.961 182.893L277.963 182.945L278.014 183.943L279.012 183.892ZM295.436 183.05L295.487 184.049L295.487 184.049L295.436 183.05ZM297.536 184.945L298.535 184.894L298.535 184.894L297.536 184.945ZM298.097 195.878L298.148 196.876L299.147 196.825L299.095 195.827L298.097 195.878ZM279.675 196.822L278.677 196.874L278.728 197.872L279.727 197.821L279.675 196.822ZM279.569 194.738L280.567 194.687L280.511 193.594L279.427 193.748L279.569 194.738ZM235.691 200.997L235.55 200.007L235.691 200.997ZM232.026 200.078L232.618 199.272L232.555 199.225L232.484 199.189L232.026 200.078ZM231.86 199.988L231.369 200.859L231.369 200.859L231.86 199.988ZM186.153 174.215L185.282 173.724L184.791 174.595L185.662 175.086L186.153 174.215ZM239.24 184.461L194.577 159.276L193.595 161.018L238.258 186.203L239.24 184.461ZM278.982 182.961L238.715 184.333L238.783 186.332L279.05 184.96L278.982 182.961ZM280.015 183.909L280.011 183.841L278.014 183.943L278.017 184.012L280.015 183.909ZM279.064 184.891L295.487 184.049L295.385 182.051L278.961 182.893L279.064 184.891ZM295.487 184.049C296.039 184.02 296.509 184.445 296.537 184.996L298.535 184.894C298.45 183.239 297.04 181.966 295.385 182.051L295.487 184.049ZM296.537 184.996L297.098 195.929L299.095 195.827L298.535 184.894L296.537 184.996ZM298.045 194.879L279.624 195.824L279.727 197.821L298.148 196.876L298.045 194.879ZM280.674 196.771L280.567 194.687L278.57 194.789L278.677 196.874L280.674 196.771ZM235.832 201.987L279.71 195.728L279.427 193.748L235.55 200.007L235.832 201.987ZM231.434 200.883C232.648 201.776 234.205 202.219 235.832 201.987L235.55 200.007C234.464 200.162 233.429 199.868 232.618 199.272L231.434 200.883ZM231.369 200.859C231.434 200.896 231.501 200.932 231.567 200.966L232.484 199.189C232.44 199.166 232.395 199.142 232.351 199.117L231.369 200.859ZM185.662 175.086L231.369 200.859L232.351 199.117L186.644 173.344L185.662 175.086ZM193.215 159.656L185.282 173.724L187.024 174.706L194.957 160.638L193.215 159.656Z" fill="black" fill-opacity="0.25" mask="url(#path-8-inside-4)"/>
<mask id="path-10-inside-5" fill="white">
<path fill-rule="evenodd" clip-rule="evenodd" d="M166.704 138.555C154.674 138.293 144.709 147.833 144.447 159.863L142.665 241.81L186.229 242.758L187.529 183.02L191.233 186.747L207.946 163.481L181.998 144.842C181.563 144.529 181.114 144.252 180.654 144.008C176.929 140.714 172.064 138.672 166.704 138.555Z"/>
</mask>
<path fill-rule="evenodd" clip-rule="evenodd" d="M166.704 138.555C154.674 138.293 144.709 147.833 144.447 159.863L142.665 241.81L186.229 242.758L187.529 183.02L191.233 186.747L207.946 163.481L181.998 144.842C181.563 144.529 181.114 144.252 180.654 144.008C176.929 140.714 172.064 138.672 166.704 138.555Z" fill="#212121"/>
<path d="M144.447 159.863L143.448 159.842L144.447 159.863ZM166.704 138.555L166.682 139.555L166.704 138.555ZM142.665 241.81L141.665 241.788L141.643 242.788L142.643 242.81L142.665 241.81ZM186.229 242.758L186.208 243.758L187.207 243.779L187.229 242.78L186.229 242.758ZM187.529 183.02L188.238 182.315L186.58 180.648L186.529 182.999L187.529 183.02ZM191.233 186.747L190.524 187.452L191.357 188.289L192.045 187.33L191.233 186.747ZM207.946 163.481L208.758 164.065L209.341 163.253L208.529 162.669L207.946 163.481ZM181.998 144.842L181.415 145.654L181.415 145.654L181.998 144.842ZM180.654 144.008L179.991 144.757L180.081 144.835L180.186 144.891L180.654 144.008ZM145.447 159.885C145.697 148.407 155.204 139.305 166.682 139.555L166.725 137.555C154.143 137.281 143.721 147.259 143.448 159.842L145.447 159.885ZM143.664 241.832L145.447 159.885L143.448 159.842L141.665 241.788L143.664 241.832ZM186.251 241.758L142.686 240.81L142.643 242.81L186.208 243.758L186.251 241.758ZM186.529 182.999L185.23 242.736L187.229 242.78L188.529 183.042L186.529 182.999ZM191.943 186.042L188.238 182.315L186.82 183.725L190.524 187.452L191.943 186.042ZM207.134 162.898L190.421 186.163L192.045 187.33L208.758 164.065L207.134 162.898ZM181.415 145.654L207.362 164.294L208.529 162.669L182.581 144.03L181.415 145.654ZM180.186 144.891C180.606 145.114 181.017 145.368 181.415 145.654L182.581 144.03C182.11 143.691 181.622 143.389 181.122 143.124L180.186 144.891ZM166.682 139.555C171.797 139.666 176.437 141.614 179.991 144.757L181.316 143.258C177.421 139.814 172.33 137.677 166.725 137.555L166.682 139.555Z" fill="black" fill-opacity="0.25" mask="url(#path-10-inside-5)"/>
<circle cx="172.169" cy="106.695" r="23.75" transform="rotate(-18.6919 172.169 106.695)" fill="#633333" fill-opacity="0.8"/>
<circle cx="172.169" cy="106.695" r="23.25" transform="rotate(-18.6919 172.169 106.695)" stroke="black" stroke-opacity="0.25"/>
<mask id="path-14-inside-6" fill="white">
<path fill-rule="evenodd" clip-rule="evenodd" d="M166.092 95.4207L163.642 104.566L148.6 109.655C146.698 98.358 153.217 87.0317 164.417 83.2425C176.803 79.052 190.238 85.6619 194.486 98.012L188.119 97.5248L166.632 95.0533L166.204 95.004L166.092 95.4207Z"/>
</mask>
<path fill-rule="evenodd" clip-rule="evenodd" d="M166.092 95.4207L163.642 104.566L148.6 109.655C146.698 98.358 153.217 87.0317 164.417 83.2425C176.803 79.052 190.238 85.6619 194.486 98.012L188.119 97.5248L166.632 95.0533L166.204 95.004L166.092 95.4207Z" fill="black" fill-opacity="0.9"/>
<path d="M163.642 104.566L163.962 105.513L164.469 105.341L164.608 104.824L163.642 104.566ZM166.092 95.4207L165.126 95.1619L166.092 95.4207ZM148.6 109.655L147.614 109.821L147.808 110.978L148.92 110.602L148.6 109.655ZM194.486 98.012L194.41 99.0091L195.926 99.1251L195.432 97.6867L194.486 98.012ZM188.119 97.5248L188.005 98.5182L188.024 98.5204L188.043 98.5218L188.119 97.5248ZM166.632 95.0533L166.746 94.0599L166.746 94.0599L166.632 95.0533ZM166.204 95.004L166.318 94.0106L165.461 93.912L165.238 94.7452L166.204 95.004ZM164.608 104.824L167.058 95.6794L165.126 95.1619L162.676 104.307L164.608 104.824ZM148.92 110.602L163.962 105.513L163.321 103.618L148.279 108.708L148.92 110.602ZM164.096 82.2953C152.424 86.2443 145.631 98.0476 147.614 109.821L149.586 109.489C147.764 98.6685 154.01 87.8191 164.737 84.1898L164.096 82.2953ZM195.432 97.6867C191.004 84.8165 177.004 77.9283 164.096 82.2953L164.737 84.1898C176.602 80.1757 189.471 86.5073 193.54 98.3373L195.432 97.6867ZM188.043 98.5218L194.41 99.0091L194.562 97.0149L188.196 96.5277L188.043 98.5218ZM166.518 96.0468L188.005 98.5182L188.234 96.5313L166.746 94.0599L166.518 96.0468ZM166.089 95.9975L166.518 96.0468L166.746 94.0599L166.318 94.0106L166.089 95.9975ZM167.058 95.6794L167.17 95.2628L165.238 94.7452L165.126 95.1619L167.058 95.6794Z" fill="black" fill-opacity="0.25" mask="url(#path-14-inside-6)"/>
<mask id="path-16-inside-7" fill="white">
<path fill-rule="evenodd" clip-rule="evenodd" d="M319.75 203.986H265.675C264.364 203.986 263.3 202.923 263.3 201.611C263.3 200.3 264.364 199.236 265.675 199.236H317.762L331.368 160.247C331.8 159.008 333.154 158.355 334.393 158.787C335.631 159.219 336.285 160.574 335.853 161.812L320.985 204.417L319.75 203.986Z"/>
</mask>
<path fill-rule="evenodd" clip-rule="evenodd" d="M319.75 203.986H265.675C264.364 203.986 263.3 202.923 263.3 201.611C263.3 200.3 264.364 199.236 265.675 199.236H317.762L331.368 160.247C331.8 159.008 333.154 158.355 334.393 158.787C335.631 159.219 336.285 160.574 335.853 161.812L320.985 204.417L319.75 203.986Z" fill="#989EBC"/>
<path d="M319.75 203.986L320.079 203.042L319.919 202.986H319.75V203.986ZM317.762 199.236V200.236H318.472L318.706 199.566L317.762 199.236ZM331.368 160.247L330.424 159.917V159.917L331.368 160.247ZM334.393 158.787L334.722 157.843V157.843L334.393 158.787ZM335.853 161.812L334.908 161.482V161.482L335.853 161.812ZM320.985 204.417L320.656 205.362L321.6 205.691L321.929 204.747L320.985 204.417ZM319.75 202.986H265.675V204.986H319.75V202.986ZM265.675 202.986C264.916 202.986 264.3 202.371 264.3 201.611H262.3C262.3 203.475 263.811 204.986 265.675 204.986V202.986ZM264.3 201.611C264.3 200.852 264.916 200.236 265.675 200.236V198.236C263.811 198.236 262.3 199.747 262.3 201.611H264.3ZM265.675 200.236H317.762V198.236H265.675V200.236ZM318.706 199.566L332.312 160.576L330.424 159.917L316.818 198.907L318.706 199.566ZM332.312 160.576C332.562 159.859 333.346 159.481 334.063 159.731L334.722 157.843C332.962 157.229 331.038 158.158 330.424 159.917L332.312 160.576ZM334.063 159.731C334.78 159.981 335.159 160.765 334.908 161.482L336.797 162.141C337.411 160.382 336.482 158.457 334.722 157.843L334.063 159.731ZM334.908 161.482L320.041 204.088L321.929 204.747L336.797 162.141L334.908 161.482ZM321.315 203.473L320.079 203.042L319.42 204.93L320.656 205.362L321.315 203.473Z" fill="black" fill-opacity="0.25" mask="url(#path-16-inside-7)"/>
<path d="M346.959 172.558C346.855 171.956 347.257 171.381 347.859 171.273C348.461 171.165 349.033 171.566 349.138 172.168L352.022 188.778L349.843 189.168L346.959 172.558Z" fill="#212121"/>
<path d="M353.849 173.005C353.849 172.394 354.344 171.899 354.955 171.899C355.566 171.899 356.061 172.394 356.061 173.005V189.872H353.849V173.005Z" fill="#212121"/>
<path d="M363.067 172.043C363.274 171.467 363.907 171.172 364.481 171.384C365.055 171.596 365.353 172.235 365.146 172.812L359.467 188.657L357.388 187.889L363.067 172.043Z" fill="#212121"/>
<path d="M345 184.682C345 183.578 345.895 182.682 347 182.682H363.352C364.457 182.682 365.352 183.578 365.352 184.682V204.25H345V184.682Z" fill="#5770F5"/>
<path d="M345.5 184.682C345.5 183.854 346.172 183.182 347 183.182H363.352C364.181 183.182 364.852 183.854 364.852 184.682V203.75H345.5V184.682Z" stroke="black" stroke-opacity="0.25"/>
<path d="M345 193.8H365.425" stroke="black"/>
<path d="M231.95 203.304H383.95V207.1C383.95 209.861 381.712 212.1 378.95 212.1H236.95C234.189 212.1 231.95 209.861 231.95 207.1V203.304Z" fill="#3C3D4E"/>
<path d="M232.45 203.804H383.45V207.1C383.45 209.585 381.435 211.6 378.95 211.6H236.95C234.465 211.6 232.45 209.585 232.45 207.1V203.804Z" stroke="black" stroke-opacity="0.25"/>
<path d="M240.817 212.1H259.817L248.417 322.054H240.817V212.1Z" fill="#3C3D4E"/>
<path d="M354.817 212.1H373.817V322.054H366.85L354.817 212.1Z" fill="#3C3D4E"/>
<path d="M125.55 265.054H136.95L130.11 322.054H125.55V265.054Z" fill="#3C3D4E"/>
<path d="M204.4 266.004H215.8V323.004H211.62L204.4 266.004Z" fill="#3C3D4E"/>
<mask id="path-30-inside-8" fill="white">
<path fill-rule="evenodd" clip-rule="evenodd" d="M123.66 155.949C121.451 155.921 119.638 157.689 119.61 159.898L119.01 207.728C118.938 208.029 118.9 208.344 118.9 208.67V216.523L118.749 228.529L118.9 228.531V270.554C118.9 272.763 120.69 274.554 122.9 274.554H218.45C220.659 274.554 222.45 272.763 222.45 270.554V237.16C222.45 235.391 221.288 233.832 219.593 233.327L144.51 210.94L145.197 156.219L123.66 155.949Z"/>
</mask>
<path fill-rule="evenodd" clip-rule="evenodd" d="M123.66 155.949C121.451 155.921 119.638 157.689 119.61 159.898L119.01 207.728C118.938 208.029 118.9 208.344 118.9 208.67V216.523L118.749 228.529L118.9 228.531V270.554C118.9 272.763 120.69 274.554 122.9 274.554H218.45C220.659 274.554 222.45 272.763 222.45 270.554V237.16C222.45 235.391 221.288 233.832 219.593 233.327L144.51 210.94L145.197 156.219L123.66 155.949Z" fill="#3C3D4E"/>
<path d="M119.61 159.898L120.61 159.911L119.61 159.898ZM123.66 155.949L123.672 154.949L123.66 155.949ZM119.01 207.728L119.982 207.961L120.008 207.853L120.01 207.741L119.01 207.728ZM118.9 216.523L119.9 216.536V216.523H118.9ZM118.749 228.529L117.749 228.516L117.737 229.516L118.736 229.529L118.749 228.529ZM118.9 228.531H119.9V227.543L118.912 227.531L118.9 228.531ZM219.593 233.327L219.307 234.285L219.593 233.327ZM144.51 210.94L143.51 210.927L143.501 211.682L144.224 211.898L144.51 210.94ZM145.197 156.219L146.196 156.232L146.209 155.232L145.209 155.219L145.197 156.219ZM120.61 159.911C120.631 158.254 121.991 156.928 123.647 156.949L123.672 154.949C120.911 154.914 118.645 157.125 118.61 159.886L120.61 159.911ZM120.01 207.741L120.61 159.911L118.61 159.886L118.01 207.716L120.01 207.741ZM119.9 208.67C119.9 208.423 119.929 208.186 119.982 207.961L118.037 207.495C117.947 207.872 117.9 208.265 117.9 208.67H119.9ZM119.9 216.523V208.67H117.9V216.523H119.9ZM119.749 228.541L119.9 216.536L117.9 216.51L117.749 228.516L119.749 228.541ZM118.912 227.531L118.762 227.529L118.736 229.529L118.887 229.531L118.912 227.531ZM119.9 270.554V228.531H117.9V270.554H119.9ZM122.9 273.554C121.243 273.554 119.9 272.211 119.9 270.554H117.9C117.9 273.315 120.138 275.554 122.9 275.554V273.554ZM218.45 273.554H122.9V275.554H218.45V273.554ZM221.45 270.554C221.45 272.211 220.106 273.554 218.45 273.554V275.554C221.211 275.554 223.45 273.315 223.45 270.554H221.45ZM221.45 237.16V270.554H223.45V237.16H221.45ZM219.307 234.285C220.578 234.664 221.45 235.833 221.45 237.16H223.45C223.45 234.949 221.997 233 219.878 232.369L219.307 234.285ZM144.224 211.898L219.307 234.285L219.878 232.369L144.796 209.982L144.224 211.898ZM144.197 156.207L143.51 210.927L145.51 210.952L146.196 156.232L144.197 156.207ZM123.647 156.949L145.184 157.219L145.209 155.219L123.672 154.949L123.647 156.949Z" fill="#0F0F0F" fill-opacity="0.25" mask="url(#path-30-inside-8)"/>
<path d="M440 322.054H60" stroke="black" stroke-width="2"/>
</svg>
