<svg width="500" height="400" viewBox="0 0 500 400" fill="none" xmlns="http://www.w3.org/2000/svg">
<rect width="500" height="400" fill="#1E1F2B"/>
<circle cx="86" cy="200" r="40" fill="#F8FBFD"/>
<circle cx="86.0001" cy="200" r="36.3636" fill="#2180F2"/>
<circle cx="86.0001" cy="200" r="36.3636" fill="url(#paint0_linear)"/>
<rect x="85.2727" y="223.273" width="1.45455" height="8.72727" rx="0.727273" fill="#2EC3F9"/>
<rect x="54.7273" y="200.727" width="1.45455" height="8.72727" rx="0.727273" transform="rotate(-90 54.7273 200.727)" fill="#2EC3F9"/>
<rect x="108.545" y="200.727" width="1.45455" height="8.72727" rx="0.727273" transform="rotate(-90 108.545 200.727)" fill="#2EC3F9"/>
<rect x="85.2727" y="167.273" width="1.45455" height="8.72727" rx="0.727273" fill="#2EC3F9"/>
<rect x="107.444" y="176" width="1.45455" height="8.72727" rx="0.727273" transform="rotate(45 107.444 176)" fill="#2EC3F9"/>
<rect x="63.4546" y="177.029" width="1.45455" height="8.72727" rx="0.727273" transform="rotate(-45 63.4546 177.029)" fill="#2EC3F9"/>
<rect x="101.273" y="217.029" width="1.45455" height="8.72727" rx="0.727273" transform="rotate(-45 101.273 217.029)" fill="#2EC3F9"/>
<rect x="69.6257" y="216" width="1.45455" height="8.72727" rx="0.727273" transform="rotate(45 69.6257 216)" fill="#2EC3F9"/>
<path d="M109.889 187.052L88.1597 203.961L84.3807 197.415L109.889 187.052Z" fill="#E5005B"/>
<path d="M62.7274 214.281L84.4567 197.372L88.2357 203.917L62.7274 214.281Z" fill="white"/>
<g opacity="0.2">
<path fill-rule="evenodd" clip-rule="evenodd" d="M86.3442 200.642L88.2289 203.907L109.885 187.051L86.3442 200.642ZM88.1516 203.952L88.1929 203.935L88.1578 203.962L88.1516 203.952Z" fill="black"/>
<path fill-rule="evenodd" clip-rule="evenodd" d="M86.3776 200.648L88.2551 203.9L63.0239 214.131L86.3776 200.648ZM88.3313 203.856L88.2957 203.884L88.3375 203.867L88.3313 203.856Z" fill="black"/>
</g>
<circle cx="304" cy="200" r="40" fill="#F8FBFD"/>
<circle cx="304" cy="200" r="36.3636" fill="#31C15C"/>
<circle cx="304" cy="200" r="36.3636" fill="url(#paint1_linear)"/>
<circle cx="304.5" cy="199.5" r="24" fill="#31C15C"/>
<circle cx="304.5" cy="199.5" r="24" fill="url(#paint2_linear)"/>
<circle cx="304.5" cy="199.5" r="24" stroke="#53D76E" stroke-width="2"/>
<path fill-rule="evenodd" clip-rule="evenodd" d="M283 170.266L304.13 206.864L325.26 170.266C319.304 166.006 312.01 163.5 304.13 163.5C296.25 163.5 288.955 166.006 283 170.266Z" fill="#007AFF"/>
<path fill-rule="evenodd" clip-rule="evenodd" d="M283 170.266L304.13 206.864L325.26 170.266C319.304 166.006 312.01 163.5 304.13 163.5C296.25 163.5 288.955 166.006 283 170.266Z" fill="url(#paint3_linear)"/>
<circle cx="304" cy="201" r="9" fill="#F8FBFD"/>
<circle cx="304" cy="201" r="6" fill="#007AFF"/>
<circle cx="413" cy="200" r="40" fill="#023FC9"/>
<circle cx="413" cy="200" r="40" fill="url(#paint4_linear)"/>
<circle cx="413" cy="200" r="36.3636" fill="#166EF1"/>
<circle cx="413" cy="200" r="36.3636" fill="url(#paint5_linear)"/>
<rect x="416.022" y="173.118" width="5.65706" height="36.8002" rx="2.82853" transform="rotate(32.4305 416.022 173.118)" fill="#EAEAEA"/>
<path d="M391 208C389.343 208 388 206.657 388 205C388 203.343 389.343 202 391 202H413C415.761 202 418 204.239 418 207V208H391Z" fill="#EAEAEA"/>
<path d="M390.741 211.639C391.952 209.733 394.479 209.17 396.385 210.381L397.708 211.222L394.292 216.599C393.454 217.918 391.706 218.308 390.387 217.47C389.069 216.632 388.679 214.884 389.517 213.566L390.741 211.639Z" fill="#EAEAEA"/>
<rect x="424" y="208.3" width="6" height="14" rx="3" transform="rotate(-90 424 208.3)" fill="#EAEAEA"/>
<rect x="401.995" y="176.034" width="5.65706" height="15.2832" rx="2.82853" transform="rotate(-32.43 401.995 176.034)" fill="#EAEAEA"/>
<path d="M414.954 194.83C413.278 192.192 414.058 188.696 416.695 187.021L434.163 214.515C435.001 215.833 434.611 217.581 433.293 218.419C431.974 219.257 430.226 218.867 429.388 217.548L414.954 194.83Z" fill="#EAEAEA"/>
<circle cx="195" cy="199" r="40" fill="#F3F7F8"/>
<rect x="184.344" y="166" width="20.3125" height="30.4688" rx="10.1562" fill="#EB9317"/>
<rect x="184.344" y="201.547" width="20.3125" height="30.4688" rx="10.1562" fill="#76AEDD"/>
<rect opacity="0.72" x="187.391" y="209.816" width="20.3125" height="30.4688" rx="10.1562" transform="rotate(-45 187.391 209.816)" fill="#6CC0A3"/>
<rect opacity="0.72" x="196.531" y="209.672" width="20.3125" height="30.4688" rx="10.1562" transform="rotate(-90 196.531 209.672)" fill="#A1C82F"/>
<rect opacity="0.72" x="166.062" y="182.394" width="20.3125" height="30.4688" rx="10.1562" transform="rotate(-45 166.062 182.394)" fill="#D93B1A"/>
<rect opacity="0.72" x="187.607" y="195.453" width="20.3125" height="30.4688" rx="10.1562" transform="rotate(45 187.607 195.453)" fill="#805DB9"/>
<rect opacity="0.72" x="208.935" y="168.031" width="20.3125" height="30.4688" rx="10.1562" transform="rotate(45 208.935 168.031)" fill="#F7E423"/>
<rect opacity="0.75" x="162" y="209.672" width="20.3125" height="30.4688" rx="10.1562" transform="rotate(-90 162 209.672)" fill="#D267A8"/>
<defs>
<linearGradient id="paint0_linear" x1="86.0001" y1="163.636" x2="86.0001" y2="236.364" gradientUnits="userSpaceOnUse">
<stop stop-color="#22B4F9"/>
<stop offset="1" stop-color="#2180F2" stop-opacity="0"/>
</linearGradient>
<linearGradient id="paint1_linear" x1="304" y1="163.636" x2="304" y2="236.364" gradientUnits="userSpaceOnUse">
<stop stop-color="#3BD667"/>
<stop offset="1" stop-color="#31C15C" stop-opacity="0"/>
</linearGradient>
<linearGradient id="paint2_linear" x1="304.5" y1="174.5" x2="304.5" y2="224.5" gradientUnits="userSpaceOnUse">
<stop stop-color="#3BD667"/>
<stop offset="1" stop-color="#31C15C" stop-opacity="0"/>
</linearGradient>
<linearGradient id="paint3_linear" x1="304.13" y1="163.5" x2="304.13" y2="206.864" gradientUnits="userSpaceOnUse">
<stop stop-color="#53D76E"/>
<stop offset="1" stop-color="#007AFF" stop-opacity="0"/>
</linearGradient>
<linearGradient id="paint4_linear" x1="413" y1="160" x2="413" y2="240" gradientUnits="userSpaceOnUse">
<stop stop-color="#0FAFF3"/>
<stop offset="1" stop-color="#023FC9" stop-opacity="0"/>
</linearGradient>
<linearGradient id="paint5_linear" x1="413" y1="163.636" x2="413" y2="236.364" gradientUnits="userSpaceOnUse">
<stop stop-color="#14AAF8"/>
<stop offset="1" stop-color="#166EF1" stop-opacity="0"/>
</linearGradient>
</defs>
</svg>
