<svg width="500" height="400" viewBox="0 0 500 400" fill="none" xmlns="http://www.w3.org/2000/svg">
<rect width="500" height="400" fill="#FCFCFC"/>
<path d="M216.319 100.399C214.8 102.034 212.766 108.38 211.939 111.348C212.64 113.1 210.966 116.166 210.041 117.48" stroke="black" stroke-width="0.6"/>
<path d="M223.91 88.5746C222.391 89.8593 221.136 91.7376 220.698 92.5162L218.654 97.3337" stroke="black" stroke-width="0.6"/>
<path d="M215.734 100.108C217.953 97.4214 221.039 97.1391 222.304 97.3338C224.64 96.5163 226.294 94.5601 226.829 93.6842C228.464 91.8155 232.766 90.2778 234.713 89.7426" stroke="black" stroke-width="0.6"/>
<path d="M251.355 122.589L253.545 124.049" stroke="black" stroke-width="0.6"/>
<path d="M235.88 116.312C238.8 120.867 244.104 124.438 246.391 125.655L254.713 119.815" stroke="black" stroke-width="0.6"/>
<path d="M230.041 67.6987C230.975 66.8812 232.377 67.3581 232.961 67.6987" stroke="black" stroke-width="0.6"/>
<path d="M233.983 67.1147C235.734 67.9322 239.287 67.1634 240.844 66.6768C241.428 66.3264 241.477 65.0709 241.428 64.487C241.428 63.6695 238.897 63.5624 237.632 63.6111C237.048 63.6111 234.567 64.9736 233.399 65.6549" stroke="black" stroke-width="0.6"/>
<path d="M224.932 63.3192V64.7791" stroke="black" stroke-width="0.6"/>
<path d="M220.114 64.7791C220.114 66.2973 223.034 66.2876 224.494 66.0929" stroke="black" stroke-width="0.6"/>
<path d="M220.552 60.3994H219.238C218.654 61.8009 219.287 63.2218 219.676 63.7571" stroke="black" stroke-width="0.6"/>
<path d="M222.158 60.8374C222.158 61.6549 224.786 63.3192 226.099 64.0491" stroke="black" stroke-width="0.6"/>
<path d="M223.91 61.2754L225.661 63.0272" stroke="black" stroke-width="0.6"/>
<path d="M236.756 62.0052L231.647 64.633" stroke="black" stroke-width="0.6"/>
<path d="M235.442 75.8739C235.442 76.4578 233.204 77.7717 232.085 78.3557C231.034 79.0564 227.657 78.6476 226.099 78.3557C225.515 78.0053 225.856 77.4311 226.099 77.1878" stroke="black" stroke-width="0.6"/>
<path d="M224.348 76.4579C225.749 77.509 230.674 77.6744 232.961 77.6258" stroke="black" stroke-width="0.6"/>
<path d="M223.18 76.6038C225.866 75.7863 232.961 75.6792 236.173 75.7279" stroke="black" stroke-width="0.6"/>
<path d="M229.165 73.5382C229.165 72.8375 230.041 72.9543 230.479 73.1002" stroke="black" stroke-width="0.6"/>
<path d="M225.661 72.2242C225.661 73.0418 226.829 73.6354 227.413 73.8301" stroke="black" stroke-width="0.6"/>
<path d="M253.837 70.6184C255.705 71.5527 267.851 81.5187 273.691 86.3848" stroke="black" stroke-width="0.6"/>
<path d="M250.333 62.1512C257.574 64.9542 269.116 79.7668 273.983 86.8228C275.034 92.4286 279.481 103.757 281.574 108.721C283.326 108.721 288.338 114.852 290.625 117.918C286.888 115.232 282.45 116.604 280.698 117.626L276.902 109.888C272.815 107.669 269.068 89.8885 267.705 81.2753" stroke="black" stroke-width="0.6"/>
<path d="M264.64 105.071C263.822 113.48 270.43 120.643 273.837 123.173C271.968 124.341 271.209 130.083 271.063 132.808C266.859 129.888 263.082 119.232 261.72 114.268" stroke="black" stroke-width="0.6"/>
<path d="M249.165 69.5964L253.253 76.8957L254.859 82.5891" stroke="black" stroke-width="0.6"/>
<path d="M227.267 53.5381L225.516 55.5819C225.516 56.2826 227.073 56.4578 227.851 56.4578" stroke="black" stroke-width="0.6"/>
<path d="M238.07 51.2023L238.362 52.5162L239.53 50.4724" stroke="black" stroke-width="0.6"/>
<circle cx="220.26" cy="54.998" r="0.3" stroke="black" stroke-width="0.567883"/>
<circle cx="219.968" cy="51.4943" r="0.3" stroke="black" stroke-width="0.567883"/>
<circle cx="238.07" cy="58.5015" r="0.3" stroke="black" stroke-width="0.567883"/>
<circle cx="238.946" cy="55.29" r="0.3" stroke="black" stroke-width="0.567883"/>
<path d="M231.209 52.8081L232.669 51.2023" stroke="black" stroke-width="0.6"/>
<path d="M222.304 47.5527C225.34 48.9542 233.399 49.6939 237.048 49.8885" stroke="black" stroke-width="0.6"/>
<path d="M219.384 48.5746C218.917 49.976 219.19 54.2194 219.384 56.1658C222.654 59.0855 233.496 60.0101 238.508 60.1074C239.793 59.7571 240.114 54.122 240.114 51.3483" stroke="black" stroke-width="0.6"/>
<path d="M218.654 74.706C219.238 73.4214 220.844 72.8082 221.574 72.6622" stroke="black" stroke-width="0.6"/>
<path d="M217.632 71.4943C218.216 70.0928 220.114 69.8398 220.99 69.8884" stroke="black" stroke-width="0.6"/>
<path d="M217.194 68.2827C217.895 67.6987 219.919 67.5527 220.844 67.5527" stroke="black" stroke-width="0.6"/>
<path d="M238.216 71.7864C239.618 71.7864 241.039 73.0516 241.574 73.6842" stroke="black" stroke-width="0.6"/>
<path d="M237.194 73.5381C238.245 73.5381 239.676 74.9979 240.26 75.7279" stroke="black" stroke-width="0.6"/>
<path d="M246.099 64.9249C246.683 65.5089 245.661 67.0174 245.078 67.6986" stroke="black" stroke-width="0.6"/>
<path d="M246.975 63.1731C248.727 64.5746 248.581 65.6062 248.289 65.9468L245.661 68.5746" stroke="black" stroke-width="0.6"/>
<path d="M248.143 62.1512L248.873 63.6111" stroke="black" stroke-width="0.6"/>
<path d="M222.012 145.217H224.056C225.107 146.268 227.121 151.105 227.997 153.392" stroke="black" stroke-width="0.6"/>
<path d="M229.019 283.319C229.953 287.991 229.408 291.884 229.019 293.246" stroke="black" stroke-width="0.6"/>
<path d="M244.348 275.874L249.603 302.297" stroke="black" stroke-width="0.6"/>
<path d="M238.07 269.159C240.64 270.21 244.883 274.852 246.683 277.042" stroke="black" stroke-width="0.6"/>
<path d="M233.691 237.188C235.91 241.275 238.216 253.781 239.092 259.524C241.778 261.275 242.937 268.721 243.18 272.224" stroke="black" stroke-width="0.6"/>
<path d="M229.165 211.64C230.917 212.925 230.674 216.944 230.333 218.794C231.851 221.129 232.717 230.57 232.961 234.998" stroke="black" stroke-width="0.6"/>
<path d="M231.939 211.202C238.012 211.202 245.467 214.414 248.435 216.02" stroke="black" stroke-width="0.6"/>
<path d="M209.165 176.458C209.165 179.027 214.421 183.465 217.048 185.363C218.683 185.363 222.693 187.212 224.494 188.137" stroke="black" stroke-width="0.6"/>
<path d="M211.793 175.874C212.61 177.976 216.124 181.908 217.778 183.611L226.537 186.823M226.537 186.823V174.998M226.537 186.823C226.537 189.626 227.316 196.555 227.705 199.67C228.406 203.874 227.997 207.65 227.705 209.013" stroke="black" stroke-width="0.6"/>
<path d="M233.545 172.224C235.997 172.224 239.627 170.959 241.136 170.326" stroke="black" stroke-width="0.6"/>
<path d="M222.742 173.246H229.457" stroke="black" stroke-width="0.6"/>
<path d="M220.552 118.064C218.216 119.348 217.048 117.334 216.756 116.166C215.355 115.582 211.598 116.604 209.895 117.188C206.859 120.691 204.64 134.803 203.91 141.421" stroke="black" stroke-width="0.6"/>
<path d="M236.319 116.604H221.866" stroke="black" stroke-width="0.6"/>
<path d="M237.632 129.013L240.406 139.086" stroke="black" stroke-width="0.6"/>
<path d="M238.362 102.005C235.092 108.662 235.929 121.713 236.756 127.407" stroke="black" stroke-width="0.6"/>
<path d="M239.238 86.2389C238.07 86.5893 231.258 92.6136 227.997 95.582C227.647 97.3338 225.224 99.9129 224.056 100.983C221.72 102.268 220.065 105.509 219.53 106.969C219.53 108.604 217.584 109.694 216.61 110.035C215.676 110.035 212.231 114.803 210.625 117.188" stroke="black" stroke-width="0.6"/>
<path d="M227.559 84.6329L227.267 92.3702" stroke="black" stroke-width="0.6"/>
<path d="M223.764 92.3702V87.4067C223.413 86.2388 224.98 84.5843 225.808 83.9031" stroke="black" stroke-width="0.6"/>
<path d="M231.501 84.6329V90.9103" stroke="black" stroke-width="0.6"/>
<path d="M235.443 83.0272V88.8666" stroke="black" stroke-width="0.6"/>
<path d="M239.384 82.2972C238.683 81.1293 237.535 81.2267 237.048 81.4213" stroke="black" stroke-width="0.6"/>
<path d="M242.742 82.2972V78.6476H240.844L239.238 80.8374V86.3848C239.939 85.4505 241.087 85.1196 241.574 85.0709" stroke="black" stroke-width="0.6" stroke-linejoin="round"/>
<path d="M238.362 100.253C237.311 105.509 242.693 110.132 245.516 111.786C247.267 112.837 251.793 109.305 253.837 107.407" stroke="black" stroke-width="0.6"/>
<path d="M255.734 100.253C254.333 104.925 249.311 107.942 246.975 108.867C244.289 109.45 241.671 104.244 240.698 101.567" stroke="black" stroke-width="0.6"/>
<path d="M249.895 83.0272C251.413 83.6112 255.978 85.509 258.07 86.3849" stroke="black" stroke-width="0.6"/>
<path d="M250.917 96.1658L251.501 95.4359" stroke="black" stroke-width="0.6"/>
<path d="M249.019 91.4944L249.457 91.0564" stroke="black" stroke-width="0.6"/>
<path d="M251.209 94.2681H251.939" stroke="black" stroke-width="0.6"/>
<path d="M248.581 90.4724H249.165" stroke="black" stroke-width="0.6"/>
<path d="M247.559 92.2242H248.143" stroke="black" stroke-width="0.6"/>
<path d="M246.829 94.122L247.559 93.5381" stroke="black" stroke-width="0.6"/>
<path d="M247.559 91.3484L248.289 91.0564" stroke="black" stroke-width="0.6"/>
<path d="M254.713 87.6987V89.5965" stroke="black" stroke-width="0.6"/>
<path d="M250.625 84.4871L250.333 86.5309" stroke="black" stroke-width="0.6"/>
<path d="M241.282 94.4141C241.983 94.7644 242.45 96.2145 242.596 96.8958" stroke="black" stroke-width="0.6"/>
<path d="M242.45 91.9323L244.786 97.3337" stroke="black" stroke-width="0.6"/>
<path d="M244.494 88.2827C244.494 89.217 245.662 89.1586 246.245 89.0126" stroke="black" stroke-width="0.6"/>
<path d="M243.18 86.5309L246.099 86.2389" stroke="black" stroke-width="0.6"/>
<path d="M246.829 101.859C247.764 102.21 248.387 102.589 248.581 102.735C248.581 103.086 247.9 103.854 247.559 104.195" stroke="black" stroke-width="0.6"/>
<path d="M243.472 102.005C244.289 100.837 245.467 102.005 245.953 102.735" stroke="black" stroke-width="0.6"/>
<path d="M240.698 96.0198C243.151 96.3701 243.764 98.9881 243.764 100.253C242.829 102.239 241.331 102.054 240.698 101.713M240.698 101.713V98.9395L239.968 98.5015L239.822 100.545L240.698 101.713Z" stroke="black" stroke-width="0.6"/>
<path d="M243.91 82.4433C244.844 81.2754 246.148 81.9567 246.683 82.4433C247.267 83.4944 246.44 84.8277 245.953 85.363C245.369 86.6477 243.764 85.509 243.034 84.7791H242.304C242.304 85.947 240.844 90.9105 240.114 93.2462L237.486 95.582C236.785 96.1659 237 98.0638 237.194 98.9397C237.194 100.108 238.849 100.4 239.676 100.4" stroke="black" stroke-width="0.6"/>
<path d="M245.954 85.3629C246.421 86.6476 246.148 90.7644 245.954 92.6622L243.91 100.107C242.975 101.509 243.521 102.735 243.91 103.173C244.611 103.407 245.37 103.27 245.662 103.173" stroke="black" stroke-width="0.6"/>
<path d="M252.523 84.925C251.589 82.8228 248.338 82.5893 246.829 82.7352" stroke="black" stroke-width="0.6"/>
<path d="M255.734 89.4504C259.355 93.7716 256.562 98.1609 254.713 99.8154C254.245 99.465 252.766 101.032 252.085 101.859C251.851 102.677 250.82 102.2 250.333 101.859" stroke="black" stroke-width="0.6"/>
<path d="M252.377 84.925C254.012 84.925 255.199 87.0662 255.589 88.1367C256.056 89.655 255.297 91.0078 254.859 91.4944C254.508 91.8448 254.031 94.4628 253.837 95.728C254.304 97.0126 250.82 101.129 249.019 103.027C248.318 105.246 246.489 103.952 245.661 103.027C247.88 100.925 249.506 96.0199 250.041 93.8302C249.574 93.0126 251.112 88.4287 251.939 86.2389" stroke="black" stroke-width="0.6"/>
<path d="M257.486 94.1221C257.837 94.9396 257.632 96.7011 257.486 97.4797C257.486 98.8812 253.009 102.833 250.771 104.633C249.369 105.217 247.17 104.876 246.245 104.633L244.786 103.465" stroke="black" stroke-width="0.6"/>
<path d="M257.194 82.8812L256.756 82.1512L255.88 82.8812L256.464 83.6111" stroke="black" stroke-width="0.6"/>
<path d="M262.158 88.4286C263.326 89.0125 263.228 90.4237 263.034 91.0563" stroke="black" stroke-width="0.6"/>
<path d="M256.172 84.195C256.172 83.2607 257.146 82.9298 257.632 82.8811L262.304 88.4285C261.72 88.4285 260.99 89.2071 260.698 89.5964" stroke="black" stroke-width="0.6"/>
<path d="M259.384 89.0126C258.45 85.0417 253.934 82.5892 251.793 81.8593H248.435C248.435 80.925 246.391 80.4967 245.37 80.3994" stroke="black" stroke-width="0.6"/>
<path d="M262.012 91.2023C260.961 89.2169 257.097 88.2339 255.297 87.9906" stroke="black" stroke-width="0.6"/>
<path d="M250.041 112.808C252.377 118.297 255.005 120.059 256.026 120.253C257.778 119.319 258.995 117.042 259.384 116.02C261.953 116.02 264.056 105.509 264.786 100.253C266.771 100.253 267.073 95.1926 266.975 92.6621C266.975 90.4432 261.914 91.0563 259.384 91.6402M259.384 91.6402C260.318 92.4578 261.039 93.9273 261.282 94.56L259.384 91.6402ZM259.384 91.6402C258.917 90.7059 256.562 88.9152 255.442 88.1366" stroke="black" stroke-width="0.6"/>
<path d="M203.91 334.56C204.494 332.925 213.107 327.163 217.34 324.487C218.391 324.954 219.919 319.134 220.552 316.166C220.552 315.231 221.915 314.609 222.596 314.414V307.261C222.129 307.261 221.915 302.395 221.866 299.961" stroke="black" stroke-width="0.6"/>
<path d="M192.377 337.188C193.204 336.506 194.975 335.348 195.442 336.166C196.026 335.582 197.486 334.56 198.654 335.144L198.362 338.94C197.632 339.232 196.026 339.815 195.442 339.815C193.837 339.67 190.975 338.94 192.377 337.188ZM192.377 337.188C191.988 337.101 191.46 336.754 192.085 336.022M198.8 333.246C196.931 333.013 193.739 334.803 192.377 335.728C192.26 335.832 192.163 335.93 192.085 336.022M198.8 332.224C196.815 331.64 196.026 331.981 195.88 332.224C195.88 332.691 194.81 333.295 194.275 333.538C194.062 333.538 193.868 333.571 193.691 333.629M192.085 336.022C192.168 335.31 192.605 333.986 193.691 333.629M199.238 331.056C197.918 330.196 196.732 330.419 195.781 331.056M193.691 333.629C194.062 332.821 194.796 331.717 195.781 331.056M199.53 330.034C198.245 329.451 196.495 330.472 195.781 331.056M191.501 335.582C191.647 335.29 192.036 335.144 192.231 335.144" stroke="black" stroke-width="0.6"/>
<path d="M204.786 328.867L203.998 329.742M203.998 329.742C204.079 329.149 204.193 328.65 204.348 328.283C202.936 328.526 199.968 329.217 199.384 330.034C198.849 332.808 197.953 338.852 198.654 340.837H204.348C204.023 338.116 203.589 332.737 203.998 329.742Z" stroke="black" stroke-width="0.6"/>
<path d="M232.961 336.896C233.661 339.465 232.669 341.567 232.085 342.297L230.041 343.173V342.297H228.727V343.611H224.202C224.202 342.56 223.326 342.881 222.888 343.173H219.092V341.713H216.172L215.734 342.881L213.983 342.297V343.173L211.209 342.297L209.895 343.611L207.121 342.297L206.099 344.341L203.18 343.173L201.72 344.341L199.238 343.173L197.632 344.341L195.88 342.881L194.129 343.611C191.559 343.611 190.722 340.107 190.625 338.356" stroke="black" stroke-width="0.6"/>
<path d="M219.53 306.093C219.53 307.377 218.946 307.212 218.654 306.969V313.684C224.961 316.02 231.988 314.657 234.713 313.684V306.093" stroke="black" stroke-width="0.6"/>
<path d="M219.238 297.334L217.924 298.356V304.487C220.26 308.925 230.479 307.115 235.297 305.655V301.275" stroke="black" stroke-width="0.6"/>
<path d="M218.216 354.998C218.917 355.115 219.384 355.533 219.53 355.728" stroke="black" stroke-width="0.6"/>
<path d="M219.968 355.436C220.669 355.903 220.747 356.215 220.698 356.312C220.464 356.662 220.211 356.944 220.114 357.042C219.764 357.042 219.384 356.75 219.238 356.604" stroke="black" stroke-width="0.6"/>
<path d="M226.537 359.377C227.472 359.728 227.803 360.205 227.851 360.399C227.501 360.399 227.121 360.983 226.975 361.275" stroke="black" stroke-width="0.6" stroke-linejoin="round"/>
<path d="M224.056 358.064C224.873 358.297 225.272 358.745 225.37 358.94L224.932 360.107" stroke="black" stroke-width="0.6" stroke-linejoin="round"/>
<path d="M221.428 356.75C222.713 357.334 222.839 357.966 222.742 358.21C222.275 358.677 221.087 358.404 220.552 358.21" stroke="black" stroke-width="0.6"/>
<path d="M223.326 351.348C220.99 351.932 220.309 353.149 220.26 353.684C218.158 353.918 217.827 355.728 217.924 356.604C218.391 357.071 218.898 356.993 219.092 356.896" stroke="black" stroke-width="0.6"/>
<path d="M224.202 353.392L224.056 353.13C223.961 353.183 223.902 353.283 223.902 353.392H224.202ZM222.742 353.684L222.772 353.385L222.757 353.384H222.742V353.684ZM221.428 354.852V355.152H221.594L221.682 355.011L221.428 354.852ZM219.092 357.188L218.793 357.169L218.785 357.29L218.864 357.383L219.092 357.188ZM225.37 352.4L224.056 353.13L224.347 353.654L225.661 352.924L225.37 352.4ZM223.902 353.392C223.902 353.309 223.969 353.295 223.912 353.322C223.858 353.348 223.76 353.373 223.62 353.39C223.345 353.422 223.003 353.409 222.772 353.385L222.712 353.983C222.967 354.008 223.355 354.024 223.689 353.986C223.852 353.967 224.028 353.932 224.172 353.863C224.313 353.795 224.502 353.651 224.502 353.392H223.902ZM222.742 353.384C222.545 353.384 222.363 353.464 222.214 353.558C222.062 353.653 221.917 353.78 221.787 353.911C221.529 354.174 221.304 354.484 221.174 354.693L221.682 355.011C221.795 354.83 221.994 354.557 222.215 354.332C222.325 354.22 222.434 354.128 222.533 354.066C222.636 354.001 222.705 353.984 222.742 353.984V353.384ZM221.428 354.552C220.447 354.552 219.79 354.994 219.38 355.55C218.98 356.092 218.82 356.735 218.793 357.169L219.392 357.206C219.413 356.862 219.545 356.337 219.863 355.906C220.171 355.488 220.657 355.152 221.428 355.152V354.552ZM218.864 357.383C219.285 357.874 219.782 357.995 220.227 357.918C220.649 357.845 221.001 357.6 221.202 357.4L220.778 356.976C220.638 357.116 220.392 357.28 220.125 357.326C219.882 357.368 219.6 357.319 219.32 356.992L218.864 357.383Z" fill="black"/>
<path d="M231.939 360.837C229.953 360.37 228.776 360.643 228.435 360.837C228.085 361.421 227.024 361.373 226.537 361.275L225.661 360.107M225.661 360.107C226.946 358.706 228.046 358.55 228.435 358.648C229.019 358.648 230.041 357.869 230.479 357.48L229.019 355.582C228.552 355.582 227.949 356.069 227.705 356.312C225.136 355.728 223.52 358.307 223.034 359.67C223.034 360.37 224.786 360.253 225.661 360.107ZM227.267 353.976C222.946 353.976 220.795 357.09 220.26 358.648" stroke="black" stroke-width="0.6"/>
<path d="M220.26 358.648C220.727 359.465 222.401 359.475 223.18 359.378" stroke="black" stroke-width="0.6"/>
<path d="M201.136 179.377C200.552 181.363 200.406 185.947 200.406 187.991C200.406 189.392 200.114 190.618 199.968 191.056C198.45 193.626 197.973 196.798 197.924 198.064M197.924 198.064C200.494 198.064 202.596 199.621 203.326 200.399C202.275 198.531 199.287 198.064 197.924 198.064ZM197.924 198.064C198.391 199.115 199.773 199.669 200.406 199.815C199.472 204.954 200.017 211.202 200.406 213.684C200.99 214.969 201.428 219.085 201.574 220.983L205.808 224.633H206.829" stroke="black" stroke-width="0.6"/>
<path d="M214.859 55.7279C215.443 64.8374 216.464 67.6987 216.902 67.9907" stroke="black" stroke-width="0.6"/>
<path d="M243.764 61.5673V71.2024M243.764 71.2024L245.951 64.3411M243.764 71.2024C245.001 71.2024 246.91 70.5308 248.273 68.4287M243.764 71.2024C243.91 71.397 243.851 72.3703 242.45 74.706M246.975 61.1294L245.951 64.3411M245.951 64.3411C248.289 61.4214 249.554 60.6914 249.895 60.6914C249.942 61.8244 249.905 62.8429 249.8 63.7571M249.8 63.7571L250.479 71.2024L248.273 68.4287M249.8 63.7571C249.567 65.7933 248.997 67.3126 248.273 68.4287M248.273 68.4287L248.727 76.4579L246.975 73.3922L246.537 78.3557L244.64 75.29L242.45 78.3557V74.706M242.45 74.706C237.077 84.1659 230.674 85.2656 228.143 84.633C223.939 84.633 220.163 78.307 218.8 75.144C216.931 71.9907 216.367 62.2486 216.318 57.7717" stroke="black" stroke-width="0.6"/>
<path d="M239.384 47.8447L238.723 49.4505M238.723 49.4505L237.34 52.8082L236.61 45.9468L223.034 44.195L221.282 52.8082L219.822 47.8447L214.567 54.1751M238.723 49.4505L244.202 56.8958V49.4505M244.202 45.9468V49.4505M244.202 49.4505L248.581 56.8958L247.9 51.9323M247.559 49.4505L247.9 51.9323M247.9 51.9323C249.809 52.8608 250.555 54.2678 250.771 55.423M214.567 54.1751L213.399 55.5819L214.567 49.4505L211.063 51.9323L215.443 44.195L211.063 41.8593L216.318 39.5235L213.399 31.4943L219.822 33.976L224.494 25.2169L227.559 30.6184C232.114 25.2461 235.978 23.7084 237.34 23.6111L237.924 31.9323L247.9 28.1366L245.808 36.4578C249.778 35.8739 254.567 37.3824 256.464 38.2096L252.669 41.8593L257.194 44.195L251.647 46.8228L255.589 51.9323L251.647 52.8082L252.669 55.5819L250.771 55.423M214.567 54.1751C214.567 58.1477 221.37 65.2169 250.333 60.5454L250.771 56.8958C250.853 56.5345 250.881 56.0114 250.771 55.423" stroke="black" stroke-width="0.6"/>
<path d="M224.932 84.1949H222.596V87.4066C220.26 89.7424 219.481 92.3701 219.384 93.392C217.516 94.2095 215.783 98.4042 215.151 100.399C215.151 101.45 213.691 103.173 212.961 103.903C209.924 106.472 208.192 113.83 207.705 117.188C202.45 121.976 200.163 136.604 199.676 143.319C192.085 150.56 195.151 160.545 197.632 164.633C196.698 168.954 196.854 170.521 197.048 170.764C197.048 171.582 196.756 173.538 196.61 174.414V177.48C198.362 179.231 201.623 179.621 202.596 179.231" stroke="black" stroke-width="0.6"/>
<path d="M198.654 177.626C200.196 177.179 201.705 176.757 203.18 176.358M247.705 170.309C249.222 170.461 250.389 170.675 251.209 170.91L247.705 170.309ZM247.705 170.309C247.121 171.608 247.949 172.808 248.435 173.246V176.166C255.442 195.67 252.231 210.667 249.749 215.728L251.793 217.626V221.567L249.749 226.823C249.399 227.991 249.992 229.84 250.333 230.618C252.786 242.181 252.328 257.528 251.793 263.757M247.705 170.309C240.596 169.596 225.815 170.239 203.18 176.358M251.793 263.757L247.121 261.567M251.793 263.757L255.005 266.093L254.567 273.684C260.756 287.582 262.109 296.896 262.012 299.816C256.99 303.786 243.18 304.39 236.902 304.195C233.282 299.056 231.209 288.721 230.625 284.195C224.552 275.786 221.087 261.908 220.114 256.02C213.107 241.655 207.657 223.173 205.807 215.728C201.953 197.626 202.45 181.939 203.18 176.358" stroke="black" stroke-width="0.6"/>
<path d="M254.859 120.107L250.771 130.034M245.661 142.443L250.771 130.034M250.771 130.034C253.574 137.976 253.983 142.784 253.837 144.195C253.837 147.465 255.394 150.326 256.172 151.348V154.706C256.172 156.107 253.545 158.307 252.231 159.232C254.917 160.399 253.837 168.185 252.961 171.932L248.435 173.83" stroke="black" stroke-width="0.6"/>
<path d="M232.085 292.808C220.873 295.261 215.832 293.83 214.713 292.808C212.494 291.173 213.009 279.475 213.545 273.83C214.479 273.013 213.934 271.056 213.545 270.18C212.26 267.728 212.036 256.02 212.085 250.472C209.516 244.049 207.316 228.137 206.537 220.983C205.486 220.049 204.445 216.701 204.056 215.144C204.406 214.443 204.202 212.419 204.056 211.494L203.034 208.137" stroke="black" stroke-width="0.6"/>
<path d="M241.282 304.487L242.422 308.137M256.902 302.735V304.998M256.902 304.998V307.261C254.469 308.915 248.231 311.611 242.742 309.158L242.422 308.137M256.902 304.998C260.172 306.808 259.627 312.419 258.946 314.998C258.752 315.083 258.557 315.164 258.362 315.242M241.282 315.874C241.048 315.173 240.99 313.733 240.99 313.1C240.639 312.399 240.455 310.18 240.406 309.158C241.107 308.458 242.042 308.185 242.422 308.137M241.282 315.874C244.076 316.868 251.303 318.084 258.362 315.242M241.282 315.874C241.184 316.166 241.194 316.866 242.012 317.334C241.671 318.891 241.276 323.056 242.422 327.261M258.362 315.242C258.829 317.383 258.946 322.978 258.946 325.509M258.946 325.509V326.385C252.99 331.874 245.448 329.256 242.422 327.261M258.946 325.509C260.231 326.21 260.26 331.056 260.114 333.392M242.422 327.261C241.556 327.65 239.939 328.896 240.406 330.764C240.406 331.397 240.523 332.954 240.99 334.122C243.715 335.63 251.355 337.596 260.114 333.392M260.114 333.392C259.18 334.677 259.335 335.971 259.53 336.458C260.464 340.312 259.919 348.38 259.53 351.932M259.53 351.932C254.742 354.735 250.333 354.949 248.727 354.706C236.347 361.48 227.413 362.589 224.493 362.297C220.639 362.297 218.508 358.696 217.924 356.896C215.472 359.582 216.902 362.492 217.924 363.611C219.559 365.947 223.374 366.433 225.077 366.385L226.391 365.801L228.873 366.385L230.479 365.363L233.107 365.801L234.129 364.779H237.34L238.362 363.173H240.99L242.158 361.567C243.092 362.151 244.883 361.227 245.661 360.691H247.413C247.997 359.523 249.116 359.426 249.603 359.523V361.129H252.961V359.961C253.661 358.91 254.226 359.523 254.42 359.961C257.691 360.195 259.189 358.015 259.53 356.896V351.932Z" stroke="black" stroke-width="0.6"/>
<path d="M241.136 334.122C236.581 339.378 235.151 342.93 235.005 344.049C232.552 344.983 230.479 347.261 229.749 348.283M229.749 348.283C235.472 352.253 237.584 357.431 237.924 359.524L232.085 361.421C231.267 356.399 225.905 352.614 223.326 351.348C224.494 348.896 228.095 348.283 229.749 348.283ZM259.822 345.947C256.202 348.283 253.058 348.477 251.939 348.283C251.355 350.268 251.696 353.295 251.939 354.56" stroke="black" stroke-width="0.6"/>
<path d="M218.8 294.268L219.53 298.21C223.151 301.947 230.674 299.767 233.983 298.21" stroke="black" stroke-width="0.6"/>
<path d="M218.654 312.954C216.318 312.954 216.221 317.334 216.464 319.524C224.056 323.962 231.695 322.541 234.567 321.275V313.83" stroke="black" stroke-width="0.6"/>
<path d="M232.961 322.005C233.545 326.794 233.204 334.025 232.961 337.042C230.975 340.429 222.207 339.426 218.07 338.502C216.669 337.334 209.798 339.378 206.537 340.545C203.618 341.363 195.88 340.594 192.377 340.107C189.807 339.29 190.722 336.75 191.501 335.582" stroke="black" stroke-width="0.6"/>
<path d="M216.464 319.377C215.18 319.728 213.399 322.151 212.669 323.319C212.202 324.721 209.749 325.752 208.581 326.093C206.829 326.677 205.223 328.283 204.64 329.012" stroke="black" stroke-width="0.6"/>
<path d="M204.348 328.429C204.581 328.312 204.932 328.38 205.078 328.429" stroke="black" stroke-width="0.6"/>
<path d="M195.443 336.312C195.443 337.246 193.204 337.966 192.085 338.21" stroke="black" stroke-width="0.6"/>
<path d="M193.399 335.144C193.749 335.377 193.545 336.117 193.399 336.458" stroke="black" stroke-width="0.6"/>
<path d="M193.545 333.684C193.895 334.385 193.496 334.949 193.253 335.144" stroke="black" stroke-width="0.6"/>
<path d="M224.202 339.524C224.202 337.421 225.078 335.144 225.516 334.268C226.8 335.436 231.112 333.295 233.107 332.078" stroke="black" stroke-width="0.6"/>
<path d="M200.698 338.356C200.211 337.626 199.676 336.107 201.428 335.874C201.866 335.971 202.742 336.37 202.742 337.188C202.596 337.82 201.983 338.94 200.698 338.356Z" stroke="black" stroke-width="0.6"/>
<path d="M210.333 174.706C218.275 176.341 238.362 173.538 247.413 171.932" stroke="black" stroke-width="0.6"/>
<path d="M261.136 90.0344C261.837 89.1001 262.693 90.0344 263.034 90.6184" stroke="black" stroke-width="0.6"/>
<path d="M246.099 82.1512C246.45 80.2826 244.396 80.3994 243.326 80.6914C242.508 81.2753 242.304 83.6597 242.304 84.779" stroke="black" stroke-width="0.6"/>
<path d="M255.151 84.3411C254.683 83.5235 251.258 82.8325 249.603 82.5892" stroke="black" stroke-width="0.6"/>
<path d="M255.297 87.2607C255.764 86.4432 258.022 87.796 259.092 88.5746" stroke="black" stroke-width="0.6"/>
<path d="M247.559 111.932C248.377 112.983 253.447 113.538 255.88 113.684" stroke="black" stroke-width="0.6"/>
<path d="M240.114 113.83C240.114 117.918 249.36 119.037 253.983 119.086" stroke="black" stroke-width="0.6"/>
<path d="M245.077 80.5455V77.7717H243.18" stroke="black" stroke-width="0.6"/>
<path d="M230.479 105.217C229.078 105.217 228.046 107.845 227.705 109.159C226.421 112.078 222.498 116.312 220.698 118.064C217.662 118.998 208.435 134.122 204.202 141.567" stroke="black" stroke-width="0.6"/>
<path d="M204.202 141.275C201.983 143.144 202.109 145.363 202.45 146.239C201.165 149.392 199.773 151.056 199.238 151.494C195.501 154.531 198.362 160.448 200.26 163.027V164.779C204.231 165.713 211.355 164 214.421 163.027C219.443 161.859 226.537 162.54 229.457 163.027L239.384 160.253L243.034 154.706L240.844 155.728" stroke="black" stroke-width="0.6"/>
<path d="M215.88 206.093C216.815 208.078 224.639 209.84 228.435 210.472" stroke="black" stroke-width="0.6"/>
<path d="M210.041 157.334C213.662 155.932 219.919 147.893 222.596 144.049" stroke="black" stroke-width="0.6"/>
<path d="M238.07 69.5965C239.588 69.1293 241.72 70.0831 242.596 70.6184" stroke="black" stroke-width="0.6"/>
<path d="M222.45 48.1367C224.435 49.7718 233.107 50.4725 237.194 50.6185" stroke="black" stroke-width="0.6"/>
<path d="M230.625 51.7863C230.158 51.2023 228.679 51.543 227.997 51.7863C226.829 52.3702 227.316 54.9493 227.705 56.1659C228.523 57.5673 229.992 57.0418 230.625 56.6038C231.209 55.7863 230.868 54.414 230.625 53.8301C229.807 52.6622 229.019 53.3435 228.727 53.8301C228.377 55.6987 229.36 55.2899 229.895 54.852" stroke="black" stroke-width="0.6"/>
<path d="M249.749 64.9249C255.004 70.414 257.097 78.6962 257.486 82.1512" stroke="black" stroke-width="0.6"/>
<path d="M239.968 160.107C243.939 160.107 249.895 159.329 252.377 158.94" stroke="black" stroke-width="0.6"/>
<path d="M224.056 75.582C222.771 76.0491 223.034 77.5284 223.326 78.2097C224.727 79.9615 230.041 80.2048 232.523 80.1075C234.158 80.1075 235.637 78.2584 236.172 77.3338C237.224 75.9323 235.637 74.9007 234.713 74.5601" stroke="black" stroke-width="0.6"/>
<path d="M226.245 62.5892C225.311 62.5892 225.856 64.1464 226.245 64.925V67.6987" stroke="black" stroke-width="0.6"/>
<path d="M239.384 62.0052C238.45 62.9396 234.226 64.5357 232.231 65.2169" stroke="black" stroke-width="0.6"/>
<path d="M236.172 64.341C235.705 65.3921 236.464 65.8495 236.902 65.9469C238.421 66.2972 239.092 64.633 239.238 63.7571" stroke="black" stroke-width="0.6"/>
<path d="M222.304 61.4214C221.136 61.8885 221.233 62.9786 221.428 63.4652C222.479 64.7499 223.618 63.6112 224.056 62.8812" stroke="black" stroke-width="0.6"/>
<path d="M237.194 63.9031C236.961 64.487 237.389 64.633 237.632 64.633C238.099 64.633 238.119 64.0491 238.07 63.7571" stroke="black" stroke-width="0.6"/>
<path d="M222.726 61.8593C222.142 62.3264 222.288 62.7352 222.434 62.8812C223.018 63.1147 223.262 62.5892 223.31 62.2972" stroke="black" stroke-width="0.6"/>
<path d="M232.961 65.3629L231.063 66.3848" stroke="black" stroke-width="0.6"/>
</svg>
