<svg width="500" height="400" viewBox="0 0 500 400" fill="none" xmlns="http://www.w3.org/2000/svg">
<rect width="500" height="400" fill="#FCFCFC"/>
<path d="M141.146 349.605C141.146 350.983 142.676 351.837 143.441 352.092C143.594 352.857 144.142 353.941 144.397 354.387C145.162 354.999 145.863 354.642 146.118 354.387C146.578 355.305 147.457 355.662 147.84 355.726L149.561 353.813V355.917C149.867 356.376 150.836 357.128 151.282 357.447C150.364 357.6 144.78 355.981 142.102 355.152L140.189 351.901V349.605H141.146Z" fill="black" stroke="black" stroke-width="0.5"/>
<path d="M152.239 357.256C151.168 357.562 150.135 356.491 149.752 355.917V354.196V353.622C149.399 353.622 148.72 354.379 148.222 355.018C148.074 355.208 147.942 355.388 147.84 355.535C146.922 355.535 146.31 354.642 146.119 354.196C144.588 355.573 143.823 353.239 143.632 351.901C142.676 351.837 140.878 351.212 141.337 349.223C140.7 349.223 139.348 348.993 139.042 348.075L139.425 346.163L141.337 340.425L143.632 338.895H147.266L149.752 341.573L151.283 351.136L155.873 348.458L156.255 349.032C156.801 350.396 154.448 354.193 152.802 356.491C152.601 356.77 152.412 357.028 152.239 357.256Z" fill="#FCEDC6"/>
<path d="M146.119 354.196C146.31 354.642 146.922 355.535 147.84 355.535C147.942 355.388 148.074 355.208 148.222 355.018M146.119 354.196C144.588 355.573 143.823 353.239 143.632 351.901M146.119 354.196C146.31 354.004 146.482 353.733 146.631 353.431M149.752 347.31C149.306 347.757 148.452 348.84 148.605 349.606C148.222 349.924 147.419 350.753 147.266 351.518C147.179 351.956 146.958 352.767 146.631 353.431M143.632 351.901C142.676 351.837 140.878 351.212 141.337 349.223M143.632 351.901L143.908 351.518M147.266 344.442L146.119 346.737V348.458L143.908 351.518M144.971 342.529L144.206 345.015C143.594 345.321 143.058 346.928 142.867 347.693C143.02 348.305 141.911 348.968 141.337 349.223M141.337 349.223C140.7 349.223 139.348 348.993 139.042 348.075L139.425 346.163L141.337 340.425L143.632 338.895H147.266L149.752 341.573L151.283 351.136L155.873 348.458L156.255 349.032C156.801 350.396 154.448 354.193 152.802 356.491M141.337 349.223C140.891 348.649 140.266 347.234 141.337 346.163M143.632 348.649L142.485 349.606C142.485 350.524 143.434 351.263 143.908 351.518M146.119 350.371C145.507 350.83 145.099 351.582 144.971 351.901C144.971 352.819 146.078 353.303 146.631 353.431M147.649 353.048C147.343 353.507 147.139 354.004 147.075 354.196C147.075 354.502 147.84 354.871 148.222 355.018M148.222 355.018C148.72 354.379 149.399 353.622 149.752 353.622V354.196V355.917C150.135 356.491 151.168 357.562 152.239 357.256C152.412 357.028 152.601 356.77 152.802 356.491M151.856 354.196C151.244 354.502 150.964 355.216 150.9 355.535C150.9 355.994 152.168 356.363 152.802 356.491" stroke="black" stroke-width="0.5"/>
<path d="M154.916 325.124L146.692 336.217C148.222 336.217 149.88 339.022 150.517 340.425L152.621 349.223L158.168 342.338C159.698 339.277 160.845 333.986 161.037 331.627C161.037 331.015 156.956 327.037 154.916 325.124Z" fill="#FCEDC6" stroke="black" stroke-width="0.5"/>
<path d="M292.623 280.37V276.353C292.623 273.752 296.448 264.177 298.36 259.714C299.431 264.763 303.014 267.683 304.672 268.512L303.716 275.397L302.186 286.108C300.961 283.047 296.958 280.625 295.109 279.796C294.726 279.625 293.26 279.86 292.623 280.37Z" fill="#FCEDC6" stroke="black" stroke-width="0.5"/>
<path d="M296.065 257.036C293.617 256.73 290.455 257.801 289.18 258.375C286.732 260.364 287.778 263.666 288.606 265.069C289.524 265.375 290.391 268.384 290.71 269.85L296.065 257.036Z" fill="#FCEDC6" stroke="black" stroke-width="0.5"/>
<path d="M175.573 261.626C174.196 265.758 181.757 275.461 185.709 279.796C187.851 275.818 191.957 273.166 193.742 272.337C196.496 273.255 199.48 270.169 200.628 268.512C201.24 264.38 207.513 262.71 210.573 262.391L211.147 261.244C201.66 256.195 190.236 257.1 185.709 258.184C184.179 257.572 178.314 260.224 175.573 261.626Z" fill="#948A9D" stroke="black" stroke-width="0.5"/>
<path fill-rule="evenodd" clip-rule="evenodd" d="M253.807 41.1652L254.148 41C255.298 42.7558 257.098 45.628 258.764 48.5406C260.373 51.353 261.866 54.2191 262.522 56.1542C264.172 55.5183 266.799 54.6405 269.565 53.9817C272.433 53.2986 275.475 52.8447 277.731 53.1559L278.313 53.2361L277.795 53.5138C276.495 54.2114 274.496 55.4205 272.729 56.7771C271.845 57.4555 271.023 58.1677 270.377 58.8685C269.781 59.5147 269.346 60.1388 269.14 60.7073C271.313 61.7984 274.602 63.5402 277.592 65.3163C279.121 66.2245 280.575 67.1432 281.763 67.9894C282.945 68.8316 283.882 69.6146 284.36 70.2526L284.625 70.6051L284.187 70.5575C282.725 70.3986 280.475 70.2271 278.479 70.2287C277.481 70.2295 276.552 70.2736 275.819 70.3826C275.452 70.4371 275.141 70.507 274.896 70.5932C274.724 70.6537 274.596 70.7189 274.506 70.785C275.847 73.0284 277.861 76.5756 279.644 80.1022C281.459 83.6908 283.051 87.2855 283.439 89.4596L283.53 89.9703L283.13 89.641C282.242 88.9121 280.786 87.8177 279.306 86.9068C278.567 86.4513 277.824 86.0439 277.147 85.751C276.561 85.4978 276.037 85.3362 275.611 85.2956C275.768 88.3326 275.932 92.9624 275.931 97.2537C275.93 99.4495 275.886 101.559 275.774 103.322C275.663 105.078 275.485 106.511 275.208 107.341L274.836 107.28C274.836 106.655 274.683 105.152 274.096 104.124L274.237 104.043L274.079 104.084C273.855 103.339 273.21 101.984 272.485 100.578C271.889 99.4229 271.245 98.2453 270.752 97.3685C270.724 97.5214 270.688 97.6875 270.646 97.8649C270.536 98.3207 270.377 98.8639 270.182 99.4698C269.792 100.682 269.253 102.154 268.655 103.696C267.464 106.768 266.036 110.128 265.079 112.299C265.081 112.349 265.081 112.398 265.081 112.444H264.699C264.699 111.863 264.56 110.904 264.141 109.944C263.743 109.03 263.096 108.126 262.087 107.536C261.918 107.899 261.75 108.259 261.582 108.615C260.786 110.3 260 111.875 259.306 113.116C258.959 113.737 258.635 114.276 258.342 114.706C258.052 115.131 257.785 115.462 257.552 115.652L257.116 116.009L257.245 115.461C257.85 112.881 258.71 108.901 259.323 105.344C259.629 103.565 259.873 101.896 259.993 100.562C260.053 99.8945 260.081 99.3149 260.072 98.8495C260.068 98.6859 260.06 98.5393 260.048 98.4098C259.932 98.6434 259.81 98.8414 259.679 98.9909L259.339 99.3798L259.344 98.8631C259.376 95.6457 259.347 90.7244 259.157 86.4176C259.063 84.2638 258.928 82.2671 258.741 80.7152C258.647 79.939 258.541 79.2781 258.421 78.7661C258.342 78.4269 258.26 78.1667 258.178 77.9838L246.875 93.4314L246.536 93.2678L248.999 84.2954C248.872 84.4622 248.737 84.655 248.592 84.8728C248.225 85.4268 247.812 86.1289 247.365 86.9439C246.473 88.5738 245.454 90.6459 244.417 92.8686C242.344 97.3132 240.203 102.35 238.865 105.631L238.499 105.525L240.075 96.77C239.386 97.7765 238.591 99.2187 237.74 100.942C236.684 103.079 235.549 105.634 234.432 108.296C232.197 113.62 230.037 119.364 228.731 123.028L228.57 123.478L228.376 123.041C227.901 121.971 227.703 120.422 227.687 118.637C227.67 116.847 227.836 114.797 228.103 112.712C228.473 109.817 229.039 106.845 229.585 104.39L225.279 115.714L225.116 115.177C224.721 113.872 224.775 111.933 225.107 109.677C225.441 107.412 226.059 104.8 226.813 102.131C228.26 97.0119 230.212 91.6683 231.637 88.1419C230.392 88.7729 228.942 90.0899 227.587 91.5548C226.081 93.1825 224.719 94.9636 223.927 96.1052L223.578 96.6068V95.9961C223.578 95.596 223.735 94.9996 223.999 94.268C224.265 93.529 224.649 92.6288 225.123 91.6108C225.835 90.081 226.752 88.2788 227.781 86.3471C227.28 86.0544 226.454 85.7207 225.509 85.6192C224.516 85.5126 223.403 85.6622 222.389 86.3703L220.254 90.6408H214.722L214.674 90.6083C210.783 87.9935 201.866 82.1593 197.286 79.7165L197.058 79.5951L197.24 79.4125C198.429 78.224 201.296 75.621 203.806 74.1439C200.276 73.878 193.741 73.4275 191.447 73.4275L191.379 73.0572C195.366 71.5581 201.691 69.3095 207.709 67.4354C210.718 66.4984 213.652 65.6543 216.18 65.0443C218.289 64.5356 220.126 64.1868 221.491 64.0859C220.053 63.3794 218.025 62.4606 215.951 61.6766C213.526 60.76 211.069 60.0394 209.425 60.0394L209.382 59.6618C213.368 58.7371 219.634 57.35 225.478 56.1939C228.399 55.6159 231.217 55.0954 233.592 54.7194C235.742 54.379 237.539 54.1552 238.724 54.1164C238.105 53.1643 237.146 51.8008 236.077 50.4922C234.891 49.0401 233.586 47.6766 232.469 47.0065L232.601 46.6542C235.313 47.1328 239.639 47.9847 243.805 48.9851C247.815 49.948 251.699 51.0536 253.845 52.1029C254.057 50.8827 254.294 49.0021 254.366 47.0363C254.444 44.9248 254.331 42.7379 253.807 41.1652ZM262.248 107.187C263.364 107.829 264.066 108.816 264.492 109.791C264.756 110.397 264.915 111.002 265 111.526C265.941 109.371 267.218 106.344 268.298 103.558C268.895 102.018 269.431 100.554 269.818 99.3526C270.012 98.7516 270.167 98.2184 270.274 97.7752C270.382 97.3284 270.437 96.9859 270.437 96.7611V96.0409L270.794 96.6662C271.305 97.5606 272.1 98.9975 272.825 100.403C273.108 100.951 273.381 101.497 273.624 102.005C272.842 98.4749 271.796 93.9756 270.782 90.0576C270.17 87.6904 269.57 85.5385 269.047 83.9417C268.785 83.1427 268.545 82.4872 268.333 82.0146C268.271 81.8764 268.212 81.7555 268.157 81.6523C268.241 84.9691 268.264 89.7817 268.079 94.1299C267.981 96.4339 267.824 98.6113 267.586 100.368C267.467 101.246 267.327 102.023 267.162 102.66C266.999 103.292 266.808 103.803 266.578 104.137L266.191 104.699L266.229 104.018C266.261 103.454 266.261 102.517 266.158 101.553C266.074 100.757 265.921 99.9587 265.668 99.3368C264.792 101.458 263.535 104.388 262.248 107.187ZM275.11 106.058C275.003 105.382 274.8 104.597 274.443 103.96C273.645 100.261 272.376 94.6898 271.153 89.9617C270.539 87.5921 269.937 85.4311 269.411 83.8227C269.147 83.0191 268.902 82.3489 268.682 81.8582C268.572 81.6132 268.467 81.408 268.366 81.2517C268.271 81.1036 268.162 80.9699 268.036 80.9068L267.75 80.7638L267.759 81.0834C267.855 84.3955 267.893 89.5165 267.697 94.1136C267.599 96.4125 267.443 98.5767 267.207 100.317C267.089 101.187 266.951 101.947 266.792 102.564C266.74 102.767 266.685 102.952 266.629 103.12C266.625 102.637 266.599 102.08 266.539 101.513C266.434 100.532 266.224 99.4956 265.822 98.7721L265.629 98.4244L265.478 98.7924C264.459 101.277 262.825 105.089 261.236 108.451C260.442 110.133 259.66 111.699 258.972 112.93C258.628 113.545 258.31 114.074 258.026 114.49C257.941 114.614 257.861 114.727 257.784 114.829C258.374 112.26 259.139 108.659 259.699 105.409C260.007 103.626 260.253 101.945 260.374 100.596C260.434 99.9217 260.464 99.3267 260.454 98.8415C260.445 98.4072 260.404 98.0408 260.313 97.7829C261.082 95.7032 261.625 91.8886 261.829 89.8953L261.448 89.8563C261.241 91.8745 260.692 95.7055 259.93 97.7162C259.864 97.8891 259.798 98.0457 259.732 98.1849C259.753 94.976 259.716 90.4224 259.539 86.4008C259.445 84.2433 259.309 82.2355 259.121 80.6695C259.026 79.8868 258.918 79.2104 258.794 78.6791C258.672 78.1584 258.528 77.7443 258.345 77.5157L258.196 77.6352L258.042 77.5223L247.18 92.3663L249.748 83.0125L249.274 83.419C248.985 83.6668 248.646 84.099 248.273 84.6615C247.898 85.2279 247.479 85.9402 247.03 86.7602C246.132 88.4005 245.109 90.4811 244.07 92.7068C242.318 96.4637 240.518 100.641 239.194 103.828L240.597 96.0299L240.26 95.8759C239.442 96.8884 238.455 98.6298 237.397 100.772C236.336 102.919 235.198 105.482 234.079 108.148C231.938 113.25 229.866 118.735 228.545 122.412C228.229 121.445 228.083 120.144 228.069 118.634C228.053 116.867 228.217 114.836 228.482 112.76C229.014 108.609 229.949 104.294 230.649 101.59L230.285 101.475L225.343 114.47C225.132 113.275 225.205 111.642 225.486 109.732C225.816 107.491 226.429 104.896 227.181 102.235C228.685 96.9142 230.738 91.3459 232.171 87.8443L232.339 87.4323L231.924 87.5937C230.502 88.1468 228.818 89.6602 227.306 91.2951C226.06 92.6424 224.912 94.0923 224.098 95.2066C224.162 94.9708 224.249 94.7006 224.358 94.3977C224.619 93.6739 224.998 92.7852 225.47 91.7722C226.413 89.7468 227.719 87.2358 229.173 84.5739C232.08 79.2508 235.569 73.334 237.895 69.5105L237.568 69.3117C235.24 73.1385 231.748 79.0606 228.837 84.3906C228.539 84.9373 228.246 85.4779 227.962 86.0094C227.417 85.6936 226.545 85.3458 225.549 85.2388C224.476 85.1236 223.246 85.2876 222.128 86.0862L222.09 86.1138L220.017 90.2583H214.839C210.99 87.6727 202.336 82.0117 197.694 79.5017C199.069 78.1545 202.083 75.472 204.542 74.1703L205.126 73.8612L204.467 73.8106C201.531 73.5847 195.499 73.1576 192.455 73.0636C196.449 71.5808 202.268 69.5306 207.823 67.8006C210.827 66.8649 213.753 66.0235 216.27 65.4162C218.792 64.8077 220.887 64.4383 222.239 64.4383L222.326 64.0768C220.887 63.3409 218.518 62.2382 216.086 61.3188C214.195 60.6038 212.247 59.9926 210.665 59.7587C214.639 58.8486 220.269 57.6143 225.552 56.5692C228.471 55.9916 231.284 55.4722 233.652 55.0972C236.025 54.7215 237.94 54.4929 239.07 54.4929H239.418L239.232 54.1993C238.623 53.2374 237.566 51.7105 236.373 50.2502C235.424 49.0881 234.378 47.9548 233.394 47.1854C236.104 47.6804 239.976 48.4588 243.716 49.3571C247.881 50.3572 251.859 51.5002 253.9 52.5588L254.13 52.6777L254.176 52.4237C254.401 51.2042 254.67 49.1771 254.749 47.0504C254.81 45.3923 254.756 43.6595 254.468 42.1985C255.584 43.9399 257.054 46.3217 258.432 48.7305C260.096 51.6405 261.617 54.5729 262.222 56.4638L262.284 56.658L262.474 56.5835C264.092 55.9488 266.799 55.0336 269.654 54.3538C272.26 53.7331 274.967 53.3139 277.078 53.4717C275.788 54.1962 274.054 55.2771 272.496 56.4737C271.602 57.1597 270.762 57.8867 270.096 58.6091C269.432 59.3284 268.927 60.0581 268.723 60.7505L268.678 60.9039L268.821 60.9755C270.986 62.0578 274.348 63.8343 277.396 65.6451C278.921 66.5506 280.365 67.4633 281.541 68.3009C282.496 68.9816 283.263 69.6046 283.754 70.128C282.297 69.9839 280.287 69.8447 278.479 69.8462C277.473 69.847 276.522 69.8913 275.763 70.0043C275.383 70.0607 275.045 70.1351 274.769 70.2325C274.497 70.3283 274.264 70.4537 274.117 70.6254L274.027 70.7301L274.098 70.8483C275.435 73.0765 277.488 76.6872 279.303 80.2748C280.98 83.5908 282.441 86.8637 282.953 89.0079C282.053 88.2955 280.79 87.371 279.507 86.581C278.758 86.1201 277.999 85.7027 277.299 85.3999C276.603 85.099 275.946 84.903 275.409 84.903H275.208L275.218 85.1043C275.378 88.1302 275.55 92.8699 275.548 97.2535C275.547 99.4455 275.503 101.546 275.392 103.298C275.324 104.376 275.232 105.314 275.11 106.058Z" fill="#0E0906"/>
<path d="M274.443 103.96C274.8 104.597 275.003 105.382 275.11 106.058C275.232 105.314 275.324 104.376 275.392 103.298C275.503 101.546 275.547 99.4455 275.548 97.2535C275.55 92.8699 275.378 88.1302 275.218 85.1043L275.208 84.903H275.409C275.946 84.903 276.603 85.099 277.299 85.3999C277.999 85.7027 278.758 86.1201 279.507 86.581C280.79 87.371 282.053 88.2955 282.953 89.0079C282.441 86.8637 280.98 83.5908 279.303 80.2748C277.488 76.6872 275.435 73.0765 274.098 70.8483L274.027 70.7301L274.117 70.6254C274.264 70.4537 274.497 70.3283 274.769 70.2325C275.045 70.1351 275.383 70.0607 275.763 70.0043C276.522 69.8913 277.473 69.847 278.479 69.8462C280.287 69.8447 282.297 69.9839 283.754 70.128C283.263 69.6046 282.496 68.9816 281.541 68.3009C280.365 67.4633 278.921 66.5506 277.396 65.6451C274.348 63.8343 270.986 62.0578 268.821 60.9755L268.678 60.9039L268.723 60.7505C268.927 60.0581 269.432 59.3284 270.096 58.6091C270.762 57.8867 271.602 57.1597 272.496 56.4737C274.054 55.2771 275.788 54.1962 277.078 53.4717C274.967 53.3139 272.26 53.7331 269.654 54.3538C266.799 55.0336 264.092 55.9488 262.474 56.5835L262.284 56.658L262.222 56.4638C261.617 54.5729 260.096 51.6405 258.432 48.7305C257.054 46.3217 255.584 43.9399 254.468 42.1985C254.756 43.6595 254.81 45.3923 254.749 47.0504C254.67 49.1771 254.401 51.2042 254.176 52.4237L254.13 52.6777L253.9 52.5588C251.859 51.5002 247.881 50.3572 243.716 49.3571C239.976 48.4588 236.104 47.6804 233.394 47.1854C234.378 47.9548 235.424 49.0881 236.373 50.2502C237.566 51.7105 238.623 53.2374 239.232 54.1993L239.418 54.4929H239.07C237.94 54.4929 236.025 54.7215 233.652 55.0972C231.284 55.4722 228.471 55.9916 225.552 56.5692C220.269 57.6143 214.639 58.8486 210.665 59.7587C212.247 59.9926 214.195 60.6038 216.086 61.3188C218.518 62.2382 220.887 63.3409 222.326 64.0768L222.239 64.4383C220.887 64.4383 218.792 64.8077 216.27 65.4162C213.753 66.0235 210.827 66.8649 207.823 67.8006C202.268 69.5306 196.449 71.5808 192.455 73.0636C195.499 73.1576 201.531 73.5847 204.467 73.8106L205.126 73.8612L204.542 74.1703C202.083 75.472 199.069 78.1545 197.694 79.5017C202.336 82.0117 210.99 87.6727 214.839 90.2583H220.017L222.09 86.1138L222.128 86.0862C223.246 85.2876 224.476 85.1236 225.549 85.2388C226.545 85.3458 227.417 85.6936 227.962 86.0094C228.246 85.4779 228.539 84.9373 228.837 84.3906C231.748 79.0606 235.24 73.1385 237.568 69.3117L237.895 69.5105C235.569 73.334 232.08 79.2508 229.173 84.5739C227.719 87.2358 226.413 89.7468 225.47 91.7722C224.998 92.7852 224.619 93.6739 224.358 94.3977C224.249 94.7006 224.162 94.9708 224.098 95.2066C224.912 94.0923 226.06 92.6424 227.306 91.2951C228.818 89.6602 230.502 88.1468 231.924 87.5937L232.339 87.4323L232.171 87.8443C230.738 91.3459 228.685 96.9142 227.181 102.235C226.429 104.896 225.816 107.491 225.486 109.732C225.205 111.642 225.132 113.275 225.343 114.47L230.285 101.475L230.649 101.59C229.949 104.294 229.014 108.609 228.482 112.76C228.217 114.836 228.053 116.867 228.069 118.634C228.083 120.144 228.229 121.445 228.545 122.412C229.866 118.735 231.938 113.25 234.079 108.148C235.198 105.482 236.336 102.919 237.397 100.772C238.455 98.6298 239.442 96.8884 240.26 95.8759L240.597 96.0299L239.194 103.828C240.518 100.641 242.318 96.4637 244.07 92.7068C245.109 90.4811 246.132 88.4005 247.03 86.7602C247.479 85.9402 247.898 85.2279 248.273 84.6615C248.646 84.099 248.985 83.6668 249.274 83.419L249.748 83.0125L247.18 92.3663L258.042 77.5223L258.196 77.6352L258.345 77.5157C258.528 77.7443 258.672 78.1584 258.794 78.6791C258.918 79.2104 259.026 79.8868 259.121 80.6695C259.309 82.2355 259.445 84.2433 259.539 86.4008C259.716 90.4224 259.753 94.976 259.732 98.1849C259.798 98.0457 259.864 97.8891 259.93 97.7162C260.692 95.7055 261.241 91.8745 261.448 89.8563L261.829 89.8953C261.625 91.8886 261.082 95.7032 260.313 97.7829C260.404 98.0408 260.445 98.4072 260.454 98.8415C260.464 99.3267 260.434 99.9217 260.374 100.596C260.253 101.945 260.007 103.626 259.699 105.409C259.139 108.659 258.374 112.26 257.784 114.829C257.861 114.727 257.941 114.614 258.026 114.49C258.31 114.074 258.628 113.545 258.972 112.93C259.66 111.699 260.442 110.133 261.236 108.451C262.825 105.089 264.459 101.277 265.478 98.7924L265.629 98.4244L265.822 98.7721C266.224 99.4956 266.434 100.532 266.539 101.513C266.599 102.08 266.625 102.637 266.629 103.12C266.685 102.952 266.74 102.767 266.792 102.564C266.951 101.947 267.089 101.187 267.207 100.317C267.443 98.5767 267.599 96.4125 267.697 94.1136C267.893 89.5165 267.855 84.3955 267.759 81.0834L267.75 80.7638L268.036 80.9068C268.162 80.9699 268.271 81.1036 268.366 81.2517C268.467 81.408 268.572 81.6132 268.682 81.8582C268.902 82.3489 269.147 83.0191 269.411 83.8227C269.937 85.4311 270.539 87.5921 271.153 89.9617C272.376 94.6898 273.645 100.261 274.443 103.96Z" fill="#0E0906"/>
<path d="M262.248 107.187C263.364 107.829 264.066 108.816 264.492 109.791C264.756 110.397 264.915 111.002 265 111.526C265.941 109.371 267.218 106.344 268.298 103.558C268.895 102.018 269.431 100.554 269.818 99.3526C270.012 98.7516 270.167 98.2184 270.274 97.7752C270.382 97.3284 270.437 96.9859 270.437 96.7611V96.0409L270.794 96.6662C271.305 97.5606 272.1 98.9975 272.825 100.403C273.108 100.951 273.381 101.497 273.624 102.005C272.842 98.4749 271.796 93.9756 270.782 90.0576C270.17 87.6904 269.57 85.5385 269.047 83.9417C268.785 83.1427 268.545 82.4872 268.333 82.0146C268.271 81.8764 268.212 81.7555 268.157 81.6523C268.241 84.9691 268.264 89.7817 268.079 94.1299C267.981 96.4339 267.824 98.6113 267.586 100.368C267.467 101.246 267.327 102.023 267.162 102.66C266.999 103.292 266.808 103.803 266.578 104.137L266.191 104.699L266.229 104.018C266.261 103.454 266.261 102.517 266.158 101.553C266.074 100.757 265.921 99.9587 265.668 99.3368C264.792 101.458 263.535 104.388 262.248 107.187Z" fill="#0E0906"/>
<path d="M227.595 86.2418C225.759 85.1707 223.387 85.7955 222.431 86.2418L220.327 90.6408H214.589C212.141 88.1926 200.054 81.3328 194.316 78.2089C190.032 75.6078 183.86 74.9575 181.31 74.9575C178.403 76.3346 181.119 78.0814 182.84 78.7827C185.592 79.7 189.54 82.0875 193.359 84.7004C197.185 87.3177 200.88 90.1611 203.114 91.9796C204.406 93.1287 205.533 94.7572 206.493 96.5698C208.599 100.55 209.9 105.417 210.381 108.045C211.964 108.738 214.323 108.402 216.294 107.854C216.001 109.996 222.048 109.512 225.108 109.002C225.873 102.269 229.635 92.4258 231.42 88.3456C229.89 88.9577 225.555 94.0834 223.578 96.5698C223.578 92.8976 226.256 88.1544 227.595 86.2418Z" fill="#A13835"/>
<path d="M203.114 91.9796C200.88 90.1611 197.185 87.3177 193.359 84.7004L192.786 85.8593C193.245 88.4604 202.115 94.0834 206.493 96.5698C205.533 94.7572 204.406 93.1287 203.114 91.9796Z" fill="#A13835"/>
<path d="M203.114 91.9796C202.043 85.8593 189.917 79.229 183.988 76.6788M203.114 91.9796C200.88 90.1611 197.185 87.3177 193.359 84.7004M203.114 91.9796C204.406 93.1287 205.533 94.7572 206.493 96.5698M207.13 86.2418C210.637 90.1945 217.649 98.6354 217.649 100.777C218.096 101.798 218.988 104.45 218.988 106.898C218.334 107.191 217.372 107.554 216.294 107.854M216.294 107.854C214.323 108.402 211.964 108.738 210.381 108.045C209.9 105.417 208.599 100.55 206.493 96.5698M216.294 107.854C216.001 109.996 222.048 109.512 225.108 109.002C225.873 102.269 229.635 92.4258 231.42 88.3456C229.89 88.9577 225.555 94.0834 223.578 96.5698C223.578 92.8976 226.256 88.1544 227.595 86.2418C225.759 85.1707 223.387 85.7955 222.431 86.2418L220.327 90.6408H214.589C212.141 88.1926 200.054 81.3328 194.316 78.2089C190.032 75.6078 183.86 74.9575 181.31 74.9575C178.403 76.3346 181.119 78.0814 182.84 78.7827C185.592 79.7 189.54 82.0875 193.359 84.7004M193.359 84.7004L192.786 85.8593C193.245 88.4604 202.115 94.0834 206.493 96.5698" stroke="black" stroke-width="0.5"/>
<path fill-rule="evenodd" clip-rule="evenodd" d="M232.961 111.125L232.006 113.567L231.05 116.009L231.399 116.145C231.919 117.475 232.73 120.28 232.758 123.374C232.559 123.413 232.377 123.462 232.209 123.519C231.188 123.865 230.733 124.507 230.657 125.04L230.649 125.094L230.671 125.144C231.189 126.328 231.37 128.053 231.307 130.092C231.245 132.125 230.941 134.448 230.505 136.814C229.635 141.54 228.244 146.421 227.226 149.475C226.241 151.438 224.015 154.22 221.614 156.914C219.212 159.608 216.653 162.196 215.03 163.755L214.987 163.797L214.975 163.857C213.896 169.406 214.796 176.197 216.349 182.415C217.904 188.638 220.117 194.311 221.684 197.636L221.802 197.887L221.995 197.687C229.51 189.871 238.385 185.364 242.035 184.022C242.484 184.948 242.844 186.28 243.128 187.852C243.427 189.507 243.639 191.413 243.785 193.361C244.074 197.214 244.106 201.224 244.045 203.774L242.009 205.439L242.251 205.736L244.423 203.959L244.425 203.871C244.489 201.316 244.46 197.245 244.167 193.333C244.13 192.849 244.09 192.367 244.045 191.891C243.909 190.442 243.732 189.043 243.504 187.784C243.203 186.116 242.811 184.678 242.3 183.696L242.223 183.548L242.066 183.604C238.502 184.877 229.544 189.365 221.912 197.222C220.363 193.887 218.23 188.364 216.721 182.322C215.178 176.144 214.294 169.445 215.339 163.989C216.97 162.42 219.512 159.847 221.899 157.168C224.303 154.471 226.567 151.649 227.574 149.634L227.58 149.622L227.585 149.609C228.607 146.543 230.006 141.638 230.881 136.884C231.319 134.507 231.626 132.163 231.69 130.103C231.752 128.078 231.579 126.305 231.044 125.044C231.118 124.686 231.457 124.178 232.332 123.881C233.252 123.569 234.757 123.498 237.11 124.105L237.454 124.194L237.401 124.039L232.961 111.125ZM233.14 123.313C233.761 123.236 234.518 123.244 235.436 123.374C235.874 123.436 236.349 123.527 236.862 123.649L232.938 112.234L231.605 115.642C232.116 116.803 233.098 119.876 233.14 123.313Z" fill="#A13835"/>
<path d="M233.14 123.313C233.761 123.236 234.518 123.244 235.436 123.374C235.874 123.436 236.349 123.527 236.862 123.649L232.938 112.234L231.605 115.642C232.116 116.803 233.098 119.876 233.14 123.313Z" fill="#A13835"/>
<path d="M254.18 115.313C255.582 116.907 258.464 120.669 258.77 122.964L260.109 124.111L261.447 125.259C261.256 123.601 261.027 119.942 261.639 118.565C262.786 117.417 265.043 114.663 264.89 112.827C264.635 111.297 263.704 108.122 262.021 107.663C261.129 109.831 258.923 114.51 257.24 115.887C258.132 111.807 259.917 103.264 259.917 101.734C258.961 103.009 256.819 105.636 255.901 105.942L253.797 109.958C254.626 111.169 255.863 113.936 254.18 115.313Z" fill="#A13835"/>
<path d="M261.639 118.565C261.027 119.942 261.256 123.601 261.447 125.259C263.283 125.259 266.165 128.064 267.376 129.466C268.072 131.413 270.4 132.033 271.775 132.13C271.913 132.14 272.042 132.144 272.158 132.144C275.065 136.275 276.557 138.073 276.939 138.456H278.087V136.352C277.003 134.949 274.682 131.685 274.07 129.849C273.497 128.446 272.12 125.45 271.202 124.685C270.284 122.084 265.464 119.521 263.169 118.565C263.169 118.106 262.149 118.373 261.639 118.565Z" fill="#A13835"/>
<path d="M278.087 136.352C280.688 135.74 285.801 136.479 288.032 136.926C290.021 136.007 288.096 134.12 286.885 133.292C282.907 129.772 277.577 126.853 275.409 125.833C274.338 124.914 272.158 124.685 271.202 124.685C272.12 125.45 273.497 128.446 274.07 129.849C274.682 131.685 277.003 134.949 278.087 136.352Z" fill="#A13835"/>
<path d="M258.77 130.921C259.404 131.224 260.012 131.519 260.586 131.802L260.109 124.111L258.77 122.964V130.921Z" fill="#A13835"/>
<path d="M262.404 132.718C262.276 130.614 261.906 126.177 261.447 125.259L260.109 124.111L260.586 131.802C261.239 132.125 261.849 132.432 262.404 132.718Z" fill="#A13835"/>
<path d="M242.3 183.696C242.811 184.678 243.203 186.116 243.504 187.784C243.732 189.043 243.909 190.442 244.045 191.891C244.554 190.91 246.147 189.139 247.677 189.139L245.573 186.079C244.883 185.235 243.918 183.136 245.573 181.489C254.435 179.321 273.611 175.292 279.426 176.516C280.573 176.644 283.06 177.09 283.825 177.855L286.694 181.489L287.267 181.106C286.87 180.223 286.302 179.033 285.685 177.855C284.523 175.634 283.186 173.456 282.486 173.456L278.087 161.789C275.792 157.199 270.437 146.756 267.376 141.707C266.93 139.221 265.311 133.942 262.404 132.718L260.587 131.82L258.77 130.921C251.741 127.57 241.4 123.296 237.401 124.039L237.454 124.194L237.11 124.105C234.757 123.498 233.252 123.569 232.332 123.881C231.457 124.178 231.118 124.686 231.044 125.044C231.579 126.305 231.752 128.078 231.69 130.103C231.626 132.163 231.319 134.507 230.881 136.884C230.006 141.638 228.607 146.543 227.585 149.609L227.58 149.622L227.574 149.634C226.567 151.649 224.303 154.471 221.899 157.168C219.512 159.847 216.97 162.42 215.339 163.989C214.294 169.445 215.178 176.144 216.721 182.322C218.23 188.364 220.363 193.887 221.912 197.222C229.544 189.365 238.502 184.877 242.066 183.604L242.223 183.548L242.3 183.696Z" fill="#A13835"/>
<path d="M286.694 181.489L283.825 177.855L279.426 176.516C273.458 175.598 254.371 179.449 245.573 181.489C243.918 183.136 244.883 185.235 245.573 186.079L247.677 189.139L259.535 203.484C259.994 204.555 261.766 204.695 262.595 204.631L269.863 214.385C271.087 216.987 273.305 216.362 274.262 215.724C275.333 218.325 280.191 224.713 282.486 227.582C283.557 230.336 286.12 228.73 287.267 227.582C288.644 230.489 294.981 236.189 297.978 238.675C299.814 239.899 316.721 230.132 324.945 225.096L329.918 222.418C331.754 219.205 326.348 214.577 323.415 212.664L318.634 208.456C317.563 207.232 315.382 207.946 314.426 208.456L305.819 198.893C305.819 197.888 303.652 198.092 302.568 198.32L294.153 187.992L291.284 187.418L286.694 181.489Z" fill="#A13835"/>
<path d="M287.267 181.106C289.715 181.412 294.28 183.656 296.256 184.74C296.716 186.423 301.803 189.139 304.289 190.287C306.584 191.511 318.634 191.434 324.372 191.243C325.649 187.686 324.76 184.172 324.372 183.401C321.158 181.565 315.51 181.744 313.087 182.063L312.131 183.401L303.524 181.489L292.24 179.959C290.404 179.041 287.105 178.174 285.685 177.855C286.302 179.033 286.87 180.223 287.267 181.106Z" fill="#A13835"/>
<path d="M237.11 124.105C234.757 123.498 233.252 123.569 232.332 123.881C231.457 124.178 231.118 124.686 231.044 125.044C231.579 126.305 231.752 128.078 231.69 130.103C231.626 132.163 231.319 134.507 230.881 136.884C230.006 141.638 228.607 146.543 227.585 149.609L227.58 149.622L227.574 149.634C226.567 151.649 224.303 154.471 221.899 157.168C219.512 159.847 216.97 162.42 215.339 163.989C214.294 169.445 215.178 176.144 216.721 182.322C218.23 188.364 220.363 193.887 221.912 197.222C229.544 189.365 238.502 184.877 242.066 183.604L242.223 183.548L242.3 183.696C242.811 184.678 243.203 186.116 243.504 187.784C243.732 189.043 243.909 190.442 244.045 191.891M237.11 124.105L237.454 124.194L237.401 124.039M237.11 124.105C237.203 124.08 237.3 124.058 237.401 124.039M262.404 132.718C262.276 130.614 261.906 126.177 261.447 125.259M262.404 132.718L260.587 131.82M262.404 132.718C261.849 132.432 261.239 132.125 260.586 131.802M262.404 132.718C265.311 133.942 266.93 139.221 267.376 141.707C270.437 146.756 275.792 157.199 278.087 161.789L282.486 173.456C283.186 173.456 284.523 175.634 285.685 177.855M258.77 130.921V122.964M258.77 130.921L260.587 131.82M258.77 130.921C259.404 131.224 260.012 131.519 260.586 131.802M258.77 130.921C251.741 127.57 241.4 123.296 237.401 124.039M258.77 122.964C258.464 120.669 255.582 116.907 254.18 115.313C255.863 113.936 254.626 111.169 253.797 109.958L255.901 105.942C256.819 105.636 258.961 103.009 259.917 101.734C259.917 103.264 258.132 111.807 257.24 115.887C258.923 114.51 261.129 109.831 262.021 107.663C263.704 108.122 264.635 111.297 264.89 112.827C265.043 114.663 262.786 117.417 261.639 118.565M258.77 122.964L260.109 124.111M261.639 118.565C261.027 119.942 261.256 123.601 261.447 125.259M261.639 118.565C262.149 118.373 263.169 118.106 263.169 118.565C265.464 119.521 270.284 122.084 271.202 124.685M261.447 125.259C263.283 125.259 266.165 128.064 267.376 129.466C268.072 131.413 270.4 132.033 271.775 132.13M261.447 125.259L260.109 124.111M278.087 136.352V138.456H276.939C276.557 138.073 275.065 136.275 272.158 132.144C272.042 132.144 271.913 132.14 271.775 132.13M278.087 136.352C280.688 135.74 285.801 136.479 288.032 136.926C290.021 136.007 288.096 134.12 286.885 133.292C282.907 129.772 277.577 126.853 275.409 125.833C274.338 124.914 272.158 124.685 271.202 124.685M278.087 136.352C277.003 134.949 274.682 131.685 274.07 129.849C273.497 128.446 272.12 125.45 271.202 124.685M263.169 118.947C264.24 119.865 265.273 121.752 265.655 122.581C266.726 123.958 268.014 126.725 268.524 127.936C268.524 129.772 270.692 131.497 271.775 132.13M232.006 113.567L231.05 116.009L231.399 116.145C231.919 117.475 232.73 120.28 232.758 123.374C232.559 123.413 232.377 123.462 232.209 123.519C231.188 123.865 230.733 124.507 230.657 125.04L230.649 125.094L230.671 125.144C231.189 126.328 231.37 128.053 231.307 130.092C231.245 132.125 230.941 134.448 230.505 136.814C229.635 141.54 228.244 146.421 227.226 149.475C226.241 151.438 224.015 154.22 221.614 156.914C219.212 159.608 216.653 162.196 215.03 163.755L214.987 163.797L214.975 163.857C213.896 169.406 214.796 176.197 216.349 182.415C217.904 188.638 220.117 194.311 221.684 197.636L221.802 197.887L221.995 197.687C229.51 189.871 238.385 185.364 242.035 184.022C242.484 184.948 242.844 186.28 243.128 187.852C243.427 189.507 243.639 191.413 243.785 193.361C244.074 197.214 244.106 201.224 244.045 203.774L242.009 205.439L242.251 205.736L244.423 203.959L244.425 203.871C244.489 201.316 244.46 197.245 244.167 193.333C244.13 192.849 244.09 192.367 244.045 191.891M232.006 113.567L232.961 111.125L237.401 124.039M232.006 113.567L235.436 123.374M235.436 123.374C234.518 123.244 233.761 123.236 233.14 123.313C233.098 119.876 232.116 116.803 231.605 115.642L232.938 112.234L236.862 123.649C236.349 123.527 235.874 123.436 235.436 123.374ZM260.109 124.111L260.586 131.802M260.587 131.82L260.586 131.802M287.267 181.106L286.694 181.489M287.267 181.106C289.715 181.412 294.28 183.656 296.256 184.74C296.716 186.423 301.803 189.139 304.289 190.287C306.584 191.511 318.634 191.434 324.372 191.243C325.649 187.686 324.76 184.172 324.372 183.401C321.158 181.565 315.51 181.744 313.087 182.063L312.131 183.401L303.524 181.489L292.24 179.959C290.404 179.041 287.105 178.174 285.685 177.855M287.267 181.106C286.87 180.223 286.302 179.033 285.685 177.855M287.267 181.106L285.685 177.855M286.694 181.489L283.825 177.855M286.694 181.489L291.284 187.418L294.153 187.992L302.568 198.32C303.652 198.092 305.819 197.888 305.819 198.893L314.426 208.456C315.382 207.946 317.563 207.232 318.634 208.456L323.415 212.664C326.348 214.577 331.754 219.205 329.918 222.418L324.945 225.096C316.721 230.132 299.814 239.899 297.978 238.675C294.981 236.189 288.644 230.489 287.267 227.582C286.12 228.73 283.557 230.336 282.486 227.582C280.191 224.713 275.333 218.325 274.262 215.724C273.305 216.362 271.087 216.987 269.863 214.385L262.595 204.631C261.766 204.695 259.994 204.555 259.535 203.484L247.677 189.139M283.825 177.855C283.06 177.09 280.573 176.644 279.426 176.516M283.825 177.855L279.426 176.516M279.426 176.516C273.611 175.292 254.435 179.321 245.573 181.489M279.426 176.516C273.458 175.598 254.371 179.449 245.573 181.489M245.573 181.489C243.918 183.136 244.883 185.235 245.573 186.079L247.677 189.139M247.677 189.139C246.147 189.139 244.554 190.91 244.045 191.891" stroke="black" stroke-width="0.5"/>
<path d="M262.595 204.44L257.814 197.746C256.896 196.063 259.344 194.749 260.682 194.303" stroke="black" stroke-width="0.5"/>
<path d="M262.595 193.921C267.95 191.779 282.04 189.203 288.415 188.183" stroke="black" stroke-width="0.5"/>
<path d="M237.54 131.188C236.928 132.565 237.795 135.842 238.305 137.308C239.07 137.308 239.134 136.16 239.07 135.587C239.07 133.904 238.56 131.953 238.305 131.188H237.54Z" fill="#92664D"/>
<path d="M263.169 138.073C263.169 139.45 264.062 142.09 264.508 143.237C266.191 143.237 264.699 139.794 263.743 138.073H263.169Z" fill="#92664D"/>
<path d="M232.759 134.63C233.83 134.018 236.138 134.248 237.158 134.439M237.54 131.188C236.928 132.565 237.795 135.842 238.305 137.308C239.07 137.308 239.134 136.16 239.07 135.587C239.07 133.904 238.56 131.953 238.305 131.188H237.54ZM263.169 138.073C263.169 139.45 264.062 142.09 264.508 143.237C266.191 143.237 264.699 139.794 263.743 138.073H263.169Z" stroke="black" stroke-width="0.5"/>
<path d="M239.261 134.821C243.699 134.209 257.176 138.392 263.36 140.559" stroke="black" stroke-width="0.5"/>
<path d="M265.273 141.133L267.377 141.898" stroke="black" stroke-width="0.5"/>
<path d="M227.212 110.532C227.824 110.532 228.487 109.894 228.742 109.575L229.507 104.603L227.212 110.532Z" fill="#A13835" stroke="black" stroke-width="0.5"/>
<path d="M221.857 91.5972C224.764 93.2802 227.276 96.2511 228.168 97.5262" stroke="black" stroke-width="0.5"/>
<path d="M214.589 90.6409C218.262 92.477 223.77 100.331 226.065 104.029" stroke="black" stroke-width="0.5"/>
<path d="M223.323 109.291C223.524 111.116 224.532 110.954 225.011 110.644L224.994 108.919C224.672 109.019 223.919 109.225 223.323 109.291Z" fill="#A13835"/>
<path d="M224.992 108.722L224.994 108.919M225.013 108.913C225.007 108.914 225 108.916 224.994 108.919M224.994 108.919L225.011 110.644C224.532 110.954 223.524 111.116 223.323 109.291C223.919 109.225 224.672 109.019 224.994 108.919Z" stroke="black" stroke-width="0.5"/>
<path d="M240.983 109.767C245.42 114.051 251.693 109.384 254.18 107.472C254.938 106.888 259.152 103.838 260.109 102.308C260.109 100.165 259.854 99.3749 259.726 99.2474L259.152 100.012C259.918 95.2692 258.834 83.6279 258.196 78.4001L246.721 94.2746C246.109 93.6626 247.868 87.3893 248.825 84.3292C247.141 86.3183 241.238 99.1836 238.497 105.368C238.497 105.623 238.529 105.879 238.586 106.133C238.942 107.7 240.269 109.163 240.983 109.767Z" fill="#FCEDC6"/>
<path d="M238.497 105.368L240.218 96.9523L237.158 102.308C237.464 104.297 238.238 105.686 238.586 106.133C238.529 105.879 238.497 105.623 238.497 105.368Z" fill="#FCEDC6"/>
<path d="M238.497 105.368L240.218 96.9523L237.158 102.308C237.464 104.297 238.238 105.686 238.586 106.133M238.497 105.368C241.238 99.1836 247.141 86.3183 248.825 84.3292C247.868 87.3893 246.109 93.6626 246.721 94.2746L258.196 78.4001C258.834 83.6279 259.918 95.2692 259.152 100.012L259.726 99.2474C259.854 99.3749 260.109 100.165 260.109 102.308C259.152 103.838 254.938 106.888 254.18 107.472C251.693 109.384 245.42 114.051 240.983 109.767C240.269 109.163 238.942 107.7 238.586 106.133M238.497 105.368C238.497 105.623 238.529 105.879 238.586 106.133" stroke="black" stroke-width="0.5"/>
<path d="M259.152 86.6244C257.24 86.8794 253.223 87.3129 252.458 87.0069H252.076C252.076 87.4048 252.229 88.2678 252.841 88.537L254.219 88.651C254.502 88.501 254.811 88.3472 255.136 88.2006C256.541 87.5653 258.222 87.0639 259.152 87.5807V86.6244Z" fill="black"/>
<path d="M255.136 88.2006C256.541 87.5653 258.222 87.0639 259.152 87.5807V86.6244C257.24 86.8794 253.223 87.3129 252.458 87.0069H252.076C252.076 87.4048 252.229 88.2678 252.841 88.537L254.219 88.651M255.136 88.2006L254.275 88.6557M255.136 88.2006C254.811 88.3472 254.502 88.501 254.219 88.651M254.275 88.6557L253.414 89.1108C253.64 88.971 253.914 88.8132 254.219 88.651M254.275 88.6557L254.219 88.651" stroke="black" stroke-width="0.5"/>
<path d="M243.852 104.22C244.77 103.914 246.657 104.348 247.486 104.603" stroke="black" stroke-width="0.5"/>
<path d="M247.103 102.499L250.355 103.073C252.076 103.264 253.415 102.945 254.18 102.499" stroke="black" stroke-width="0.5"/>
<path d="M240.6 101.16C241.059 101.925 243.342 101.989 244.426 101.925" stroke="black" stroke-width="0.5"/>
<path d="M245.382 97.3348L245.956 98.6737" stroke="black" stroke-width="0.5"/>
<path d="M247.868 98.8651C248.327 98.253 248.697 98.2275 248.825 98.2913" stroke="black" stroke-width="0.5"/>
<path d="M252.841 88.3456L251.502 89.8757" stroke="black" stroke-width="0.5"/>
<path d="M251.502 91.0232C251.502 92.4003 252.267 92.872 252.65 92.9358" stroke="black" stroke-width="0.5"/>
<path d="M253.606 90.2583C254.677 88.2692 257.877 88.2819 259.344 88.5369V91.5971H255.901C255.327 91.5971 254.243 90.832 253.606 90.2583Z" fill="white"/>
<path d="M253.606 91.5971C254.218 92.3621 254.881 92.5534 255.136 92.5534M253.606 90.2583C254.677 88.2692 257.877 88.2819 259.344 88.5369V91.5971H255.901C255.327 91.5971 254.243 90.832 253.606 90.2583Z" stroke="black" stroke-width="0.5"/>
<path d="M257.814 93.1272C258.12 92.5152 259.089 92.6172 259.535 92.7447" stroke="black" stroke-width="0.5"/>
<path d="M255.71 88.9194C255.098 89.5314 255.455 90.832 255.71 91.4057H258.579C259.038 90.6407 258.77 89.1744 258.579 88.5369L255.71 88.7281V88.9194Z" fill="#A50C0E" stroke="black" stroke-width="0.5"/>
<path d="M255.53 89.1039C255.876 88.7107 256.424 88.6492 256.655 88.6675" stroke="black" stroke-width="0.5"/>
<path d="M261.639 125.259L262.595 132.335C264.431 133.1 266.675 138.774 267.568 141.516C271.546 148.248 275.728 156.944 277.322 160.45H285.355L286.885 158.729H290.901C292.89 157.811 293.133 151.461 293.005 148.401C293.005 147.177 292.113 146.744 291.666 146.68H288.797C288.185 146.68 287.267 144.002 286.885 142.663C286.885 140.98 282.422 141.58 280.191 142.09L276.748 138.456L272.158 132.335C270.169 133.1 267.886 130.742 266.994 129.466C266.994 128.242 263.424 126.151 261.639 125.259Z" fill="#534A5B"/>
<path d="M280.191 142.09C282.422 141.58 286.885 140.98 286.885 142.663C287.267 144.002 288.185 146.68 288.797 146.68H291.666C292.113 146.744 293.005 147.177 293.005 148.401C293.133 151.461 292.89 157.811 290.901 158.729H286.885L285.355 160.45H277.322C275.728 156.944 271.546 148.248 267.568 141.516C266.675 138.774 264.431 133.1 262.595 132.335L261.639 125.259C263.424 126.151 266.994 128.242 266.994 129.466C267.886 130.742 270.169 133.1 272.158 132.335L276.748 138.456L280.191 142.09ZM280.191 142.09L282.486 144.385" stroke="black" stroke-width="0.5"/>
<path d="M255.518 106.707L252.841 112.062C252.076 112.674 248.952 111.934 247.486 111.488C249.475 111.182 253.67 108.173 255.518 106.707Z" fill="#FCEDC6" stroke="black" stroke-width="0.5"/>
<path d="M180.354 94.6572C182.496 91.9031 187.494 91.7246 189.726 91.9796C192.375 92.5758 194.786 94.2926 196.802 96.3327C198.026 95.6044 203.433 96.0292 205.983 96.3327C207.36 97.2874 209.617 104.411 210.573 107.854C212.103 108.925 214.908 108.3 216.119 107.854C216.119 109.69 220.327 109.639 222.431 109.384L223.387 109.193C223.081 109.958 223.77 110.659 224.152 110.914C224.458 111.067 224.79 110.978 224.917 110.914C224.458 112.597 224.981 114.803 225.3 115.696L227.212 110.723C227.518 111.029 228.232 110.213 228.551 109.767C227.174 116.04 227.977 121.433 228.551 123.346L231.42 115.696C232.95 117.685 233.205 121.625 233.141 123.346C231.764 123.346 231.038 124.494 230.846 125.067C232.07 127.21 230.591 137.18 229.699 141.898C229.699 149.702 220.646 159.048 216.119 162.745C211.682 156.166 205.09 136.16 202.349 126.98C201.278 126.521 197.695 123.601 196.037 122.199C195.272 123.117 190.618 122.581 188.387 122.199C188.999 120.668 188.132 116.588 187.622 114.739C191.753 112.903 191.256 105.814 190.491 102.499C189.879 99.4387 187.176 97.113 185.901 96.3327H181.119C181.119 95.7574 180.609 94.976 180.354 94.6572Z" fill="#534A5B"/>
<path d="M202.349 104.22C201.409 102.232 199.444 99.005 196.802 96.3327M196.802 96.3327C194.786 94.2926 192.375 92.5758 189.726 91.9796C187.494 91.7246 182.496 91.9031 180.354 94.6572C180.609 94.976 181.119 95.7574 181.119 96.3327H185.901C187.176 97.113 189.879 99.4387 190.491 102.499C191.256 105.814 191.753 112.903 187.622 114.739C188.132 116.588 188.999 120.668 188.387 122.199C190.618 122.581 195.272 123.117 196.037 122.199C197.695 123.601 201.278 126.521 202.349 126.98C205.09 136.16 211.682 156.166 216.119 162.745C220.646 159.048 229.699 149.702 229.699 141.898C230.591 137.18 232.07 127.21 230.846 125.067C231.038 124.494 231.764 123.346 233.141 123.346C233.205 121.625 232.95 117.685 231.42 115.696L228.551 123.346C227.977 121.433 227.174 116.04 228.551 109.767C228.232 110.213 227.518 111.029 227.212 110.723L225.3 115.696C224.981 114.803 224.458 112.597 224.917 110.914C224.79 110.978 224.458 111.067 224.152 110.914C223.77 110.659 223.081 109.958 223.387 109.193L222.431 109.384C220.327 109.639 216.119 109.69 216.119 107.854C214.908 108.3 212.103 108.925 210.573 107.854C209.617 104.411 207.36 97.2874 205.983 96.3327C203.433 96.0292 198.026 95.6044 196.802 96.3327Z" stroke="black" stroke-width="0.5"/>
<path d="M195.846 122.198C197.988 119.75 203.114 118.118 205.409 117.608" stroke="black" stroke-width="0.5"/>
<path d="M188.578 119.138C190.108 119.138 193.168 116.716 194.507 115.504" stroke="black" stroke-width="0.5"/>
<path d="M202.349 126.98L211.72 132.909L217.076 139.029" stroke="black" stroke-width="0.5"/>
<path d="M181.31 95.8048C182.228 95.0398 184.753 94.3385 185.9 94.0835" stroke="black" stroke-width="0.5"/>
<path d="M192.212 83.9468C188.693 85.6299 185.263 90.1308 183.988 92.1709C188.425 90.4878 192.849 92.7447 194.507 94.0835L196.802 96.1873C199.862 95.2693 204.197 95.8048 205.983 96.1873C201.851 94.5043 195.718 89.4933 193.168 87.1982C192.862 86.8922 192.658 86.1781 192.594 85.8594L193.168 84.7118L192.212 83.9468Z" fill="#0E0906" stroke="black" stroke-width="0.5"/>
<path d="M236.966 102.69L233.141 111.488L237.349 123.92C240.256 123.155 252.713 128.064 258.579 130.614V122.964C259.191 121.892 255.773 117.417 253.988 115.313C255.824 114.089 254.753 111.233 253.988 109.958L253.032 112.253C252.267 112.444 248.824 111.934 247.103 111.488C246.338 111.794 244.425 111.761 243.469 111.488C242.13 111.105 239.899 108.683 238.879 107.28C238.267 106.668 237.349 103.965 236.966 102.69Z" fill="#534A5B" stroke="black" stroke-width="0.5"/>
<path d="M253.989 115.313L251.885 120.094" stroke="black" stroke-width="0.5"/>
<path d="M233.524 110.914C234.748 111.22 237.477 114.229 238.688 115.696" stroke="black" stroke-width="0.5"/>
<path d="M266.038 128.128L265.273 135.778" stroke="black" stroke-width="0.5"/>
<path d="M293.006 148.783C293.924 150.161 292.878 154.712 292.24 156.816L298.17 155.86C300.006 154.024 299.572 151.27 299.126 150.122C298.82 149.051 297.851 148.783 297.404 148.783H293.006Z" fill="#FCEDC6" stroke="black" stroke-width="0.5"/>
<path d="M186.474 109.575C186.538 106.451 185.556 99.7829 181.119 98.0998C181.119 97.016 180.889 94.6954 179.971 94.0834C179.143 91.852 177.103 87.0068 175.572 85.4767C173.341 82.5441 168.764 75.8755 168.305 72.6624C167.54 70.4948 165.589 65.93 163.906 65.012C162.631 63.8007 159.774 60.766 158.55 58.3179C157.212 57.5529 154.419 56.5966 153.96 58.8917C153.705 60.2305 153.463 63.2142 154.534 64.4382C155.299 65.777 157.173 68.6077 158.55 69.2197C158.678 70.686 159.315 73.9247 160.846 75.1487C161.611 75.9138 163.141 77.7116 163.141 78.7826C163.268 80.4402 163.676 83.9084 164.288 84.5204L164.862 86.7979C163.941 87.0307 162.758 87.1135 162.758 86.2417L154.534 81.269C152.239 79.5477 147.228 76.105 145.545 76.105C142.74 75.0212 138.086 72.0886 137.129 71.8973C136.173 71.7061 134.643 70.941 132.73 70.7498V76.6788C134.197 78.0176 137.512 80.6952 139.042 80.6952C141.21 81.1415 145.545 82.3783 145.545 83.7554C146.884 85.4129 149.944 88.6133 151.474 88.1543C152.494 88.7919 154.534 90.2199 154.534 90.832C153.514 91.9158 150.824 93.9686 148.222 93.5096L132.73 94.0834V100.395C134.069 100.586 135.982 99.9486 137.129 100.395C138.277 100.841 140.763 100.969 142.485 100.969H146.884L150.9 99.0561C150.008 99.6936 147.955 100.969 146.884 100.969C146.629 102.499 145.66 105.559 143.823 105.559C142.038 106.515 138.2 108.81 137.129 110.34C135.791 111.679 134.069 114.357 132.73 115.122V121.051C134.197 120.796 135.599 119.712 137.129 118.373C139.807 117.034 143.976 111.947 144.589 113.018C145.609 113.018 147.763 112.75 148.222 111.679C148.86 112.444 150.288 113.783 150.9 113.018C151.283 113.528 152.239 114.433 153.004 113.974C155.108 115.632 160.08 117.417 164.097 117.417C165.436 118.947 167.157 121.051 168.687 121.625C170.217 122.198 173.746 122.887 175.618 121.051C176.724 121.733 177.906 122.198 179.057 122.198C178.923 121.185 178.85 120.265 178.824 119.521L179.057 122.198C179.577 126.133 181.015 131.466 184.179 133.291C186.474 134.822 191.217 136.964 191.829 133.291C191.893 130.741 191.294 124.953 188.387 122.198C188.387 119.138 188.004 112.329 186.474 109.575Z" fill="#534A5B"/>
<path d="M179.057 122.198C179.577 126.133 181.015 131.466 184.179 133.291C186.474 134.822 191.217 136.964 191.829 133.291C191.893 130.741 191.294 124.953 188.387 122.198C188.387 119.138 188.004 112.329 186.474 109.575C186.538 106.451 185.556 99.7829 181.119 98.0998C181.119 97.016 180.889 94.6954 179.971 94.0834C179.143 91.852 177.103 87.0068 175.572 85.4767C173.341 82.5441 168.764 75.8755 168.305 72.6624C167.54 70.4948 165.589 65.93 163.906 65.012C162.631 63.8007 159.774 60.766 158.55 58.3179C157.212 57.5529 154.419 56.5966 153.96 58.8917C153.705 60.2305 153.463 63.2142 154.534 64.4382C155.299 65.777 157.173 68.6077 158.55 69.2197C158.678 70.686 159.315 73.9247 160.846 75.1487C161.611 75.9138 163.141 77.7116 163.141 78.7826C163.268 80.4402 163.676 83.9084 164.288 84.5204L164.862 86.7979M179.057 122.198C178.923 121.185 178.85 120.265 178.824 119.521L179.057 122.198ZM179.057 122.198C177.906 122.198 176.724 121.733 175.618 121.051M167.348 113.592C168.305 114.229 170.37 115.734 170.982 116.652C171.846 117.845 173.606 119.808 175.618 121.051M175.618 121.051C173.746 122.887 170.217 122.198 168.687 121.625C167.157 121.051 165.436 118.947 164.097 117.417C160.08 117.417 155.108 115.632 153.004 113.974C152.239 114.433 151.283 113.528 150.9 113.018M150.9 113.018L152.239 111.679M150.9 113.018C150.288 113.783 148.86 112.444 148.222 111.679C147.763 112.75 145.609 113.018 144.589 113.018C143.976 111.947 139.807 117.034 137.129 118.373C135.599 119.712 134.197 120.796 132.73 121.051V115.122C134.069 114.357 135.791 111.679 137.129 110.34C138.2 108.81 142.038 106.515 143.823 105.559C145.66 105.559 146.629 102.499 146.884 100.969M146.884 100.969C147.955 100.969 150.008 99.6936 150.9 99.0561L146.884 100.969ZM146.884 100.969C145.813 100.969 143.505 100.969 142.485 100.969M146.884 100.969H142.485M142.485 100.969C140.763 100.969 138.277 100.841 137.129 100.395C135.982 99.9486 134.069 100.586 132.73 100.395V94.0834L148.222 93.5096C150.824 93.9686 153.514 91.9158 154.534 90.832M154.534 90.832C155.299 92.362 158.55 93.2546 160.08 93.5096M154.534 90.832C154.534 90.2199 152.494 88.7919 151.474 88.1543C149.944 88.6133 146.884 85.4129 145.545 83.7554C145.545 82.3783 141.21 81.1415 139.042 80.6952C137.512 80.6952 134.197 78.0176 132.73 76.6788V70.7498C134.643 70.941 136.173 71.7061 137.129 71.8973C138.086 72.0886 142.74 75.0212 145.545 76.105C147.228 76.105 152.239 79.5477 154.534 81.269L162.758 86.2417C162.758 87.1135 163.941 87.0307 164.862 86.7979M168.305 90.2582C167.603 90.0669 166.048 89.0724 165.436 86.6243C165.27 86.6836 164.862 85.0942 164.862 86.7979M154.534 108.619C156.829 104.488 167.986 99.8849 173.277 98.0998" stroke="black" stroke-width="0.5"/>
<path d="M168.878 109.767L174.042 101.543C174.807 100.319 177.549 101.033 178.824 101.543" stroke="black" stroke-width="0.5"/>
<path d="M186.092 118.947C186.092 120.171 187.622 121.625 188.387 122.198" stroke="black" stroke-width="0.5"/>
<path d="M181.119 98.0999C181.119 101.007 184.689 106.834 186.474 109.384" stroke="black" stroke-width="0.5"/>
<path d="M279.235 164.084C281.989 166.379 288.798 175.496 291.858 179.767L285.929 178.046L283.06 173.647L282.295 173.073L278.852 164.084H279.235Z" fill="white" stroke="black" stroke-width="0.5"/>
<path d="M220.327 193.347C227.059 181.565 251.502 173.993 263.551 171.543C268.715 170.494 278.661 171.543 282.869 173.839" stroke="black" stroke-width="0.5"/>
<path d="M295.3 148.783C294.688 147.559 296.448 147.253 297.404 147.253H300.082C302.224 147.865 302.759 150.059 302.759 151.079C303.186 152.93 302.543 155.145 302.092 156.214C302.058 156.294 302.025 156.367 301.994 156.434L300.082 156.816L299.317 157.964H296.256L295.3 156.434L298.36 155.86C299.431 155.248 299.572 152.672 299.508 151.461C299.508 149.931 298.488 149.038 297.978 148.783H295.3Z" fill="#534A5B"/>
<path d="M300.082 147.253C302.224 147.865 302.759 150.059 302.759 151.079C303.186 152.93 302.543 155.145 302.092 156.214C303.525 156.16 306.393 155.822 306.393 154.904C306.839 155.031 307.885 155.095 308.497 154.33C309.071 153.501 310.027 151.385 309.262 149.549C308.88 149.676 307.923 149.702 307.158 148.783C307.094 147.636 307.12 145.035 307.732 143.811C307.094 143.173 305.705 142.128 305.246 143.046C304.417 143.938 302.606 145.723 301.994 145.723C301.357 145.787 300.082 146.182 300.082 147.253Z" fill="#534A5B"/>
<path d="M300.082 147.253H297.404C296.448 147.253 294.688 147.559 295.3 148.783H297.978C298.488 149.038 299.508 149.931 299.508 151.461C299.572 152.672 299.431 155.248 298.36 155.86L295.3 156.434L296.256 157.964H299.317L300.082 156.816L301.994 156.434C302.025 156.367 302.058 156.294 302.092 156.214M300.082 147.253C302.224 147.865 302.759 150.059 302.759 151.079C303.186 152.93 302.543 155.145 302.092 156.214M300.082 147.253C300.082 146.182 301.357 145.787 301.994 145.723C302.606 145.723 304.417 143.938 305.246 143.046C305.705 142.128 307.094 143.173 307.732 143.811C307.12 145.035 307.094 147.636 307.158 148.783C307.923 149.702 308.88 149.676 309.262 149.549C310.027 151.385 309.071 153.501 308.497 154.33C307.885 155.095 306.839 155.031 306.393 154.904M306.393 154.904C306.393 155.822 303.525 156.16 302.092 156.214M306.393 154.904L307.732 152.417" stroke="black" stroke-width="0.5"/>
<path d="M307.733 143.811C306.814 145.8 306.967 147.955 307.159 148.783C307.618 149.548 308.625 149.612 309.071 149.548L323.99 137.117V130.996L307.733 143.811Z" fill="#87694F" stroke="black" stroke-width="0.5"/>
<path d="M292.432 156.816L295.301 156.434L296.257 157.773H299.126L291.475 163.702C290.71 162.554 289.308 161.279 288.224 160.45L290.137 158.92C290.749 159.532 291.922 157.773 292.432 156.816Z" fill="#87694F"/>
<path d="M291.475 163.702C290.71 162.554 289.308 161.279 288.224 160.45C287.974 160.259 287.013 159.494 286.503 159.303L285.355 160.45H277.513L278.852 163.702C282.805 167.846 290.94 176.899 291.858 179.959C293.069 180.023 293.197 179.959 296.257 180.533C298.552 180.724 302.645 180.877 303.716 181.489C301.676 176.899 295.874 168.292 291.475 163.702Z" fill="#87694F"/>
<path d="M291.475 163.702L299.126 157.773H296.257L295.301 156.434L292.432 156.816C291.922 157.773 290.749 159.532 290.137 158.92L288.224 160.45M291.475 163.702C290.71 162.554 289.308 161.279 288.224 160.45M291.475 163.702C295.874 168.292 301.676 176.899 303.716 181.489C302.645 180.877 298.552 180.724 296.257 180.533C293.197 179.959 293.069 180.023 291.858 179.959C290.94 176.899 282.805 167.846 278.852 163.702L277.513 160.45H285.355L286.503 159.303C287.013 159.494 287.974 160.259 288.224 160.45" stroke="black" stroke-width="0.5"/>
<path d="M181.119 96.5698V98.2912C185.709 99.8212 186.601 106.452 186.474 109.575L187.621 114.357C191.447 112.98 191 105.24 190.299 101.543C190.299 100.012 187.749 97.5899 186.474 96.5698H181.119Z" fill="#FCEDC6" stroke="black" stroke-width="0.5"/>
<path d="M132.73 121.051C130.435 121.816 128.331 122.007 127.566 121.051C126.189 118.297 130.435 115.951 132.73 115.122V121.051Z" fill="#534A5B" stroke="black" stroke-width="0.5"/>
<path d="M132.73 115.313V120.859" stroke="#534A5B" stroke-width="0.5"/>
<path d="M132.65 94.0785C129.845 93.7772 124.83 94.6504 125.074 96.8807C125.131 99.1158 130.001 99.9237 132.811 100.411L132.65 94.0785Z" fill="#534A5B" stroke="black" stroke-width="0.5"/>
<path d="M132.792 94.2754L132.668 100.203" stroke="#534A5B" stroke-width="0.5"/>
<path d="M258.579 78.9739L259.153 85.2854" stroke="black" stroke-width="0.5"/>
<path d="M258.196 78.0178L246.721 93.7011L248.633 85.4769" stroke="black" stroke-width="0.5"/>
<path d="M260.109 99.6301V98.6738L259.726 99.2475L261.065 95.4224" stroke="black" stroke-width="0.5"/>
<path d="M224.343 93.3184C224.343 92.7064 226.511 88.4732 227.595 86.4331" stroke="black" stroke-width="0.5"/>
<path d="M240.026 96.7611L237.923 100.586" stroke="black" stroke-width="0.5"/>
<path d="M230.464 91.4059C229.393 92.1709 226.83 101.67 225.682 106.324" stroke="black" stroke-width="0.5"/>
<path d="M132.922 70.7499C131.392 70.2909 130.627 70.5587 130.435 70.7499C128.14 72.28 130.627 74.9576 132.73 76.6789L132.922 70.7499Z" fill="#534A5B" stroke="black" stroke-width="0.5"/>
<path d="M132.922 70.9412L132.73 76.2964" stroke="#534A5B" stroke-width="0.5"/>
<path d="M169.07 122.007C166.774 123.537 158.805 141.261 155.108 149.931C159.698 145.035 169.516 138.073 173.851 135.204C171.556 140.559 165.754 167.782 163.141 180.724C167.119 174.757 176.656 161.917 180.928 156.243C179.245 161.292 178.314 193.411 178.059 208.839C179.283 204.708 186.602 191.179 190.108 184.932C190.108 192.123 194.316 212.537 196.42 221.845H199.288L204.261 215.15C205.944 211.784 209.553 211.835 211.147 212.282L215.354 205.205L220.136 203.101L221.857 197.937C217.573 192.123 215.737 180.851 215.354 175.942C214.13 173.341 214.844 166.953 215.354 164.084L216.119 162.745C213.671 160.756 205.791 138.201 202.157 127.171L196.037 122.007C196.037 123.231 190.937 122.517 188.387 122.007C191.753 124.455 192.084 131.315 191.829 134.439C190.452 137.04 185.773 134.63 183.605 133.1C180.086 130.193 178.951 124.494 178.824 122.007C178.059 122.466 176.337 121.561 175.572 121.051C175.572 122.734 171.237 122.39 169.07 122.007Z" fill="#0E0906" stroke="black" stroke-width="0.5"/>
<path d="M222.048 197.363L220.136 203.101C217.076 204.019 215.673 205.014 215.354 205.396L211.338 212.281C208.125 211.057 205.409 213.429 204.453 214.768L199.289 222.036C195.769 221.118 192.084 223.821 190.682 225.287L181.119 237.336C180.048 238.101 180.673 238.93 181.119 239.249C185.097 238.484 209.17 241.863 220.71 243.648C222.683 241.487 225.286 236.955 227.473 232.746L230.846 225.861C230.059 227.583 228.848 230.101 227.473 232.746C230.172 233.511 232.249 229.622 232.95 227.582L236.967 219.167C238.803 219.779 240.154 218.147 240.601 217.254C241.06 216.489 241.812 209.03 242.131 205.396L244.234 203.866C244.846 201.571 243.852 192.199 243.278 187.8L242.513 184.358L242.131 183.784C239.376 183.784 227.595 192.837 222.048 197.363Z" fill="#A13835"/>
<path d="M227.473 232.746C225.286 236.955 222.683 241.487 220.71 243.648C209.17 241.863 185.097 238.484 181.119 239.249C180.673 238.93 180.048 238.101 181.119 237.336L190.682 225.287C192.084 223.821 195.769 221.118 199.289 222.036L204.453 214.768C205.409 213.429 208.125 211.057 211.338 212.281L215.354 205.396C215.673 205.014 217.076 204.019 220.136 203.101L222.048 197.363C227.595 192.837 239.376 183.784 242.131 183.784L242.513 184.358L243.278 187.8C243.852 192.199 244.846 201.571 244.234 203.866L242.131 205.396C241.812 209.03 241.06 216.489 240.601 217.254C240.154 218.147 238.803 219.779 236.967 219.167L232.95 227.582C232.249 229.622 230.172 233.511 227.473 232.746ZM227.473 232.746C228.848 230.101 230.059 227.583 230.846 225.861L227.473 232.746Z" stroke="black" stroke-width="0.5"/>
<path d="M199.48 222.227C202.54 221.462 217.331 222.801 224.343 223.566" stroke="black" stroke-width="0.5"/>
<path d="M211.529 212.282C213.824 211.364 226.638 211.007 232.759 210.943" stroke="black" stroke-width="0.5"/>
<path d="M235.054 211.134C237.732 211.134 239.007 212.218 239.262 213.429L236.967 219.167" stroke="black" stroke-width="0.5"/>
<path d="M238.114 195.068C237.655 195.986 237.668 198.893 237.732 200.232C238.497 201.15 238.815 198.957 238.879 197.746C238.943 196.534 239.007 195.451 238.879 195.068C238.573 194.609 238.242 194.877 238.114 195.068Z" fill="#92664D" stroke="black" stroke-width="0.5"/>
<path d="M237.955 185.376C237.496 186.294 237.509 189.201 237.572 190.54C238.337 191.458 238.656 189.265 238.72 188.054C238.784 186.842 238.847 185.759 238.72 185.376C238.414 184.917 238.082 185.185 237.955 185.376Z" fill="#92664D" stroke="black" stroke-width="0.5"/>
<path d="M234.906 208.119C234.082 208.935 232.832 212.066 232.31 213.53C232.621 214.804 233.868 212.564 234.453 211.285C235.038 210.006 235.568 208.865 235.616 208.405C235.531 207.797 235.108 207.961 234.906 208.119Z" fill="#92664D" stroke="black" stroke-width="0.5"/>
<path d="M226.589 219.947C225.407 220.931 223.819 224.92 223.173 226.791C223.791 228.502 225.472 225.688 226.235 224.068C226.998 222.447 227.691 221.001 227.715 220.401C227.518 219.591 226.883 219.761 226.589 219.947Z" fill="#92664D" stroke="black" stroke-width="0.5"/>
<path d="M220.518 203.101C225.261 200.653 233.587 198.128 237.158 197.172" stroke="black" stroke-width="0.5"/>
<path d="M242.704 204.631C243.163 202.642 243.278 198.957 243.278 197.363C242.819 195.527 240.409 196.088 239.261 196.598" stroke="black" stroke-width="0.5"/>
<path d="M226.638 223.948C230.846 223.948 231.165 224.968 230.846 226.052" stroke="black" stroke-width="0.5"/>
<path d="M259.726 192.582L263.743 197.937C264.661 198.396 264.89 197.618 264.89 197.172L261.065 192.582C261.065 191.511 260.172 192.136 259.726 192.582Z" fill="#92664D"/>
<path d="M248.824 180.915L251.502 184.358C252.879 184.97 252.841 183.848 252.65 183.21L250.163 180.341L248.824 180.915Z" fill="#92664D"/>
<path d="M278.278 176.516L280.956 180.341H281.912L279.617 176.516H278.278Z" fill="#92664D"/>
<path d="M287.459 185.888L291.475 191.243C292.393 191.702 292.623 190.924 292.623 190.478L288.798 185.888C287.841 184.932 287.076 185.123 287.459 185.888Z" fill="#92664D"/>
<path d="M298.169 197.363L302.186 202.719C303.104 203.178 303.333 202.4 303.333 201.954L299.508 197.363C298.552 196.407 297.787 196.598 298.169 197.363Z" fill="#92664D"/>
<path d="M273.114 205.779L277.131 211.134C278.049 211.593 278.278 210.815 278.278 210.369L274.453 205.779C273.497 204.822 272.732 205.014 273.114 205.779Z" fill="#92664D"/>
<path d="M285.546 218.784L289.563 224.14C290.481 224.599 290.71 223.821 290.71 223.375L286.885 218.784C285.929 217.828 285.164 218.019 285.546 218.784Z" fill="#92664D"/>
<path d="M310.792 207.883L314.809 213.238C315.727 213.697 315.956 212.919 315.956 212.473L312.131 207.883C311.175 206.926 310.41 207.118 310.792 207.883Z" fill="#92664D"/>
<path d="M259.726 192.582L263.743 197.937C264.661 198.396 264.89 197.618 264.89 197.172L261.065 192.582C261.065 191.511 260.172 192.136 259.726 192.582Z" stroke="black" stroke-width="0.5"/>
<path d="M248.824 180.915L251.502 184.358C252.879 184.97 252.841 183.848 252.65 183.21L250.163 180.341L248.824 180.915Z" stroke="black" stroke-width="0.5"/>
<path d="M278.278 176.516L280.956 180.341H281.912L279.617 176.516H278.278Z" stroke="black" stroke-width="0.5"/>
<path d="M287.459 185.888L291.475 191.243C292.393 191.702 292.623 190.924 292.623 190.478L288.798 185.888C287.841 184.932 287.076 185.123 287.459 185.888Z" stroke="black" stroke-width="0.5"/>
<path d="M298.169 197.363L302.186 202.719C303.104 203.178 303.333 202.4 303.333 201.954L299.508 197.363C298.552 196.407 297.787 196.598 298.169 197.363Z" stroke="black" stroke-width="0.5"/>
<path d="M273.114 205.779L277.131 211.134C278.049 211.593 278.278 210.815 278.278 210.369L274.453 205.779C273.497 204.822 272.732 205.014 273.114 205.779Z" stroke="black" stroke-width="0.5"/>
<path d="M285.546 218.784L289.563 224.14C290.481 224.599 290.71 223.821 290.71 223.375L286.885 218.784C285.929 217.828 285.164 218.019 285.546 218.784Z" stroke="black" stroke-width="0.5"/>
<path d="M310.792 207.883L314.809 213.238C315.727 213.697 315.956 212.919 315.956 212.473L312.131 207.883C311.175 206.926 310.41 207.118 310.792 207.883Z" stroke="black" stroke-width="0.5"/>
<path d="M290.328 187.8C290.787 187.341 291.794 187.609 292.24 187.8" stroke="black" stroke-width="0.5"/>
<path d="M274.262 215.724C273.191 214.653 271.393 212.473 270.628 211.516C269.71 209.374 272.668 208.074 274.262 207.691" stroke="black" stroke-width="0.5"/>
<path d="M275.983 206.926C278.125 205.855 292.304 201.38 299.126 199.276" stroke="black" stroke-width="0.5"/>
<path d="M301.038 198.893L302.759 198.32" stroke="black" stroke-width="0.5"/>
<path d="M287.076 227.582L284.207 224.522C283.136 222.074 285.164 220.952 286.311 220.697" stroke="black" stroke-width="0.5"/>
<path d="M288.224 219.741C290.06 218.364 304.417 212.154 311.366 209.221" stroke="black" stroke-width="0.5"/>
<path d="M313.088 208.648L314.426 208.074" stroke="black" stroke-width="0.5"/>
<path d="M292.049 179.959L304.098 183.975C305.628 184.74 303.078 187.354 301.612 188.565" stroke="black" stroke-width="0.5"/>
<path d="M312.322 183.593L317.678 184.74C318.29 185.658 314.362 189.33 312.322 191.052" stroke="black" stroke-width="0.5"/>
<circle cx="257.125" cy="89.2062" r="0.25" stroke="black" stroke-width="0.0737768"/>
<circle cx="257.15" cy="89.9652" r="0.795858" stroke="black" stroke-width="0.5"/>
<circle cx="256.532" cy="90.4016" r="0.25" stroke="black" stroke-width="0.0737768"/>
<circle cx="257.756" cy="90.354" r="0.25" stroke="black" stroke-width="0.0737768"/>
<circle cx="257.15" cy="89.9653" r="0.149408" fill="black"/>
<path d="M257.3 89.3281C257.49 89.1403 257.886 89.3293 258.047 89.5169C257.897 89.3675 257.748 89.1683 257.599 89.0687L257.3 89.0166C257.335 89.0749 257.331 89.2698 257.3 89.3281Z" fill="black"/>
<path d="M257.622 90.4495C257.58 90.7397 257.3 90.8617 257.137 90.9736C257.494 91.0083 257.811 90.7388 257.924 90.5997C257.753 90.6359 257.622 90.6408 257.622 90.4495Z" fill="black"/>
<path d="M256.565 90.1924C256.281 90.0346 256.277 89.7027 256.307 89.4916C256.112 89.7928 256.206 90.1975 256.278 90.3623C256.278 90.3623 256.254 90.2641 256.35 90.1924C256.446 90.1206 256.565 90.1924 256.565 90.1924Z" fill="black"/>
<path d="M258.464 88.7283L257.89 89.302" stroke="black" stroke-width="0.5"/>
<path d="M255.71 89.1106L256.284 89.4931" stroke="black" stroke-width="0.5"/>
<path d="M257.049 91.2336V90.9658" stroke="black" stroke-width="0.5"/>
<path d="M191.83 240.014C186.015 245.981 178.569 256.781 175.573 261.435C188.578 254.55 204.07 258.056 210.19 260.67C223.808 266.178 240.728 281.836 247.486 288.976C253.3 295.25 265.847 299.113 271.393 300.261C265.579 288.02 267.951 265.834 269.863 256.271C271.018 253.327 271.936 248.404 272.65 242.883C273.827 233.769 274.446 223.026 274.645 216.872L274.262 215.915C271.661 218.211 268.333 213.429 266.994 210.751L262.595 204.631C261.065 205.243 259.408 203.611 258.77 202.719L247.677 189.139C246.453 188.68 244.872 190.478 244.234 191.434C245.612 194.188 244.808 201.38 244.234 204.631L242.513 205.97L241.366 216.872C240.754 218.708 238.178 219.422 236.967 219.549L232.376 229.304C231.305 232.67 228.743 233.129 227.595 232.938L220.901 244.222L191.83 240.014Z" fill="#534A5B"/>
<path d="M304.864 236.571C306.706 238.413 316.89 237.555 322.842 236.759L324.181 236.571V225.861L304.864 236.571Z" fill="#534A5B"/>
<path d="M324.181 236.571C323.766 236.633 323.317 236.696 322.842 236.759L320.929 239.632C320.47 242.692 322.906 252.127 324.181 256.462V236.571Z" fill="#534A5B"/>
<path d="M274.262 215.915L274.645 216.872C274.446 223.026 273.827 233.769 272.65 242.883C273.561 240.612 275.537 237.11 277.48 233.894C278.94 231.478 280.381 229.223 281.339 227.774L277.48 233.894C279.496 233.129 284.335 234.085 286.503 234.659L294.153 235.615L287.268 227.774C285.993 228.666 283.251 229.916 282.486 227.774L274.262 215.915Z" fill="#534A5B"/>
<path d="M274.262 215.915L274.645 216.872C274.446 223.026 273.827 233.769 272.65 242.883M274.262 215.915C271.661 218.211 268.333 213.429 266.994 210.751L262.595 204.631C261.065 205.243 259.408 203.611 258.77 202.719L247.677 189.139C246.453 188.68 244.872 190.478 244.234 191.434C245.612 194.188 244.808 201.38 244.234 204.631L242.513 205.97L241.366 216.872C240.754 218.708 238.178 219.422 236.967 219.549L232.376 229.304C231.305 232.67 228.743 233.129 227.595 232.938L220.901 244.222L191.83 240.014C186.015 245.981 178.569 256.781 175.573 261.435C188.578 254.55 204.07 258.056 210.19 260.67C223.808 266.178 240.728 281.836 247.486 288.976C253.3 295.25 265.847 299.113 271.393 300.261C265.579 288.02 267.951 265.834 269.863 256.271C271.018 253.327 271.936 248.404 272.65 242.883M274.262 215.915L282.486 227.774C283.251 229.916 285.993 228.666 287.268 227.774L294.153 235.615M272.65 242.883C273.561 240.612 275.537 237.11 277.48 233.894M277.48 233.894C278.94 231.478 280.381 229.223 281.339 227.774L277.48 233.894ZM277.48 233.894C279.496 233.129 284.335 234.085 286.503 234.659L294.153 235.615M294.153 235.615L298.17 239.058L304.864 236.571M304.864 236.571C306.706 238.413 316.89 237.555 322.842 236.759M304.864 236.571L324.181 225.861V236.571M324.181 236.571C323.766 236.633 323.317 236.696 322.842 236.759M324.181 236.571L322.842 236.759M324.181 236.571V256.462C322.906 252.127 320.47 242.692 320.929 239.632L322.842 236.759" stroke="black" stroke-width="0.5"/>
<path d="M268.716 266.025C273.765 260.058 281.912 259.459 285.355 259.905L287.841 258.184C290.596 256.195 294.472 256.462 296.066 256.845L297.118 256.08L298.169 255.315L299.126 254.358C301.995 252.255 302.951 251.872 304.481 250.151C306.011 249.386 307.286 251.171 307.732 252.063C308.689 249.96 316.913 244.413 320.929 241.544V239.823L322.651 236.954C318.825 238.025 311.111 237.783 307.732 237.528C306.967 237.987 305.629 237.081 305.055 236.571L298.169 239.249L294.153 235.615C291.246 235.003 287.841 234.723 286.503 234.659C284.667 233.741 279.872 233.766 277.705 233.894L272.541 242.692C273 245.905 270.947 252.956 269.863 256.08L268.716 266.025Z" fill="#948A9D" stroke="black" stroke-width="0.5"/>
<path d="M312.323 247.859C311.558 252.447 315.702 258.051 317.869 260.28C318.381 260.179 318.895 260.071 319.399 259.957C318.379 258.919 316.339 256.539 316.339 255.315C315.829 254.235 315 250.68 315.765 245.101C314.638 246 313.469 246.936 312.323 247.859Z" fill="white"/>
<path d="M315.765 245.101C315 250.68 315.829 254.235 316.339 255.315C316.339 256.539 318.379 258.919 319.399 259.957C321.055 259.581 322.602 259.138 323.607 258.65C322.396 257.347 321.059 253.785 319.973 252.075C319.081 250.669 317.602 246.821 318.826 242.671C317.882 243.417 316.843 244.242 315.765 245.101Z" fill="white"/>
<path d="M324.372 258.184C323.161 253.785 320.738 244.222 320.738 241.162C320.168 241.61 319.523 242.119 318.826 242.671C317.602 246.821 319.081 250.669 319.973 252.075C321.059 253.785 322.396 257.347 323.607 258.65C323.918 258.498 324.178 258.343 324.372 258.184Z" fill="white"/>
<path d="M309.836 249.872C309.071 254.685 312.195 259.264 313.853 260.951C314.991 260.794 316.422 260.565 317.869 260.28C315.702 258.051 311.558 252.447 312.323 247.859C311.473 248.544 310.635 249.222 309.836 249.872Z" fill="white"/>
<path d="M310.41 261.801C311.509 261.218 312.59 260.804 313.088 261.053C313.323 261.023 313.58 260.989 313.853 260.951C312.195 259.264 309.071 254.685 309.836 249.872C308.871 250.659 307.963 251.405 307.159 252.075C306.547 254.973 309.071 259.766 310.41 261.801Z" fill="white"/>
<path d="M304.099 254.741C304.545 257.164 305.935 262.277 307.924 263.348C308.537 262.909 309.48 262.294 310.41 261.801C309.071 259.766 306.547 254.973 307.159 252.075C305.711 253.281 304.6 254.24 304.099 254.741Z" fill="white"/>
<path d="M307.159 252.075C305.711 253.281 304.6 254.24 304.099 254.741C304.545 257.164 305.935 262.277 307.924 263.348C308.537 262.909 309.48 262.294 310.41 261.801M307.159 252.075C306.547 254.973 309.071 259.766 310.41 261.801M307.159 252.075C307.963 251.405 308.871 250.659 309.836 249.872M310.41 261.801C311.509 261.218 312.59 260.804 313.088 261.053C313.323 261.023 313.58 260.989 313.853 260.951M309.836 249.872C309.071 254.685 312.195 259.264 313.853 260.951M309.836 249.872C310.635 249.222 311.473 248.544 312.323 247.859M313.853 260.951C314.991 260.794 316.422 260.565 317.869 260.28M312.323 247.859C311.558 252.447 315.702 258.051 317.869 260.28M312.323 247.859C313.469 246.936 314.638 246 315.765 245.101M317.869 260.28C318.381 260.179 318.895 260.071 319.399 259.957M315.765 245.101C315 250.68 315.829 254.235 316.339 255.315C316.339 256.539 318.379 258.919 319.399 259.957M315.765 245.101C316.843 244.242 317.882 243.417 318.826 242.671M319.399 259.957C321.055 259.581 322.602 259.138 323.607 258.65M318.826 242.671C319.523 242.119 320.168 241.61 320.738 241.162C320.738 244.222 323.161 253.785 324.372 258.184C324.178 258.343 323.918 258.498 323.607 258.65M318.826 242.671C317.602 246.821 319.081 250.669 319.973 252.075C321.059 253.785 322.396 257.347 323.607 258.65" stroke="black" stroke-width="0.5"/>
<path d="M298.169 255.506C297.865 256.774 298.015 258.162 298.414 259.522C299.218 262.264 301.035 264.896 302.186 266.216C302.798 267.747 304.226 268.129 304.863 268.129L310.984 265.069C312.514 264.151 312.259 262.136 311.94 261.244C310.869 261.244 308.816 262.646 307.924 263.348C307.006 263.348 305.501 259.777 304.863 257.992C304.404 256.003 304.162 254.996 304.098 254.741L307.541 251.681C307.235 250.304 305.628 249.959 304.863 249.959C304.251 251.337 301.038 253.338 299.508 254.167L298.934 254.741L298.169 255.506Z" fill="black"/>
<path d="M298.414 259.522C298.015 258.162 297.865 256.774 298.169 255.506L296.448 256.654L290.521 270.424L289.945 271.763C290.009 273.229 290.519 276.43 292.049 277.501C292.148 277.143 292.256 276.759 292.371 276.353C293.957 270.763 296.948 261.092 298.414 259.522Z" fill="black"/>
<path d="M292.049 277.501C290.519 276.43 290.009 273.229 289.945 271.763L290.521 270.424C290.329 269.022 289.639 265.987 288.415 265.069C287.841 263.794 287.115 260.708 288.798 258.566C287.115 258.566 284.207 260.479 283.825 262.009C284.399 264.304 286.758 272.018 287.65 275.971C288.568 278.572 289.18 284.577 289.371 287.255C289.371 290.315 293.452 294.523 295.492 296.244C297.829 298.08 300.929 296.244 302.186 295.097C300.503 295.556 299.062 294.778 298.552 294.332C298.552 293.107 297.532 292.036 297.022 291.654C295.339 292.419 293.515 287.637 292.814 285.151C291.985 284.259 290.672 282.244 292.049 281.326C292.127 281.196 292.236 281.042 292.371 280.882V276.353C292.256 276.759 292.148 277.143 292.049 277.501Z" fill="black"/>
<path d="M292.814 285.151C293.885 283.468 296.576 284.45 297.787 285.151C298.399 285.151 300.209 287.956 301.038 289.359C301.956 289.359 303.971 284.769 304.863 282.473C305.628 280.025 304.417 276.481 303.716 275.014C303.716 277.769 302.696 283.685 302.186 286.299C300.962 283.239 296.831 280.688 294.918 279.796C293.823 279.552 292.897 280.261 292.371 280.882C292.236 281.042 292.127 281.196 292.049 281.326C290.672 282.244 291.985 284.259 292.814 285.151Z" fill="black"/>
<path d="M298.169 255.506L298.934 254.741L299.508 254.167C301.038 253.338 304.251 251.337 304.863 249.959C305.628 249.959 307.235 250.304 307.541 251.681L304.098 254.741C304.162 254.996 304.404 256.003 304.863 257.992C305.501 259.777 307.006 263.348 307.924 263.348C308.816 262.646 310.869 261.244 311.94 261.244C312.259 262.136 312.514 264.151 310.984 265.069L304.863 268.129C304.226 268.129 302.798 267.747 302.186 266.216C301.035 264.896 299.218 262.264 298.414 259.522M298.169 255.506C297.865 256.774 298.015 258.162 298.414 259.522M298.169 255.506L296.448 256.654L290.521 270.424M298.414 259.522C296.948 261.092 293.957 270.763 292.371 276.353M292.814 285.151C293.515 287.637 295.339 292.419 297.022 291.654C297.532 292.036 298.552 293.107 298.552 294.332C299.062 294.778 300.503 295.556 302.186 295.097C300.929 296.244 297.829 298.08 295.492 296.244C293.452 294.523 289.371 290.315 289.371 287.255C289.18 284.577 288.568 278.572 287.65 275.971C286.758 272.018 284.399 264.304 283.825 262.009C284.207 260.479 287.115 258.566 288.798 258.566C287.115 260.708 287.841 263.794 288.415 265.069C289.639 265.987 290.329 269.022 290.521 270.424M292.814 285.151C293.885 283.468 296.576 284.45 297.787 285.151C298.399 285.151 300.209 287.956 301.038 289.359C301.956 289.359 303.971 284.769 304.863 282.473C305.628 280.025 304.417 276.481 303.716 275.014C303.716 277.769 302.696 283.685 302.186 286.299C300.962 283.239 296.831 280.688 294.918 279.796C293.823 279.552 292.897 280.261 292.371 280.882M292.814 285.151C291.985 284.259 290.672 282.244 292.049 281.326C292.127 281.196 292.236 281.042 292.371 280.882M292.371 276.353C292.256 276.759 292.148 277.143 292.049 277.501C290.519 276.43 290.009 273.229 289.945 271.763L290.521 270.424M292.371 276.353V280.882" stroke="black" stroke-width="0.5"/>
<path d="M288.415 258.757C289.333 257.533 293.133 256.972 294.918 256.845C294 256.386 291.348 256.909 290.137 257.227C289.066 257.227 287.905 258.247 287.459 258.757H288.415Z" fill="black" stroke="black" stroke-width="0.5"/>
<path d="M293.005 285.342C293.311 289.167 296.066 291.271 296.831 291.845C297.596 292.61 298.552 293.375 298.934 294.14C300.005 295.364 301.676 295.16 302.377 294.905C302.604 294.679 302.711 294.416 302.734 294.14C302.804 293.297 302.092 292.325 301.612 291.845C300.694 291.08 300.847 290.124 301.038 289.741C300.656 288.976 299.47 287.025 297.787 285.342C297.341 285.024 296.104 284.386 294.727 284.386C294.217 284.386 293.158 284.577 293.005 285.342Z" fill="#FCEDC6"/>
<path d="M301.038 289.741C300.847 290.124 300.694 291.08 301.612 291.845C302.092 292.325 302.804 293.297 302.734 294.14C303.978 294.14 304.417 292.61 304.481 291.845C303.716 291.271 303.652 287.574 303.525 286.107C303.142 287.255 302.109 289.588 301.038 289.741Z" fill="#FCEDC6"/>
<path d="M303.525 286.107C303.652 287.574 303.716 291.271 304.481 291.845C305.259 291.623 305.411 290.309 305.363 289.167C305.345 288.738 305.298 288.333 305.246 288.02V285.342L304.481 283.812L303.525 286.107Z" fill="#FCEDC6"/>
<path d="M305.246 285.342V288.02C305.298 288.333 305.345 288.738 305.363 289.167C305.579 289.104 306.011 288.861 306.011 288.402C306.011 287.472 305.963 285.936 305.812 284.577C305.695 283.515 305.515 282.561 305.246 282.091L304.481 283.812L305.246 285.342Z" fill="#FCEDC6"/>
<path d="M305.246 282.091C305.515 282.561 305.695 283.515 305.812 284.577C306.006 283.876 306.187 282.167 305.363 280.943C305.324 281.198 305.246 281.785 305.246 282.091Z" fill="#FCEDC6"/>
<path d="M301.038 289.741C300.847 290.124 300.694 291.08 301.612 291.845C302.092 292.325 302.804 293.297 302.734 294.14M301.038 289.741C300.656 288.976 299.47 287.025 297.787 285.342C297.341 285.024 296.104 284.386 294.727 284.386C294.217 284.386 293.158 284.577 293.005 285.342C293.311 289.167 296.066 291.271 296.831 291.845C297.596 292.61 298.552 293.375 298.934 294.14C300.005 295.364 301.676 295.16 302.377 294.905C302.604 294.679 302.711 294.416 302.734 294.14M301.038 289.741C302.109 289.588 303.142 287.255 303.525 286.107M299.891 292.61C300.197 293.834 300.528 294.14 300.656 294.14C301.115 294.446 301.74 294.14 301.995 293.949C302.148 293.643 301.931 292.674 301.803 292.228M302.734 294.14C303.978 294.14 304.417 292.61 304.481 291.845M304.481 291.845C303.716 291.271 303.652 287.574 303.525 286.107M304.481 291.845C305.259 291.623 305.411 290.309 305.363 289.167M303.525 286.107L304.481 283.812M305.246 288.02C305.246 287.255 305.246 285.916 305.246 285.342M305.246 288.02C305.298 288.333 305.345 288.738 305.363 289.167M305.246 288.02V285.342M305.246 285.342L304.481 283.812M304.481 283.812L305.246 282.091M305.246 282.091C305.515 282.561 305.695 283.515 305.812 284.577M305.246 282.091C305.246 281.785 305.324 281.198 305.363 280.943C306.187 282.167 306.006 283.876 305.812 284.577M305.363 289.167C305.579 289.104 306.011 288.861 306.011 288.402C306.011 287.472 305.963 285.936 305.812 284.577" stroke="black" stroke-width="0.5"/>
<path d="M302.568 292.036C302.721 292.649 303.525 293.057 303.907 293.184" stroke="black" stroke-width="0.5"/>
<path d="M304.29 289.741C304.29 290.353 304.8 290.761 305.055 290.889" stroke="black" stroke-width="0.5"/>
<path d="M324.754 258.184C331.448 254.167 343.115 248.429 347.132 241.162C351.148 233.894 345.602 226.817 343.306 225.096C340.053 222.656 333.552 221.271 330.11 222.036L323.989 226.052L324.754 258.184Z" fill="#534A5B" stroke="black" stroke-width="0.5"/>
<path d="M323.989 226.435L324.563 257.801L324.181 255.697L323.989 248.238" stroke="#534A5B" stroke-width="0.5"/>
<path d="M323.607 254.55C323.76 255.621 324.308 257.164 324.563 257.801L323.989 256.845L324.372 257.801L324.563 258.184" stroke="black" stroke-width="0.5"/>
<path d="M211.338 261.244C218.223 263.386 233.97 276.29 240.983 282.474C237.923 283.698 233.97 288.849 232.376 291.272C231.764 292.802 227.786 293.694 225.873 293.949C223.119 293.949 219.881 296.117 218.606 297.201C216.616 301.026 212.932 303.512 211.338 304.277C209.655 302.9 199.926 309.186 195.272 312.501C190.07 314.184 183.414 310.142 180.736 307.911C179.206 303.168 179.334 299.814 179.589 298.731C180.507 297.507 179.589 294.523 179.015 293.184C178.25 289.971 179.079 287.51 179.589 286.681L185.135 279.605C186.359 277.31 191.383 273.676 193.742 272.146C195.119 273.676 198.523 270.998 200.053 269.468L200.818 268.512C200.818 264.993 207.194 262.965 210.381 262.391L211.338 261.244Z" fill="#534A5B"/>
<path d="M210.381 262.391C207.194 262.965 200.818 264.993 200.818 268.512L200.053 269.468C198.523 270.998 195.119 273.676 193.742 272.146C191.383 273.676 186.359 277.31 185.135 279.605L179.589 286.681C179.079 287.51 178.25 289.971 179.015 293.184C179.589 294.523 180.507 297.507 179.589 298.731C179.334 299.814 179.206 303.168 180.736 307.911C183.414 310.142 190.07 314.184 195.272 312.501C199.926 309.186 209.655 302.9 211.338 304.277C212.932 303.512 216.616 301.026 218.606 297.201C219.881 296.117 223.119 293.949 225.873 293.949C227.786 293.694 231.764 292.802 232.376 291.272C233.97 288.849 237.923 283.698 240.983 282.474C233.97 276.29 218.223 263.386 211.338 261.244L210.381 262.391ZM210.381 262.391L209.463 266.217M206.939 276.736L209.463 266.217M209.463 266.217C207.903 266.829 204.835 269.532 203.496 270.807C201.813 272.337 201.902 274.632 202.157 275.588C202.157 277.424 200.755 281.071 200.053 282.665" stroke="black" stroke-width="0.5"/>
<path d="M286.694 181.106L296.448 184.932C297.825 187.38 302.76 189.904 305.055 190.861H323.798C332.863 187.424 369.509 175.942 374.673 175.942C379.837 175.942 322.268 194.112 314.426 208.074H318.06C316.836 207.309 315.128 207.755 314.426 208.074L305.82 198.511C305.82 197.593 303.652 198.128 302.568 198.511L293.962 187.8H291.475L286.694 181.106Z" fill="#534A5B"/>
<path d="M314.426 208.074C322.268 194.112 379.837 175.942 374.673 175.942C369.509 175.942 332.863 187.424 323.798 190.861H305.055C302.76 189.904 297.825 187.38 296.448 184.932L286.694 181.106L291.475 187.8H293.962L302.568 198.511C303.652 198.128 305.82 197.593 305.82 198.511L314.426 208.074ZM314.426 208.074H318.06C316.836 207.309 315.128 207.755 314.426 208.074Z" stroke="black" stroke-width="0.5"/>
<path d="M346.94 241.544C356.694 227.774 374.864 194.511 374.864 175.942C370.266 177.544 363.514 180.748 356.713 183.365L338.563 191.456L333.349 193.78C327.042 197.488 314.426 205.558 314.426 208.166C315.263 207.719 317.13 207.092 317.902 208.166L325.046 213.921C326.784 215.392 330.26 219.062 330.26 221.978C334.186 221.338 342.849 221.709 346.093 228.308C347.381 230.546 349.301 235.806 346.94 241.544Z" fill="#948A9D"/>
<path d="M333.349 193.78C327.042 197.488 314.426 205.558 314.426 208.166C315.263 207.719 317.13 207.092 317.902 208.166L325.046 213.921C326.784 215.392 330.26 219.062 330.26 221.978C334.186 221.338 342.849 221.709 346.093 228.308C347.381 230.546 349.301 235.806 346.94 241.544C356.694 227.774 374.864 194.511 374.864 175.942C370.266 177.544 363.514 180.748 356.713 183.365M333.349 193.78L338.563 191.456M333.349 193.78C335.743 192.156 340.656 189.879 346.448 187.463M356.713 183.365L338.563 191.456M356.713 183.365C353.208 184.714 349.69 186.11 346.448 187.463M338.563 191.456L346.448 187.463" stroke="black" stroke-width="0.5"/>
<path d="M180.928 314.045C177.485 312.319 170.816 307.108 171.683 300.07C170.745 301.385 169.781 302.74 168.825 304.086C168.103 312.053 173.66 316.289 176.529 317.412L180.928 314.045Z" fill="white"/>
<path d="M176.529 317.412C173.66 316.289 168.103 312.053 168.825 304.086C167.666 305.719 166.519 307.34 165.443 308.867C166.049 315.703 171.173 318.875 173.66 319.607L176.529 317.412Z" fill="white"/>
<path d="M173.66 319.607C171.173 318.875 166.049 315.703 165.443 308.867C164.508 310.194 163.627 311.45 162.84 312.581C162.84 319.556 166.83 322.638 168.825 323.307L173.66 319.607Z" fill="white"/>
<path d="M159.889 316.9C160.845 320.024 163.447 326.081 166.201 325.316L168.825 323.307C166.83 322.638 162.84 319.556 162.84 312.581C161.548 314.436 160.507 315.955 159.889 316.9Z" fill="white"/>
<path d="M179.589 298.731C179.908 297.137 180.201 293.414 178.824 291.272V290.315L177.294 292.228C176.509 293.321 175.575 294.623 174.551 296.053C173.379 303.55 179.589 310.196 182.84 312.581L184.944 310.971C183.86 310.589 181.54 309.479 180.928 308.102C179.908 306.126 178.212 301.485 179.589 298.731Z" fill="white"/>
<path d="M182.84 312.581C179.589 310.196 173.379 303.55 174.551 296.053C173.651 297.311 172.681 298.669 171.683 300.07C170.816 307.108 177.485 312.319 180.928 314.045L182.84 312.581Z" fill="white"/>
<path d="M174.551 296.053C175.575 294.623 176.509 293.321 177.294 292.228L178.824 290.315V291.272C180.201 293.414 179.908 297.137 179.589 298.731C178.212 301.485 179.908 306.126 180.928 308.102C181.54 309.479 183.86 310.589 184.944 310.971L182.84 312.581M174.551 296.053C173.379 303.55 179.589 310.196 182.84 312.581M174.551 296.053C173.651 297.311 172.681 298.669 171.683 300.07M182.84 312.581L180.928 314.045M171.683 300.07C170.816 307.108 177.485 312.319 180.928 314.045M171.683 300.07C170.745 301.385 169.781 302.74 168.825 304.086M180.928 314.045L176.529 317.412M168.825 304.086C168.103 312.053 173.66 316.289 176.529 317.412M168.825 304.086C167.666 305.719 166.519 307.34 165.443 308.867M176.529 317.412L173.66 319.607M165.443 308.867C166.049 315.703 171.173 318.875 173.66 319.607M165.443 308.867C164.508 310.194 163.627 311.45 162.84 312.581M173.66 319.607L168.825 323.307M162.84 312.581C161.548 314.436 160.507 315.955 159.889 316.9C160.845 320.024 163.447 326.081 166.201 325.316L168.825 323.307M162.84 312.581C162.84 319.556 166.83 322.638 168.825 323.307" stroke="black" stroke-width="0.5"/>
<path d="M162.949 312.501C161.419 311.736 159.379 312.948 158.55 313.649L155.681 318.239C155.231 319.39 154.979 320.475 154.884 321.491C154.789 322.519 154.854 323.476 155.038 324.359C155.783 327.939 158.475 330.304 160.272 331.245C162.414 332.163 164.097 331.627 164.67 331.245L169.834 325.698V323.021L166.392 325.124C164.097 326.961 161.355 320.407 160.272 316.9L162.949 312.501Z" fill="black"/>
<path d="M154.884 321.491C153.19 323.114 150.654 326.523 148.312 329.906C146.46 332.58 144.73 335.237 143.632 336.983C144.206 336.728 145.621 336.218 146.692 336.218L155.038 324.359C154.854 323.476 154.789 322.519 154.884 321.491Z" fill="black"/>
<path d="M145.353 329.906C144.78 331.436 143.632 334.993 143.632 336.983C144.73 335.237 146.46 332.58 148.312 329.906C148.154 329.268 147.954 327.726 148.413 326.655L145.353 329.906Z" fill="black"/>
<path d="M146.692 336.218C145.621 336.218 144.206 336.728 143.632 336.983C142.561 337.748 140.954 340.17 140.189 341.19C138.659 343.677 136.938 347.311 136.555 348.458C136.555 353.66 141.656 357.639 144.206 358.977C147.572 360.966 150.709 358.914 151.856 357.639C145.736 357.179 142.038 353.367 140.954 351.518C140.189 350.6 140.636 349.733 140.954 349.414C139.118 348.649 139.807 346.418 140.381 345.398C140.381 343.409 141.656 340.999 142.293 340.043C145.2 338.054 148.095 343.294 149.179 346.163C149.944 347.387 149.88 351.518 149.752 353.431C150.823 351.901 152.621 351.518 153.386 351.518C155.038 350.371 156.956 347.821 157.785 346.163C158.397 345.245 158.805 342.465 158.55 341.382C157.938 343.677 154.343 347.438 152.621 349.032C152.621 347.808 151.219 342.147 150.517 339.469C149.944 338.13 147.967 336.6 146.692 336.218Z" fill="black"/>
<path d="M154.884 321.491C154.979 320.475 155.231 319.39 155.681 318.239L158.55 313.649C159.379 312.948 161.419 311.736 162.949 312.501L160.272 316.9C161.355 320.407 164.097 326.961 166.392 325.124L169.834 323.021V325.698L164.67 331.245C164.097 331.627 162.414 332.163 160.272 331.245C158.475 330.304 155.783 327.939 155.038 324.359M154.884 321.491C153.19 323.114 150.654 326.523 148.312 329.906M154.884 321.491C154.789 322.519 154.854 323.476 155.038 324.359M143.632 336.983C143.632 334.993 144.78 331.436 145.353 329.906L148.413 326.655C147.954 327.726 148.154 329.268 148.312 329.906M143.632 336.983C144.73 335.237 146.46 332.58 148.312 329.906M143.632 336.983C144.206 336.728 145.621 336.218 146.692 336.218M143.632 336.983C142.561 337.748 140.954 340.17 140.189 341.19C138.659 343.677 136.938 347.311 136.555 348.458C136.555 353.66 141.656 357.639 144.206 358.977C147.572 360.966 150.709 358.914 151.856 357.639C145.736 357.179 142.038 353.367 140.954 351.518C140.189 350.6 140.636 349.733 140.954 349.414C139.118 348.649 139.807 346.418 140.381 345.398C140.381 343.409 141.656 340.999 142.293 340.043C145.2 338.054 148.095 343.294 149.179 346.163C149.944 347.387 149.88 351.518 149.752 353.431C150.823 351.901 152.621 351.518 153.386 351.518C155.038 350.371 156.956 347.821 157.785 346.163C158.397 345.245 158.805 342.465 158.55 341.382C157.938 343.677 154.343 347.438 152.621 349.032C152.621 347.808 151.219 342.147 150.517 339.469C149.944 338.13 147.967 336.6 146.692 336.218M155.038 324.359L146.692 336.218" stroke="black" stroke-width="0.5"/>
<path d="M148.414 326.846C149.026 324.703 153.004 321.618 154.916 320.343V321.682L148.031 330.479C148.031 329.408 148.286 327.611 148.414 326.846Z" fill="#FCEDC6" stroke="black" stroke-width="0.5"/>
<path d="M323.224 131.761L325.248 130.04L329.918 126.066L332.809 123.607L332.979 123.463L336.039 120.86C346.175 111.87 347.897 118.565 345.793 120.477C345.793 121.065 343.129 123.303 339.5 126.066C338.417 126.891 337.248 127.763 336.039 128.652C334.983 129.427 333.897 130.215 332.809 130.996C331.349 132.045 329.888 133.081 328.497 134.056C328.137 134.309 327.781 134.558 327.432 134.801C326.112 135.722 324.878 136.572 323.798 137.308L323.224 131.761Z" fill="white"/>
<path d="M323.798 137.308L323.224 131.761L315.191 138.073C314.732 140.521 316.913 141.771 318.06 142.089L323.798 137.308Z" fill="white"/>
<path d="M323.224 131.761L323.798 137.308M323.224 131.761L325.248 130.04M323.224 131.761L315.191 138.073C314.732 140.521 316.913 141.771 318.06 142.089L323.798 137.308M336.039 120.86C346.175 111.87 347.897 118.565 345.793 120.477C345.793 121.065 343.129 123.303 339.5 126.066M336.039 120.86L332.979 123.463L332.809 123.607M336.039 120.86C337.569 121.625 338.984 124.65 339.5 126.066M323.798 137.308C324.878 136.572 326.112 135.722 327.432 134.801M325.248 130.04C326.23 131.111 327.113 133.661 327.432 134.801M325.248 130.04L329.918 126.066M327.432 134.801C327.781 134.558 328.137 134.309 328.497 134.056M328.006 128.127C329.077 129.658 328.78 132.718 328.497 134.056M328.497 134.056C329.888 133.081 331.349 132.045 332.809 130.996M329.918 126.066C331.601 126.95 332.405 128.701 332.596 129.466L332.809 130.996M329.918 126.066L332.809 123.607M332.809 130.996C333.897 130.215 334.983 129.427 336.039 128.652M332.809 123.607C334.322 124.163 335.21 124.94 335.465 125.259L336.039 128.652M336.039 128.652C337.248 127.763 338.417 126.891 339.5 126.066M338.908 120.477C339.099 120.286 342.733 117.799 343.689 118.182C344.837 119.521 343.243 120.158 342.542 120.86C341.317 121.778 340.374 122.262 340.055 122.39C339.137 122.849 338.334 122.007 338.334 121.433C338.525 120.668 338.716 120.668 338.908 120.477Z" stroke="black" stroke-width="0.5"/>
</svg>
