<svg width="147" height="214" viewBox="0 0 147 214" fill="none" xmlns="http://www.w3.org/2000/svg">
<path d="M91.0068 104.203C91.0068 104.203 145.634 12.6145 141.634 11.2029C111.458 0.553353 9.63425 5.70314 5.13395 11.2029C2.95327 13.8678 39.7188 62.168 70.302 104.203C104.134 150.703 144.211 202.883 141.634 205.203C136.634 209.703 13.1337 210.203 5.13395 205.203C2.16588 203.348 49.5068 121.5 49.5068 121.5" stroke="#19181b" stroke-width="10" stroke-linecap="round" stroke-linejoin="round"/>
<path d="M46 25C70.9932 21.8543 109.007 24 109.007 25.6457L82.0068 73.6457" stroke="#19181b" stroke-width="10" stroke-linecap="round" stroke-linejoin="round"/>
<path d="M63.0059 140L36.0059 187.5C36.0059 189.5 78.4991 190 96.4991 188.5" stroke="#19181b" stroke-width="10" stroke-linecap="round" stroke-linejoin="round"/>
</svg>
